<svg width="4163" height="2177" xmlns="http://www.w3.org/2000/svg" xmlns:xlink="http://www.w3.org/1999/xlink" xml:space="preserve" overflow="hidden"><g transform="translate(-84 -142)"><rect x="87.5002" y="425.5" width="2906" height="1678" stroke="#000000" stroke-width="6.875" stroke-miterlimit="8" stroke-dasharray="27.5 20.625" fill="none"/><rect x="875.5" y="471.5" width="876" height="581" stroke="#000000" stroke-width="6.875" stroke-miterlimit="8" fill="none"/><text font-family="Calibri,Calibri_MSFontService,sans-serif" font-weight="400" font-size="83" transform="matrix(1 0 0 1 1211.35 789)">ESP32</text><rect x="943.5" y="531.5" width="254" height="164" stroke="#000000" stroke-width="6.875" stroke-miterlimit="8" fill="none"/><text font-family="Calibri,Calibri_MSFontService,sans-serif" font-weight="400" font-size="83" transform="matrix(1 0 0 1 1010.27 640)">BLE</text><rect x="1441.5" y="531.5" width="255" height="164" stroke="#000000" stroke-width="6.875" stroke-miterlimit="8" fill="none"/><text font-family="Calibri,Calibri_MSFontService,sans-serif" font-weight="400" font-size="83" transform="matrix(1 0 0 1 1487.52 640)">MAC</text><rect x="223.5" y="761.5" width="362" height="198" stroke="#000000" stroke-width="6.875" stroke-miterlimit="8" fill="none"/><text font-family="Calibri,Calibri_MSFontService,sans-serif" font-weight="400" font-size="83" transform="matrix(1 0 0 1 331.956 888)">IMU</text><path d="M585.5 829.25 812 829.25 812 797.5 875.5 861 812 924.5 812 892.75 585.5 892.75Z" stroke="#000000" stroke-width="6.875" stroke-miterlimit="8" fill="none" fill-rule="evenodd"/><rect x="829.5" y="1324.5" width="361" height="198" stroke="#000000" stroke-width="6.875" stroke-miterlimit="8" fill="none"/><text font-family="Calibri,Calibri_MSFontService,sans-serif" font-weight="400" font-size="64" transform="matrix(1 0 0 1 960.531 1406)">LED</text><text font-family="Calibri,Calibri_MSFontService,sans-serif" font-weight="400" font-size="64" transform="matrix(1 0 0 1 895.195 1483)">NeoPixel</text><rect x="1457.5" y="1324.5" width="362" height="198" stroke="#000000" stroke-width="6.875" stroke-miterlimit="8" fill="none"/><text font-family="Calibri,Calibri_MSFontService,sans-serif" font-weight="400" font-size="83" transform="matrix(1 0 0 1 1527.38 1450)">Buzzer</text><path d="M1639.15 1052 1639.15 1300.94 1636.85 1300.94 1636.85 1052ZM1651.75 1296.36 1638 1323.86 1624.25 1296.36Z"/><path d="M1049 1052.5 1049 1281.5 1070.5 1281.5 1027.5 1324.5 984.5 1281.5 1006 1281.5 1006 1052.5Z" stroke="#000000" stroke-width="6.875" stroke-miterlimit="8" fill="none" fill-rule="evenodd"/><rect x="2166.5" y="645.5" width="345" height="232" stroke="#000000" stroke-width="6.875" stroke-miterlimit="8" fill="none"/><text font-family="Calibri,Calibri_MSFontService,sans-serif" font-weight="400" font-size="83" transform="matrix(1 0 0 1 2271.25 789)">PHY</text><path d="M1751.5 769 1825 695.5 1825 738.115 2093 738.115 2093 695.5 2166.5 769 2093 842.5 2093 799.885 1825 799.885 1825 842.5Z" stroke="#000000" stroke-width="6.875" stroke-miterlimit="8" fill="none" fill-rule="evenodd"/><text font-family="Calibri,Calibri_MSFontService,sans-serif" font-weight="400" font-size="64" transform="matrix(1 0 0 1 1893.29 714)">RMII</text><text font-family="Calibri,Calibri_MSFontService,sans-serif" font-weight="400" font-size="64" transform="matrix(1 0 0 1 598.069 723)">SPI, I2C</text><rect x="2767.5" y="693.5" width="277" height="152" stroke="#000000" stroke-width="6.875" stroke-miterlimit="8" stroke-dasharray="6.875 6.875" fill="#FFFFFF"/><text font-family="Calibri,Calibri_MSFontService,sans-serif" font-weight="400" font-size="55" transform="matrix(1 0 0 1 2853.54 787)">RJ45</text><path d="M2511.5 769 2555 725.5 2555 750.721 2724 750.721 2724 725.5 2767.5 769 2724 812.5 2724 787.279 2555 787.279 2555 812.5Z" stroke="#000000" stroke-width="6.875" stroke-miterlimit="8" fill="none" fill-rule="evenodd"/><rect x="1865.5" y="946.5" width="345" height="126" stroke="#000000" stroke-width="4.58333" stroke-miterlimit="8" fill="none"/><text font-family="Calibri,Calibri_MSFontService,sans-serif" font-weight="400" font-size="55" transform="matrix(1 0 0 1 1919.05 1027)">TX, RX LED</text><rect x="2662.5" y="1009.5" width="382" height="198" stroke="#000000" stroke-width="6.875" stroke-miterlimit="8" stroke-dasharray="6.875 6.875" fill="#FFFFFF"/><text font-family="Calibri,Calibri_MSFontService,sans-serif" font-weight="400" font-size="55" transform="matrix(1 0 0 1 2718.22 1093)">100BASE</text><text font-family="Calibri,Calibri_MSFontService,sans-serif" font-weight="400" font-size="55" transform="matrix(1 0 0 1 2915.93 1093)">-</text><text font-family="Calibri,Calibri_MSFontService,sans-serif" font-weight="400" font-size="55" transform="matrix(1 0 0 1 2932.54 1093)">T1 </text><text font-family="Calibri,Calibri_MSFontService,sans-serif" font-weight="400" font-size="55" transform="matrix(1 0 0 1 2798.11 1159)">conn</text><rect x="1888.5" y="1986.5" width="751" height="142" stroke="#000000" stroke-width="6.875" stroke-miterlimit="8" stroke-dasharray="6.875 6.875" fill="#FFFFFF"/><text font-family="Calibri,Calibri_MSFontService,sans-serif" font-weight="400" font-size="55" transform="matrix(1 0 0 1 2094.27 2075)">Pogo pins conn</text><rect x="2662.5" y="1324.5" width="382" height="198" stroke="#000000" stroke-width="6.875" stroke-miterlimit="8" stroke-dasharray="6.875 6.875" fill="#FFFFFF"/><text font-family="Calibri,Calibri_MSFontService,sans-serif" font-weight="400" font-size="55" transform="matrix(1 0 0 1 2743.4 1441)">CAN conn</text><path d="M1.14583-1.30047e-06 1.14617 295.064-1.1455 295.064-1.14583 1.30047e-06ZM13.7503 290.48 0.000360892 317.98-13.7497 290.48Z" transform="matrix(1 0 0 -1 1204 2273.98)"/><text font-family="Calibri,Calibri_MSFontService,sans-serif" font-weight="400" font-size="64" transform="matrix(1 0 0 1 1298.14 2263)">12</text><text font-family="Calibri,Calibri_MSFontService,sans-serif" font-weight="400" font-size="64" transform="matrix(1 0 0 1 1363.45 2263)">-</text><text font-family="Calibri,Calibri_MSFontService,sans-serif" font-weight="400" font-size="64" transform="matrix(1 0 0 1 1382.93 2263)">25V</text><path d="M2261.85 1963.49 2261.85 1106.85 2638.81 1106.85 2638.81 1109.15 2263 1109.15 2264.15 1108 2264.15 1963.49ZM2276.75 1958.91 2263 1986.41 2249.25 1958.91ZM2634.23 1094.25 2661.73 1108 2634.23 1121.75Z"/><path d="M2412.85 1963.4 2412.85 1421.85 2639.05 1421.85 2639.05 1424.15 2414 1424.15 2415.15 1423 2415.15 1963.4ZM2427.75 1958.82 2414 1986.32 2400.25 1958.82ZM2634.46 1409.25 2661.96 1423 2634.46 1436.75Z"/><rect x="829.5" y="1631.5" width="751" height="325" stroke="#000000" stroke-width="6.875" stroke-miterlimit="8" fill="none"/><text font-family="Calibri,Calibri_MSFontService,sans-serif" font-weight="400" font-size="83" transform="matrix(1 0 0 1 866.122 1821)">Power management</text><path d="M0 0 389.507 0.000360892" stroke="#000000" stroke-width="2.29167" stroke-miterlimit="8" fill="none" fill-rule="evenodd" transform="matrix(1 0 0 -1 1580 1794)"/><path d="M1975.15 1794 1975.15 1963.54 1972.85 1963.54 1972.85 1794ZM1987.75 1958.96 1974 1986.46 1960.25 1958.96Z"/><text font-family="Calibri,Calibri_MSFontService,sans-serif" font-weight="700" font-size="64" transform="matrix(1 0 0 1 2002.44 2216)">RADAR MODULE PCB</text><rect x="3618.5" y="797.5" width="625" height="449" stroke="#000000" stroke-width="6.875" stroke-miterlimit="8" fill="none"/><text font-family="Calibri,Calibri_MSFontService,sans-serif" font-weight="400" font-size="83" transform="matrix(1 0 0 1 3866.87 1005)">SBC</text><text font-family="Calibri,Calibri_MSFontService,sans-serif" font-weight="400" font-size="73" transform="matrix(1 0 0 1 3672.31 1096)">(Data processing)</text><path d="M3066.92 767.854 3332.05 767.854 3332.05 1009.06 3330.9 1007.91 3594.88 1007.91 3594.88 1010.2 3329.75 1010.2 3329.75 769 3330.9 770.146 3066.92 770.146ZM3071.5 782.75 3044 769 3071.5 755.25ZM3590.3 995.309 3617.8 1009.06 3590.3 1022.81Z"/><path d="M3066.92 1106.85 3594.88 1106.85 3594.88 1109.15 3066.92 1109.15ZM3071.5 1121.75 3044 1108 3071.5 1094.25ZM3590.3 1094.25 3617.8 1108 3590.3 1121.75Z"/><path d="M4.58338 22.9167 4.58345 59.5833-4.58322 59.5833-4.58329 22.9167ZM4.5835 87.0833 4.58357 123.75-4.5831 123.75-4.58317 87.0833ZM4.58362 151.25 4.58365 166.964-4.58302 166.964-4.58305 151.25ZM-13.7499 27.5 0 0 13.7501 27.5ZM13.7503 162.381 0.000360892 189.881-13.7497 162.381Z" transform="matrix(1 0 0 -1 1060.5 461.381)"/><rect x="794.5" y="145.5" width="532" height="126" stroke="#000000" stroke-width="6.875" stroke-miterlimit="8" fill="none"/><text font-family="Calibri,Calibri_MSFontService,sans-serif" font-weight="400" font-size="64" transform="matrix(1 0 0 1 891.277 229)">Smart device</text><path d="M2339.77 877 2339.77 1009.65 2232.92 1009.65 2232.92 1007.35 2338.62 1007.35 2337.48 1008.5 2337.48 877ZM2237.5 1022.25 2210 1008.5 2237.5 994.751Z"/></g></svg>