<svg width="3978" height="2177" xmlns="http://www.w3.org/2000/svg" xmlns:xlink="http://www.w3.org/1999/xlink" xml:space="preserve" overflow="hidden"><g transform="translate(-269 -142)"><rect x="321.5" y="425.5" width="2906" height="1678" stroke="#000000" stroke-width="6.875" stroke-miterlimit="8" stroke-dasharray="27.5 20.625" fill="none"/><rect x="1109.5" y="471.5" width="876" height="581" stroke="#000000" stroke-width="6.875" stroke-miterlimit="8" fill="none"/><text font-family="Calibri,Calibri_MSFontService,sans-serif" font-weight="400" font-size="83" transform="matrix(1 0 0 1 1445.49 789)">ESP32</text><rect x="1177.5" y="531.5" width="255" height="164" stroke="#000000" stroke-width="6.875" stroke-miterlimit="8" fill="none"/><text font-family="Calibri,Calibri_MSFontService,sans-serif" font-weight="400" font-size="83" transform="matrix(1 0 0 1 1244.41 640)">BLE</text><rect x="1675.5" y="531.5" width="255" height="164" stroke="#000000" stroke-width="6.875" stroke-miterlimit="8" fill="none"/><text font-family="Calibri,Calibri_MSFontService,sans-serif" font-weight="400" font-size="83" transform="matrix(1 0 0 1 1721.66 640)">MAC</text><rect x="448.5" y="519.5" width="361" height="206" stroke="#000000" stroke-width="6.875" stroke-miterlimit="8" fill="none"/><text font-family="Calibri,Calibri_MSFontService,sans-serif" font-weight="400" font-size="64" transform="matrix(1 0 0 1 483.415 644)">ACC + </text><text font-family="Calibri,Calibri_MSFontService,sans-serif" font-weight="400" font-size="64" transform="matrix(1 0 0 1 649.653 644)">Gyro</text><path d="M809.5 594.25 1037 594.25 1037 562.5 1100.5 626 1037 689.5 1037 657.75 809.5 657.75Z" stroke="#000000" stroke-width="6.875" stroke-miterlimit="8" fill="none" fill-rule="evenodd"/><rect x="1063.5" y="1324.5" width="361" height="198" stroke="#000000" stroke-width="6.875" stroke-miterlimit="8" fill="none"/><text font-family="Calibri,Calibri_MSFontService,sans-serif" font-weight="400" font-size="64" transform="matrix(1 0 0 1 1194.67 1406)">LED</text><text font-family="Calibri,Calibri_MSFontService,sans-serif" font-weight="400" font-size="64" transform="matrix(1 0 0 1 1129.34 1483)">NeoPixel</text><rect x="1481.5" y="1324.5" width="361" height="198" stroke="#000000" stroke-width="6.875" stroke-miterlimit="8" fill="none"/><text font-family="Calibri,Calibri_MSFontService,sans-serif" font-weight="400" font-size="83" transform="matrix(1 0 0 1 1550.44 1450)">Buzzer</text><path d="M1662.15 1052 1662.15 1300.94 1659.85 1300.94 1659.85 1052ZM1674.75 1296.36 1661 1323.86 1647.25 1296.36Z"/><path d="M1283.25 1052.5 1283.25 1282 1304.5 1282 1262 1324.5 1219.5 1282 1240.75 1282 1240.75 1052.5Z" stroke="#000000" stroke-width="6.875" stroke-miterlimit="8" fill="none" fill-rule="evenodd"/><rect x="2400.5" y="645.5" width="345" height="232" stroke="#000000" stroke-width="6.875" stroke-miterlimit="8" fill="none"/><text font-family="Calibri,Calibri_MSFontService,sans-serif" font-weight="400" font-size="83" transform="matrix(1 0 0 1 2505.4 789)">PHY</text><path d="M1985.5 769 2059 695.5 2059 738.115 2327 738.115 2327 695.5 2400.5 769 2327 842.5 2327 799.885 2059 799.885 2059 842.5Z" stroke="#000000" stroke-width="6.875" stroke-miterlimit="8" fill="none" fill-rule="evenodd"/><text font-family="Calibri,Calibri_MSFontService,sans-serif" font-weight="400" font-size="64" transform="matrix(1 0 0 1 2127.44 714)">RMII</text><text font-family="Calibri,Calibri_MSFontService,sans-serif" font-weight="400" font-size="64" transform="matrix(1 0 0 1 849.101 531)">SPI</text><text font-family="Calibri,Calibri_MSFontService,sans-serif" font-weight="400" font-size="64" transform="matrix(1 0 0 1 927.591 531)">/</text><text font-family="Calibri,Calibri_MSFontService,sans-serif" font-weight="400" font-size="64" transform="matrix(1 0 0 1 952.226 531)">I2C</text><rect x="3001.5" y="693.5" width="277" height="152" stroke="#000000" stroke-width="6.875" stroke-miterlimit="8" stroke-dasharray="6.875 6.875" fill="#FFFFFF"/><text font-family="Calibri,Calibri_MSFontService,sans-serif" font-weight="400" font-size="55" transform="matrix(1 0 0 1 3087.68 787)">RJ45</text><path d="M2745.5 769 2789 725.5 2789 750.721 2958 750.721 2958 725.5 3001.5 769 2958 812.5 2958 787.279 2789 787.279 2789 812.5Z" stroke="#000000" stroke-width="6.875" stroke-miterlimit="8" fill="none" fill-rule="evenodd"/><rect x="2099.5" y="946.5" width="345" height="126" stroke="#000000" stroke-width="4.58333" stroke-miterlimit="8" fill="none"/><text font-family="Calibri,Calibri_MSFontService,sans-serif" font-weight="400" font-size="55" transform="matrix(1 0 0 1 2153.19 1027)">TX, RX LED</text><rect x="2896.5" y="1009.5" width="382" height="198" stroke="#000000" stroke-width="6.875" stroke-miterlimit="8" stroke-dasharray="6.875 6.875" fill="#FFFFFF"/><text font-family="Calibri,Calibri_MSFontService,sans-serif" font-weight="400" font-size="55" transform="matrix(1 0 0 1 2952.37 1093)">100BASE</text><text font-family="Calibri,Calibri_MSFontService,sans-serif" font-weight="400" font-size="55" transform="matrix(1 0 0 1 3150.07 1093)">-</text><text font-family="Calibri,Calibri_MSFontService,sans-serif" font-weight="400" font-size="55" transform="matrix(1 0 0 1 3166.68 1093)">T1 </text><text font-family="Calibri,Calibri_MSFontService,sans-serif" font-weight="400" font-size="55" transform="matrix(1 0 0 1 3032.25 1159)">conn</text><rect x="2122.5" y="1986.5" width="751" height="142" stroke="#000000" stroke-width="6.875" stroke-miterlimit="8" stroke-dasharray="6.875 6.875" fill="#FFFFFF"/><text font-family="Calibri,Calibri_MSFontService,sans-serif" font-weight="400" font-size="55" transform="matrix(1 0 0 1 2328.41 2075)">Pogo pins conn</text><rect x="2896.5" y="1324.5" width="382" height="198" stroke="#000000" stroke-width="6.875" stroke-miterlimit="8" stroke-dasharray="6.875 6.875" fill="#FFFFFF"/><text font-family="Calibri,Calibri_MSFontService,sans-serif" font-weight="400" font-size="55" transform="matrix(1 0 0 1 2977.54 1441)">CAN conn</text><path d="M1.14583-1.30047e-06 1.14617 295.064-1.1455 295.064-1.14583 1.30047e-06ZM13.7503 290.48 0.000360892 317.98-13.7497 290.48Z" transform="matrix(1 0 0 -1 1439 2273.98)"/><text font-family="Calibri,Calibri_MSFontService,sans-serif" font-weight="400" font-size="64" transform="matrix(1 0 0 1 1532.28 2263)">12</text><text font-family="Calibri,Calibri_MSFontService,sans-serif" font-weight="400" font-size="64" transform="matrix(1 0 0 1 1597.59 2263)">-</text><text font-family="Calibri,Calibri_MSFontService,sans-serif" font-weight="400" font-size="64" transform="matrix(1 0 0 1 1617.07 2263)">25V</text><path d="M2495.85 1963.49 2495.85 1106.85 2872.81 1106.85 2872.81 1109.15 2497 1109.15 2498.15 1108 2498.15 1963.49ZM2510.75 1958.91 2497 1986.41 2483.25 1958.91ZM2868.23 1094.25 2895.73 1108 2868.23 1121.75Z"/><path d="M2646.85 1963.4 2646.85 1421.85 2873.05 1421.85 2873.05 1424.15 2648 1424.15 2649.15 1423 2649.15 1963.4ZM2661.75 1958.82 2648 1986.32 2634.25 1958.82ZM2868.46 1409.25 2895.96 1423 2868.46 1436.75Z"/><rect x="1063.5" y="1631.5" width="751" height="325" stroke="#000000" stroke-width="6.875" stroke-miterlimit="8" fill="none"/><text font-family="Calibri,Calibri_MSFontService,sans-serif" font-weight="400" font-size="83" transform="matrix(1 0 0 1 1100.26 1821)">Power management</text><path d="M0 0 389.507 0.000360892" stroke="#000000" stroke-width="2.29167" stroke-miterlimit="8" fill="none" fill-rule="evenodd" transform="matrix(1 0 0 -1 1814 1794)"/><path d="M2209.15 1794 2209.15 1963.54 2206.85 1963.54 2206.85 1794ZM2221.75 1958.96 2208 1986.46 2194.25 1958.96Z"/><text font-family="Calibri,Calibri_MSFontService,sans-serif" font-weight="700" font-size="64" transform="matrix(1 0 0 1 2236.58 2216)">RADAR MODULE PCB</text><rect x="3618.5" y="797.5" width="625" height="449" stroke="#000000" stroke-width="6.875" stroke-miterlimit="8" fill="none"/><text font-family="Calibri,Calibri_MSFontService,sans-serif" font-weight="400" font-size="83" transform="matrix(1 0 0 1 3866.87 1005)">SBC</text><text font-family="Calibri,Calibri_MSFontService,sans-serif" font-weight="400" font-size="73" transform="matrix(1 0 0 1 3672.31 1096)">(Data processing)</text><path d="M3300.92 767.854 3448.98 767.854 3448.98 1009.32 3447.83 1008.18 3594.74 1008.18 3594.74 1010.47 3446.68 1010.47 3446.68 769 3447.83 770.146 3300.92 770.146ZM3305.5 782.75 3278 769 3305.5 755.25ZM3590.16 995.572 3617.66 1009.32 3590.16 1023.07Z"/><path d="M3300.92 1106.85 3594.74 1106.85 3594.74 1109.15 3300.92 1109.15ZM3305.5 1121.75 3278 1108 3305.5 1094.25ZM3590.16 1094.25 3617.66 1108 3590.16 1121.75Z"/><path d="M4.58338 22.9167 4.58345 59.5833-4.58322 59.5833-4.58329 22.9167ZM4.5835 87.0833 4.58357 123.75-4.5831 123.75-4.58317 87.0833ZM4.58362 151.25 4.58365 166.964-4.58302 166.964-4.58305 151.25ZM-13.7499 27.5 0 0 13.7501 27.5ZM13.7503 162.381 0.000360892 189.881-13.7497 162.381Z" transform="matrix(1 0 0 -1 1295.5 461.381)"/><rect x="1028.5" y="145.5" width="533" height="126" stroke="#000000" stroke-width="6.875" stroke-miterlimit="8" fill="none"/><text font-family="Calibri,Calibri_MSFontService,sans-serif" font-weight="400" font-size="64" transform="matrix(1 0 0 1 1125.42 229)">Smart device</text><path d="M2573.77 877 2573.77 1009.65 2466.92 1009.65 2466.92 1007.35 2572.63 1007.35 2571.48 1008.5 2571.48 877ZM2471.5 1022.25 2444 1008.5 2471.5 994.751Z"/><path d="M22.9168-1.14583 460.449-1.14583 460.449 416.032 459.303 414.886 895.689 414.886 895.689 417.178 458.157 417.178 458.157 0 459.303 1.14583 22.9168 1.14583ZM27.5 13.75 0 0 27.5-13.75ZM891.106 402.282 918.606 416.032 891.106 429.782Z" transform="matrix(1.83697e-16 1 1 -1.83697e-16 1923 1061)"/><rect x="607.5" y="1365.5" width="361" height="198" stroke="#000000" stroke-width="6.875" stroke-miterlimit="8" fill="none"/><text font-family="Calibri,Calibri_MSFontService,sans-serif" font-weight="400" font-size="64" transform="matrix(1 0 0 1 652.862 1486)">UART/USB</text><path d="M788.327 1585.92 788.327 1760.86 533.917 1760.86 533.917 1758.57 787.181 1758.57 786.035 1759.72 786.035 1585.92ZM773.431 1590.5 787.181 1563 800.931 1590.5ZM538.5 1773.47 511 1759.72 538.5 1745.97Z"/><text font-family="Calibri,Calibri_MSFontService,sans-serif" font-weight="400" font-size="64" transform="matrix(1 0 0 1 813.509 1093)">UART</text><text font-family="Calibri,Calibri_MSFontService,sans-serif" font-weight="400" font-size="64" transform="matrix(1 0 0 1 614.155 1735)">USB</text><text font-family="Calibri,Calibri_MSFontService,sans-serif" font-weight="400" font-size="64" transform="matrix(1 0 0 1 1976.07 1472)">UART + GPIO</text><rect x="272.5" y="1705.5" width="239" height="111" stroke="#000000" stroke-width="6.875" stroke-miterlimit="8" stroke-dasharray="6.875 6.875" fill="#FFFFFF"/><text font-family="Calibri,Calibri_MSFontService,sans-serif" font-weight="400" font-size="55" transform="matrix(1 0 0 1 325.492 1778)">USB C</text><rect x="447.5" y="753.5" width="361" height="207" stroke="#000000" stroke-width="6.875" stroke-miterlimit="8" fill="none"/><text font-family="Calibri,Calibri_MSFontService,sans-serif" font-weight="400" font-size="83" transform="matrix(1 0 0 1 552.89 884)">Mag</text><path d="M808.5 821.25 1036 821.25 1036 789.5 1099.5 853 1036 916.5 1036 884.75 808.5 884.75Z" stroke="#000000" stroke-width="6.875" stroke-miterlimit="8" fill="none" fill-rule="evenodd"/><text font-family="Calibri,Calibri_MSFontService,sans-serif" font-weight="400" font-size="64" transform="matrix(1 0 0 1 846.418 775)">SPI</text><text font-family="Calibri,Calibri_MSFontService,sans-serif" font-weight="400" font-size="64" transform="matrix(1 0 0 1 924.907 775)">/</text><text font-family="Calibri,Calibri_MSFontService,sans-serif" font-weight="400" font-size="64" transform="matrix(1 0 0 1 949.543 775)">I2C</text><path d="M789.146 1009 789.146 1342.66 786.854 1342.66 786.854 1009ZM801.75 1338.07 788 1365.57 774.25 1338.07Z"/><path d="M22.9164-1.14581 321.758-1.14547 321.758 1.14619 22.9164 1.14586ZM27.5 13.75 0 0 27.5-13.75Z" transform="matrix(-1 0 0 1 1109.76 1009)"/></g></svg>