<svg width="3937" height="2115" xmlns="http://www.w3.org/2000/svg" xmlns:xlink="http://www.w3.org/1999/xlink" xml:space="preserve" overflow="hidden"><g transform="translate(-413 -189)"><rect x="466.5" y="383.5" width="2905" height="1752" stroke="#000000" stroke-width="6.875" stroke-miterlimit="8" stroke-dasharray="27.5 20.625" fill="none"/><rect x="1254.5" y="502.5" width="875" height="582" stroke="#000000" stroke-width="6.875" stroke-miterlimit="8" fill="none"/><rect x="1322.5" y="563.5" width="254" height="163" stroke="#000000" stroke-width="6.875" stroke-miterlimit="8" fill="none"/><text font-family="Calibri,Calibri_MSFontService,sans-serif" font-weight="400" font-size="83" transform="matrix(1 0 0 1 1388.99 672)">BLE</text><rect x="1822.5" y="706.5" width="255" height="164" stroke="#000000" stroke-width="6.875" stroke-miterlimit="8" fill="none"/><text font-family="Calibri,Calibri_MSFontService,sans-serif" font-weight="400" font-size="83" transform="matrix(1 0 0 1 1868.82 816)">MAC</text><rect x="586.5" y="711.5" width="361" height="206" stroke="#000000" stroke-width="6.875" stroke-miterlimit="8" fill="none"/><text font-family="Calibri,Calibri_MSFontService,sans-serif" font-weight="400" font-size="64" transform="matrix(1 0 0 1 621.155 835)">ACC + </text><text font-family="Calibri,Calibri_MSFontService,sans-serif" font-weight="400" font-size="64" transform="matrix(1 0 0 1 787.392 835)">Gyro</text><path d="M947.5 786 1175.5 786 1175.5 754.5 1238.5 817.5 1175.5 880.5 1175.5 849.001 947.5 849.001Z" stroke="#000000" stroke-width="6.875" stroke-miterlimit="8" fill="none" fill-rule="evenodd"/><rect x="1624.5" y="1222.5" width="339" height="188" stroke="#000000" stroke-width="6.875" stroke-miterlimit="8" fill="none"/><text font-family="Calibri,Calibri_MSFontService,sans-serif" font-weight="400" font-size="64" transform="matrix(1 0 0 1 1744.69 1299)">LED</text><text font-family="Calibri,Calibri_MSFontService,sans-serif" font-weight="400" font-size="64" transform="matrix(1 0 0 1 1679.37 1376)">NeoPixel</text><rect x="2064.5" y="1223.5" width="321" height="192" stroke="#000000" stroke-width="6.875" stroke-miterlimit="8" fill="none"/><text font-family="Calibri,Calibri_MSFontService,sans-serif" font-weight="400" font-size="64" transform="matrix(1 0 0 1 2138.81 1341)">Buzzer</text><path d="M1814.25 1084.5 1814.25 1174 1835.5 1174 1793 1216.5 1750.5 1174 1771.75 1174 1771.75 1084.5Z" stroke="#000000" stroke-width="6.875" stroke-miterlimit="8" fill="none" fill-rule="evenodd"/><rect x="2545.5" y="677.5" width="344" height="232" stroke="#000000" stroke-width="6.875" stroke-miterlimit="8" fill="none"/><text font-family="Calibri,Calibri_MSFontService,sans-serif" font-weight="400" font-size="83" transform="matrix(1 0 0 1 2649.97 821)">PHY</text><path d="M2084.5 800.5 2158.5 726.5 2158.5 769.404 2471.5 769.404 2471.5 726.5 2545.5 800.5 2471.5 874.5 2471.5 831.595 2158.5 831.595 2158.5 874.5Z" stroke="#000000" stroke-width="6.875" stroke-miterlimit="8" fill="none" fill-rule="evenodd"/><text font-family="Calibri,Calibri_MSFontService,sans-serif" font-weight="400" font-size="64" transform="matrix(1 0 0 1 2272.01 746)">RMII</text><text font-family="Calibri,Calibri_MSFontService,sans-serif" font-weight="400" font-size="64" transform="matrix(1 0 0 1 974.869 736)">SPI</text><text font-family="Calibri,Calibri_MSFontService,sans-serif" font-weight="400" font-size="64" transform="matrix(1 0 0 1 1053.36 736)">/</text><text font-family="Calibri,Calibri_MSFontService,sans-serif" font-weight="400" font-size="64" transform="matrix(1 0 0 1 1077.99 736)">I2C</text><rect x="3146.5" y="725.5" width="277" height="151" stroke="#000000" stroke-width="6.875" stroke-miterlimit="8" stroke-dasharray="6.875 6.875" fill="#FFFFFF"/><text font-family="Calibri,Calibri_MSFontService,sans-serif" font-weight="400" font-size="55" transform="matrix(1 0 0 1 3232.25 818)">RJ45</text><path d="M2889.5 800.5 2932.5 757.5 2932.5 782.431 3103.5 782.431 3103.5 757.5 3146.5 800.5 3103.5 843.5 3103.5 818.569 2932.5 818.569 2932.5 843.5Z" stroke="#000000" stroke-width="6.875" stroke-miterlimit="8" fill="none" fill-rule="evenodd"/><rect x="2244.5" y="977.5" width="344" height="127" stroke="#000000" stroke-width="4.58333" stroke-miterlimit="8" fill="none"/><text font-family="Calibri,Calibri_MSFontService,sans-serif" font-weight="400" font-size="55" transform="matrix(1 0 0 1 2297.76 1059)">TX, RX LED</text><rect x="3041.5" y="1041.5" width="382" height="198" stroke="#767171" stroke-width="6.875" stroke-miterlimit="8" stroke-dasharray="6.875 6.875" fill="#FFFFFF"/><text font-family="Calibri,Calibri_MSFontService,sans-serif" font-weight="400" font-size="55" transform="matrix(1 0 0 1 3096.94 1125)">100BASE</text><text font-family="Calibri,Calibri_MSFontService,sans-serif" font-weight="400" font-size="55" transform="matrix(1 0 0 1 3294.64 1125)">-</text><text font-family="Calibri,Calibri_MSFontService,sans-serif" font-weight="400" font-size="55" transform="matrix(1 0 0 1 3311.25 1125)">T1 </text><text font-family="Calibri,Calibri_MSFontService,sans-serif" font-weight="400" font-size="55" transform="matrix(1 0 0 1 3176.82 1191)">conn</text><rect x="2266.5" y="2018.5" width="751" height="141" stroke="#000000" stroke-width="6.875" stroke-miterlimit="8" stroke-dasharray="6.875 6.875" fill="#FFFFFF"/><text font-family="Calibri,Calibri_MSFontService,sans-serif" font-weight="400" font-size="55" transform="matrix(1 0 0 1 2472.99 2107)">Pogo pins conn</text><rect x="3041.5" y="1356.5" width="382" height="198" stroke="#767171" stroke-width="6.875" stroke-miterlimit="8" stroke-dasharray="6.875 6.875" fill="#FFFFFF"/><text font-family="Calibri,Calibri_MSFontService,sans-serif" font-weight="400" font-size="55" transform="matrix(1 0 0 1 3122.11 1473)">CAN conn</text><text font-family="Calibri,Calibri_MSFontService,sans-serif" font-weight="400" font-size="64" transform="matrix(1 0 0 1 1697.28 1943)">12</text><text font-family="Calibri,Calibri_MSFontService,sans-serif" font-weight="400" font-size="64" transform="matrix(1 0 0 1 1762.59 1943)">-</text><text font-family="Calibri,Calibri_MSFontService,sans-serif" font-weight="400" font-size="64" transform="matrix(1 0 0 1 1782.07 1943)">25V</text><path d="M2639.14 1995.49 2639.14 1137.14 3017.81 1137.14 3017.81 1142.86 2642 1142.86 2644.86 1140 2644.86 1995.49ZM2655.75 1990.91 2642 2018.41 2628.25 1990.91ZM3013.23 1126.25 3040.73 1140 3013.23 1153.75Z" fill="#767171"/><path d="M2790.14 1995.4 2790.14 1452.14 3018.05 1452.14 3018.05 1457.86 2793 1457.86 2795.86 1455 2795.86 1995.4ZM2806.75 1990.82 2793 2018.32 2779.25 1990.82ZM3013.46 1441.25 3040.96 1455 3013.46 1468.75Z" fill="#767171"/><rect x="1449.5" y="1640.5" width="1007" height="212" stroke="#000000" stroke-width="6.875" stroke-miterlimit="8" fill="none"/><text font-family="Calibri,Calibri_MSFontService,sans-serif" font-weight="400" font-size="83" transform="matrix(1 0 0 1 1614.33 1774)">Power management</text><path d="M2.86458-6.04308e-06 2.8649 148.156-2.86427 148.156-2.86458 6.04308e-06ZM13.7503 143.573 0.000360892 171.073-13.7497 143.573Z" transform="matrix(1 0 0 -1 1993 2023.07)"/><text fill="#767171" font-family="Calibri,Calibri_MSFontService,sans-serif" font-weight="700" font-size="64" transform="matrix(1 0 0 1 2381.15 2248)">RADAR MODULE PCB</text><rect x="3686.5" y="829.5" width="654" height="449" stroke="#000000" stroke-width="6.875" stroke-miterlimit="8" fill="none"/><text font-family="Calibri,Calibri_MSFontService,sans-serif" font-weight="400" font-size="83" transform="matrix(1 0 0 1 3950.09 987)">SBC</text><text font-family="Calibri,Calibri_MSFontService,sans-serif" font-weight="400" font-size="83" transform="matrix(1 0 0 1 3727.16 1086)">(Radar </text><text font-family="Calibri,Calibri_MSFontService,sans-serif" font-weight="400" font-size="83" transform="matrix(1 0 0 1 3967.21 1086)">emulator</text><text font-family="Calibri,Calibri_MSFontService,sans-serif" font-weight="400" font-size="83" transform="matrix(1 0 0 1 4274.45 1086)">)</text><text fill="#767171" font-family="Calibri,Calibri_MSFontService,sans-serif" font-weight="400" font-size="73" transform="matrix(1 0 0 1 3755.55 1177)">(Data processing)</text><path d="M3445.92 797.135 3557.79 797.135 3557.79 1053.28 3554.93 1050.42 3663.94 1050.42 3663.94 1056.15 3552.06 1056.15 3552.06 800 3554.93 802.864 3445.92 802.864ZM3450.5 813.75 3423 800 3450.5 786.25ZM3659.35 1039.53 3686.85 1053.28 3659.35 1067.03Z"/><path d="M3445.92 1137.14 3663.94 1137.14 3663.94 1142.86 3445.92 1142.86ZM3450.5 1153.75 3423 1140 3450.5 1126.25ZM3659.35 1126.25 3686.85 1140 3659.35 1153.75Z" fill="#767171"/><path d="M4.8678 22.8579 5.32352 59.5217-3.84244 59.6357-4.29816 22.9718ZM5.6653 87.0196 6.12102 123.683-3.04494 123.797-3.50066 87.1335ZM6.46281 151.181 6.91852 187.845-2.24744 187.959-2.70315 151.295ZM-13.4072 27.6688 0 0 14.0907 27.327ZM16.2524 201.243 2.84528 228.912-11.2454 201.585Z" fill="#767171" transform="matrix(1 0 0 -1 1449.5 563.412)"/><rect x="765.5" y="192.5" width="760" height="127" stroke="#767171" stroke-width="6.875" stroke-miterlimit="8" fill="none"/><text font-family="Calibri,Calibri_MSFontService,sans-serif" font-weight="400" font-size="64" transform="matrix(1 0 0 1 975.838 277)">Smart device</text><path d="M2719.49 909 2719.49 1043.37 2610.92 1043.37 2610.92 1037.64 2716.63 1037.64 2713.76 1040.5 2713.76 909ZM2615.5 1054.25 2588 1040.5 2615.5 1026.75Z"/><rect x="752.5" y="1397.5" width="361" height="198" stroke="#000000" stroke-width="6.875" stroke-miterlimit="8" fill="none"/><text font-family="Calibri,Calibri_MSFontService,sans-serif" font-weight="400" font-size="64" transform="matrix(1 0 0 1 797.433 1518)">UART/USB</text><path d="M935.045 1617.92 935.045 1794.58 678.916 1794.58 678.916 1788.85 932.181 1788.85 929.316 1791.72 929.316 1617.92ZM918.431 1622.5 932.181 1595 945.931 1622.5ZM683.5 1805.47 656 1791.72 683.5 1777.97Z"/><text font-family="Calibri,Calibri_MSFontService,sans-serif" font-weight="400" font-size="64" transform="matrix(1 0 0 1 1103.38 1318)">UART</text><text font-family="Calibri,Calibri_MSFontService,sans-serif" font-weight="400" font-size="64" transform="matrix(1 0 0 1 758.727 1767)">USB</text><text font-family="Calibri,Calibri_MSFontService,sans-serif" font-weight="400" font-size="50" transform="matrix(1 0 0 1 1065.62 1872)">UART + GPIO</text><rect x="416.5" y="1736.5" width="240" height="111" stroke="#000000" stroke-width="6.875" stroke-miterlimit="8" stroke-dasharray="6.875 6.875" fill="#FFFFFF"/><text font-family="Calibri,Calibri_MSFontService,sans-serif" font-weight="400" font-size="55" transform="matrix(1 0 0 1 470.063 1810)">USB C</text><rect x="584.5" y="945.5" width="362" height="206" stroke="#000000" stroke-width="6.875" stroke-miterlimit="8" fill="none"/><text font-family="Calibri,Calibri_MSFontService,sans-serif" font-weight="400" font-size="83" transform="matrix(1 0 0 1 690.629 1075)">Mag</text><path d="M946.5 1013 1174.5 1013 1174.5 981.5 1237.5 1044.5 1174.5 1107.5 1174.5 1076 946.5 1076Z" stroke="#000000" stroke-width="6.875" stroke-miterlimit="8" fill="none" fill-rule="evenodd"/><text font-family="Calibri,Calibri_MSFontService,sans-serif" font-weight="400" font-size="64" transform="matrix(1 0 0 1 974.869 958)">SPI</text><text font-family="Calibri,Calibri_MSFontService,sans-serif" font-weight="400" font-size="64" transform="matrix(1 0 0 1 1053.36 958)">/</text><text font-family="Calibri,Calibri_MSFontService,sans-serif" font-weight="400" font-size="64" transform="matrix(1 0 0 1 1077.99 958)">I2C</text><path d="M1277.64 1084 1277.64 1499.2 1135.92 1499.2 1135.92 1493.47 1274.78 1493.47 1271.91 1496.34 1271.91 1084ZM1140.5 1510.09 1113 1496.34 1140.5 1482.59Z"/><path d="M1248.5 624 1021.5 624 1021.5 655.5 958.5 592.5 1021.5 529.5 1021.5 561 1248.5 561Z" stroke="#767171" stroke-width="6.875" stroke-miterlimit="8" fill="none" fill-rule="evenodd"/><rect x="584.5" y="476.5" width="362" height="206" stroke="#767171" stroke-width="6.875" stroke-miterlimit="8" fill="none"/><text font-family="Calibri,Calibri_MSFontService,sans-serif" font-weight="400" font-size="73" transform="matrix(1 0 0 1 683.766 604)">ANT+</text><path d="M5.32369 22.7561 6.5121 59.4035-2.64975 59.7006-3.83816 23.0532ZM7.40342 86.8891 8.59183 123.536-0.570019 123.834-1.75843 87.1862ZM-12.8515 27.9312 0 0 14.6341 27.0399ZM17.9271 128.586 5.07559 156.517-9.5585 129.477Z" fill="#767171" transform="matrix(1 0 0 -1 848.5 474.017)"/><path d="M1366.86 1084 1366.86 1983.5 1361.14 1983.5 1361.14 1084ZM1377.75 1978.91 1364 2006.41 1350.25 1978.91Z" fill="#767171"/><text font-family="Calibri,Calibri_MSFontService,sans-serif" font-weight="400" font-size="50" transform="matrix(1 0 0 1 1536.44 1540)">Battery</text><text font-family="Calibri,Calibri_MSFontService,sans-serif" font-weight="400" font-size="50" transform="matrix(1 0 0 1 1698.58 1540)">status</text><path d="M2092.86 1084 2092.86 1192.19 2087.14 1192.19 2087.14 1084ZM2103.75 1187.61 2090 1215.11 2076.25 1187.61Z"/><rect x="1986.5" y="1452.5" width="458" height="125" stroke="#000000" stroke-width="6.875" stroke-miterlimit="8" fill="none"/><text font-family="Calibri,Calibri_MSFontService,sans-serif" font-weight="400" font-size="64" transform="matrix(1 0 0 1 2039.39 1536)">Photoresistor</text><path d="M2.86458-2.72233e-06 2.86492 356.834-2.86424 356.834-2.86458 2.72233e-06ZM13.7503 352.251 0.000360892 379.751-13.7497 352.251Z" transform="matrix(1 0 0 -1 2027 1454.75)"/><rect x="1204.5" y="2018.5" width="333" height="141" stroke="#767171" stroke-width="6.875" stroke-miterlimit="8" stroke-dasharray="6.875 6.875" fill="#FFFFFF"/><text font-family="Calibri,Calibri_MSFontService,sans-serif" font-weight="400" font-size="55" transform="matrix(1 0 0 1 1269.46 2107)">FFC</text><text font-family="Calibri,Calibri_MSFontService,sans-serif" font-weight="400" font-size="55" transform="matrix(1 0 0 1 1361.22 2107)">con</text><text font-family="Calibri,Calibri_MSFontService,sans-serif" font-weight="400" font-size="55" transform="matrix(1 0 0 1 1442.11 2107)">n</text><rect x="1837.5" y="2016.5" width="332" height="142" stroke="#000000" stroke-width="6.875" stroke-miterlimit="8" stroke-dasharray="6.875 6.875" fill="#FFFFFF"/><text font-family="Calibri,Calibri_MSFontService,sans-serif" font-weight="400" font-size="55" transform="matrix(1 0 0 1 1870.94 2105)">Power conn</text><path d="M2372.86 1861 2372.87 1993.42 2367.14 1993.42 2367.14 1861ZM2383.75 1988.84 2370 2016.34 2356.25 1988.84Z"/><path d="M1498.91 1106.91 1500.03 1616.97 1494.3 1616.98 1493.19 1106.92ZM1482.31 1111.53 1496 1084 1509.81 1111.47ZM1510.91 1612.36 1497.22 1639.89 1483.41 1612.42Z"/><text font-family="Calibri,Calibri_MSFontService,sans-serif" font-weight="400" font-size="83" transform="matrix(1 0 0 1 1665.15 619)">ESP32</text><rect x="1485.5" y="816.5" width="255" height="164" stroke="#000000" stroke-width="6.875" stroke-miterlimit="8" fill="none"/><text font-family="Calibri,Calibri_MSFontService,sans-serif" font-weight="400" font-size="83" transform="matrix(1 0 0 1 1538 926)">WiFi</text></g></svg>