999
DXF file: usrr5_board_v2.dxf
999
Pro/ENGINEER 2019224 by Parametric Technology Corporation
  0
SECTION
  2
HEADER
  9
$ACADVER
  1
AC1014
  9
$DWGCODEPAGE
  3
ANSI_1250
  9
$EXTMAX
 10
46.811023622
 20
33.1102362205
 30
0.0
  9
$EXTMIN
 10
0.0
 20
0.0
 30
0.0
  9
$LIMMIN
 10
0.0
 20
0.0
  9
$LIMMAX
 10
46.811023622
 20
33.1102362205
  9
$VIEWCTR
 10
23.405511811
 20
16.5551181102
  9
$VIEWSIZE
 40
33.1102362205
  9
$CLAYER
  8
0
  9
$LTSCALE
 40
2.5746062992
  9
$CELTYPE
  6
BYLAYER
  9
$DIMSCALE
 40
1.0
  9
$DIMASZ
 40
0.1875
  9
$DIMEXO
 40
0.0625
  9
$DIMDLI
 40
1.7788188976
  9
$DIMEXE
 40
0.125
  9
$DIMCEN
 40
0.4212992126
  9
$DIMLFAC
 40
1.0
  9
$DIMBLK
  1
_ARROW_FILLED
  9
$DIMALT
 70
0
  9
$DIMALTF
 40
25.4
  9
$DIMTXT
 40
0.15625
  9
$DIMTOL
 70
0
  9
$DIMLIM
 70
0
  9
$DIMTFAC
 40
1.0
  9
$DIMGAP
 40
0.09
  9
$AUNITS
 70
0
  9
$PDMODE
 70
3
  9
$PDSIZE
 40
0.3125
  9
$HANDSEED
  5
401
  9
$TILEMODE
 70
1
  9
$MEASUREMENT
 70
0
  0
ENDSEC
  0
SECTION
  2
CLASSES
  0
ENDSEC
  0
SECTION
  2
TABLES
  0
TABLE
  2
VPORT
  5
8
100
AcDbSymbolTable
 70
2
  0
VPORT
  5
1F4
100
AcDbSymbolTableRecord
100
AcDbViewportTableRecord
  2
*ACTIVE
 70
0
 10
0.0
 20
0.0
 11
1.0
 21
1.0
 12
23.405511811
 22
16.5551181102
 13
0.0
 23
0.0
 14
1.0
 24
1.0
 15
0.0
 25
0.0
 16
0.0
 26
0.0
 36
1.0
 17
0.0
 27
0.0
 37
0.0
 40
33.1102362205
 41
1.4137931034
 42
50.0
 43
0.0
 44
0.0
 50
0.0
 51
0.0
 71
0
 72
100
 73
1
 74
1
 75
0
 76
0
 77
0
 78
0
  0
ENDTAB
  0
TABLE
  2
LTYPE
  5
5
100
AcDbSymbolTable
 70
6
  0
LTYPE
  5
14
100
AcDbSymbolTableRecord
100
AcDbLinetypeTableRecord
  2
BYBLOCK
 70
0
  3

 72
65
 73
0
 40
0.0
  0
LTYPE
  5
15
100
AcDbSymbolTableRecord
100
AcDbLinetypeTableRecord
  2
BYLAYER
 70
0
  3

 72
65
 73
0
 40
0.0
  0
LTYPE
  5
16
100
AcDbSymbolTableRecord
100
AcDbLinetypeTableRecord
  2
CONTINUOUS
 70
64
  3
Solid line
 72
65
 73
0
 40
0.0
  0
LTYPE
  5
1F5
100
AcDbSymbolTableRecord
100
AcDbLinetypeTableRecord
  2
CENTER
 70
64
  3
____ _ ____ _ ____ _ ____ _ ____ _ ____ _ ____
 72
65
 73
4
 40
0.6
 49
0.375
 74
0
 49
-0.075
 74
0
 49
0.075
 74
0
 49
-0.075
 74
0
  0
LTYPE
  5
1F6
100
AcDbSymbolTableRecord
100
AcDbLinetypeTableRecord
  2
HIDDEN
 70
64
  3
- - - - - - - - - - - - - - - - - - - -
 72
65
 73
2
 40
0.2
 49
0.1
 74
0
 49
-0.1
 74
0
  0
LTYPE
  5
1F7
100
AcDbSymbolTableRecord
100
AcDbLinetypeTableRecord
  2
PHANTOM
 70
64
  3
_____ _ _ _____ _ _ _____ _ _ _____
 72
65
 73
6
 40
0.8
 49
0.45
 74
0
 49
-0.05
 74
0
 49
0.1
 74
0
 49
-0.05
 74
0
 49
0.1
 74
0
 49
-0.05
 74
0
  0
LTYPE
  5
1F8
100
AcDbSymbolTableRecord
100
AcDbLinetypeTableRecord
  2
DOT
 70
64
  3
. . . . . . . . . . . . . . . . . . . .
 72
65
 73
2
 40
0.2
 49
0.1
 74
0
 49
-0.1
 74
0
  0
LTYPE
  5
1F9
100
AcDbSymbolTableRecord
100
AcDbLinetypeTableRecord
  2
DASHED
 70
64
  3
- - - - - - - - - - - - - - - - - - - -
 72
65
 73
2
 40
0.2
 49
0.1
 74
0
 49
-0.1
 74
0
  0
ENDTAB
  0
TABLE
  2
LAYER
  5
2
100
AcDbSymbolTable
 70
36
  0
LAYER
  5
10
100
AcDbSymbolTableRecord
100
AcDbLayerTableRecord
  2
0
 70
0
 62
7
  6
CONTINUOUS
  0
LAYER
  5
1FA
100
AcDbSymbolTableRecord
100
AcDbLayerTableRecord
  2
DEFAULT_1
 70
0
 62
7
  6
CENTER
  0
LAYER
  5
1FB
100
AcDbSymbolTableRecord
100
AcDbLayerTableRecord
  2
DEFAULT_2
 70
0
 62
8
  6
HIDDEN
  0
LAYER
  5
1FC
100
AcDbSymbolTableRecord
100
AcDbLayerTableRecord
  2
DEFAULT_3
 70
0
 62
7
  6
PHANTOM
  0
ENDTAB
  0
TABLE
  2
STYLE
  5
3
100
AcDbSymbolTable
 70
1
  0
STYLE
  5
11
100
AcDbSymbolTableRecord
100
AcDbTextStyleTableRecord
  2
STANDARD
 70
0
 40
0.0
 41
0.8
 50
0.0
 71
0
 42
0.2
  3
txt
  4

  0
STYLE
  5
1FD
100
AcDbSymbolTableRecord
100
AcDbTextStyleTableRecord
  2
TEXTSTYLE_1
 70
0
 40
0.0
 41
0.8
 50
0.0
 71
0
 42
0.2
  3
gdt
  4

  0
ENDTAB
  0
TABLE
  2
VIEW
  5
6
100
AcDbSymbolTable
 70
0
  0
ENDTAB
  0
TABLE
  2
UCS
  5
7
100
AcDbSymbolTable
 70
0
  0
ENDTAB
  0
TABLE
  2
APPID
  5
9
100
AcDbSymbolTable
 70
1
  0
APPID
  5
1FE
100
AcDbSymbolTableRecord
100
AcDbRegAppTableRecord
  2
ACAD
 70
0
  0
ENDTAB
  0
TABLE
  2
BLOCK_RECORD
  5
1
100
AcDbSymbolTable
 70
0
  0
BLOCK_RECORD
  5
1F
100
AcDbSymbolTableRecord
100
AcDbBlockTableRecord
  2
*MODEL_SPACE
  0
BLOCK_RECORD
  5
1B
100
AcDbSymbolTableRecord
100
AcDbBlockTableRecord
  2
*PAPER_SPACE
  0
BLOCK_RECORD
  5
1FF
100
AcDbSymbolTableRecord
100
AcDbBlockTableRecord
  2
_ARROW_FILLED
  0
ENDTAB
  0
TABLE
  2
DIMSTYLE
  5
A
100
AcDbSymbolTable
 70
1
  0
DIMSTYLE
105
200
100
AcDbSymbolTableRecord
100
AcDbDimStyleTableRecord
  2
STANDARD
 70
0
  3

  4

  5
_ARROW_FILLED
  6
_ARROW_FILLED
  7
_ARROW_FILLED
 40
1.0
 41
0.1875
 42
0.0625
 43
0.38
 44
0.125
 45
0.0
 46
0.0
 47
0.01
 48
0.01
140
0.15625
141
0.09
142
0.0
143
25.4
144
1.0
145
0.0
146
1.0
147
0.09
 71
0.0
 72
0.0
 73
1
 74
1
 75
0
 76
0
 77
0
 78
4
 79
1
170
0
171
1
172
0
173
0
174
0
175
0
176
0
177
0
178
0
270
2
271
2
272
2
273
2
274
2
275
0
280
0
281
0
282
0
283
1
284
4
285
0
286
0
287
3
288
0
340
11
  0
ENDTAB
  0
ENDSEC
  0
SECTION
  2
BLOCKS
  0
BLOCK
  5
20
100
AcDbEntity
  8
0
100
AcDbBlockBegin
  2
*MODEL_SPACE
 70
0
 10
0.0
 20
0.0
 30
0.0
  3
*MODEL_SPACE
  1

  0
ENDBLK
  5
21
100
AcDbEntity
  8
0
100
AcDbBlockEnd
  0
BLOCK
  5
1C
100
AcDbEntity
  8
0
100
AcDbBlockBegin
  2
*PAPER_SPACE
 70
0
 10
0.0
 20
0.0
 30
0.0
  3
*PAPER_SPACE
  1

  0
ENDBLK
  5
1D
100
AcDbEntity
  8
0
100
AcDbBlockEnd
  0
BLOCK
  5
201
100
AcDbEntity
  8
0
100
AcDbBlockBegin
  2
_ARROW_FILLED
 70
64
 10
0.0
 20
0.0
  3
_ARROW_FILLED
  1

  0
SOLID
  5
202
100
AcDbEntity
  8
0
  6
BYBLOCK
 62
0
100
AcDbTrace
 10
0.0
 20
0.0
 11
-1.0
 21
0.1666666667
 12
-1.0
 22
-0.1666666667
 13
-1.0
 23
-0.1666666667
  0
ENDBLK
  5
203
100
AcDbEntity
  8
0
  6
BYBLOCK
 62
0
100
AcDbBlockEnd
  0
ENDSEC
  0
SECTION
  2
ENTITIES
  0
LINE
  5
204
100
AcDbEntity
  8
0
100
AcDbLine
 62
7
  6
CONTINUOUS
 10
0.0
 20
0.0
 11
0.0
 21
33.1102362205
  0
LINE
  5
205
100
AcDbEntity
  8
0
100
AcDbLine
 62
7
  6
CONTINUOUS
 10
0.0
 20
0.0
 11
46.811023622
 21
0.0
  0
LINE
  5
206
100
AcDbEntity
  8
0
100
AcDbLine
 62
7
  6
CONTINUOUS
 10
0.0
 20
33.1102362205
 11
46.811023622
 21
33.1102362205
  0
LINE
  5
207
100
AcDbEntity
  8
0
100
AcDbLine
 62
7
  6
CONTINUOUS
 10
46.811023622
 20
0.0
 11
46.811023622
 21
33.1102362205
  0
LINE
  5
208
100
AcDbEntity
  8
0
100
AcDbLine
 62
7
  6
CONTINUOUS
 10
22.759203294
 20
20.0272740887
 11
22.7531677318
 21
20.0192613423
  0
LINE
  5
209
100
AcDbEntity
  8
0
100
AcDbLine
 62
7
  6
CONTINUOUS
 10
22.7662100735
 20
20.0353216325
 11
22.759203294
 21
20.0272740887
  0
LINE
  5
20A
100
AcDbEntity
  8
0
100
AcDbLine
 62
7
  6
CONTINUOUS
 10
22.7742228199
 20
20.0423283164
 11
22.7662100735
 21
20.0353216325
  0
LINE
  5
20B
100
AcDbEntity
  8
0
100
AcDbLine
 62
7
  6
CONTINUOUS
 10
22.7822355664
 20
20.0483293203
 11
22.7742228199
 21
20.0423283164
  0
LINE
  5
20C
100
AcDbEntity
  8
0
100
AcDbLine
 62
7
  6
CONTINUOUS
 10
22.791254184
 20
20.0523529966
 11
22.7822355664
 21
20.0483293203
  0
LINE
  5
20D
100
AcDbEntity
  8
0
100
AcDbLine
 62
7
  6
CONTINUOUS
 10
22.7822355664
 20
17.9022012582
 11
22.791254184
 21
17.8981775341
  0
LINE
  5
20E
100
AcDbEntity
  8
0
100
AcDbLine
 62
7
  6
CONTINUOUS
 10
22.7742228199
 20
17.9082021187
 11
22.7822355664
 21
17.9022012582
  0
LINE
  5
20F
100
AcDbEntity
  8
0
100
AcDbLine
 62
7
  6
CONTINUOUS
 10
22.7662100735
 20
17.915208946
 11
22.7742228199
 21
17.9082021187
  0
LINE
  5
210
100
AcDbEntity
  8
0
100
AcDbLine
 62
7
  6
CONTINUOUS
 10
22.759203294
 20
17.9232563463
 11
22.7662100735
 21
17.915208946
  0
LINE
  5
211
100
AcDbEntity
  8
0
100
AcDbLine
 62
7
  6
CONTINUOUS
 10
22.7531677318
 20
17.9312690927
 11
22.759203294
 21
17.9232563463
  0
LINE
  5
212
100
AcDbEntity
  8
0
100
AcDbLine
 62
7
  6
CONTINUOUS
 10
22.6188591103
 20
19.6944857578
 11
22.6158413531
 21
19.6844610777
  0
LINE
  5
213
100
AcDbEntity
  8
0
100
AcDbLine
 62
7
  6
CONTINUOUS
 10
22.7531677318
 20
20.0192613423
 11
22.7491787094
 21
20.0102427246
  0
LINE
  5
214
100
AcDbEntity
  8
0
100
AcDbLine
 62
7
  6
CONTINUOUS
 10
22.6228481326
 20
19.7035043755
 11
22.6188591103
 21
19.6944857578
  0
LINE
  5
215
100
AcDbEntity
  8
0
100
AcDbLine
 62
7
  6
CONTINUOUS
 10
22.7411313091
 20
19.7566450076
 11
22.7391541249
 21
19.7536273938
  0
LINE
  5
216
100
AcDbEntity
  8
0
100
AcDbLine
 62
7
  6
CONTINUOUS
 10
22.6288836948
 20
19.7115171219
 11
22.6228481326
 21
19.7035043755
  0
LINE
  5
217
100
AcDbEntity
  8
0
100
AcDbLine
 62
7
  6
CONTINUOUS
 10
22.6358905222
 20
19.7195644744
 11
22.6288836948
 21
19.7115171219
  0
LINE
  5
218
100
AcDbEntity
  8
0
100
AcDbLine
 62
7
  6
CONTINUOUS
 10
22.7321126436
 20
19.74762639
 11
22.7301354594
 21
19.7456146474
  0
LINE
  5
219
100
AcDbEntity
  8
0
100
AcDbLine
 62
7
  6
CONTINUOUS
 10
23.0248373858
 20
20.0423283164
 11
23.0228255477
 21
20.0403165739
  0
LINE
  5
21A
100
AcDbEntity
  8
0
100
AcDbLine
 62
7
  6
CONTINUOUS
 10
22.6439032208
 20
19.7265713496
 11
22.6358905222
 21
19.7195644744
  0
LINE
  5
21B
100
AcDbEntity
  8
0
100
AcDbLine
 62
7
  6
CONTINUOUS
 10
22.6519159672
 20
19.7325721623
 11
22.6439032208
 21
19.7265713496
  0
LINE
  5
21C
100
AcDbEntity
  8
0
100
AcDbLine
 62
7
  6
CONTINUOUS
 10
23.0308382941
 20
20.0463519927
 11
23.028826456
 21
20.0453461214
  0
LINE
  5
21D
100
AcDbEntity
  8
0
100
AcDbLine
 62
7
  6
CONTINUOUS
 10
23.0278204891
 20
20.0433343789
 11
23.0248373858
 21
20.0423283164
  0
LINE
  5
21E
100
AcDbEntity
  8
0
100
AcDbLine
 62
7
  6
CONTINUOUS
 10
23.0208137096
 20
20.0403165739
 11
23.0177959046
 21
20.0393105114
  0
LINE
  5
21F
100
AcDbEntity
  8
0
100
AcDbLine
 62
7
  6
CONTINUOUS
 10
22.8012788164
 20
20.0553708016
 11
22.791254184
 21
20.0523529966
  0
LINE
  5
220
100
AcDbEntity
  8
0
100
AcDbLine
 62
7
  6
CONTINUOUS
 10
24.5805556282
 20
17.8931825927
 11
24.5905801172
 21
17.8951597769
  0
LINE
  5
221
100
AcDbEntity
  8
0
100
AcDbLine
 62
7
  6
CONTINUOUS
 10
22.8012788164
 20
17.8951597769
 11
22.8113033531
 21
17.8931825927
  0
LINE
  5
222
100
AcDbEntity
  8
0
100
AcDbLine
 62
7
  6
CONTINUOUS
 10
22.791254184
 20
17.8981775341
 11
22.8012788164
 21
17.8951597769
  0
LINE
  5
223
100
AcDbEntity
  8
0
100
AcDbLine
 62
7
  6
CONTINUOUS
 10
23.0177959046
 20
17.9112199236
 11
23.0208137096
 21
17.9102140046
  0
LINE
  5
224
100
AcDbEntity
  8
0
100
AcDbLine
 62
7
  6
CONTINUOUS
 10
23.028826456
 20
17.9051843615
 11
23.0308382941
 21
17.9041784424
  0
LINE
  5
225
100
AcDbEntity
  8
0
100
AcDbLine
 62
7
  6
CONTINUOUS
 10
23.0258433527
 20
17.9082021187
 11
23.0278204891
 21
17.9071961996
  0
LINE
  5
226
100
AcDbEntity
  8
0
100
AcDbLine
 62
7
  6
CONTINUOUS
 10
23.0228255477
 20
17.9102140046
 11
23.0258433527
 21
17.9082021187
  0
LINE
  5
227
100
AcDbEntity
  8
0
100
AcDbLine
 62
7
  6
CONTINUOUS
 10
22.6439032208
 20
18.2239591333
 11
22.6519159672
 21
18.2179582728
  0
LINE
  5
228
100
AcDbEntity
  8
0
100
AcDbLine
 62
7
  6
CONTINUOUS
 10
22.6358905222
 20
18.2309659606
 11
22.6439032208
 21
18.2239591333
  0
LINE
  5
229
100
AcDbEntity
  8
0
100
AcDbLine
 62
7
  6
CONTINUOUS
 10
23.0318441654
 20
17.9011953391
 11
23.0338560991
 21
17.8991834532
  0
LINE
  5
22A
100
AcDbEntity
  8
0
100
AcDbLine
 62
7
  6
CONTINUOUS
 10
22.7391541249
 20
18.1958972655
 11
22.7411313091
 21
18.1938854274
  0
LINE
  5
22B
100
AcDbEntity
  8
0
100
AcDbLine
 62
7
  6
CONTINUOUS
 10
22.6288836948
 20
18.2390133609
 11
22.6358905222
 21
18.2309659606
  0
LINE
  5
22C
100
AcDbEntity
  8
0
100
AcDbLine
 62
7
  6
CONTINUOUS
 10
22.6228481326
 20
18.2470261074
 11
22.6288836948
 21
18.2390133609
  0
LINE
  5
22D
100
AcDbEntity
  8
0
100
AcDbLine
 62
7
  6
CONTINUOUS
 10
22.7491787094
 20
17.9402877582
 11
22.7531677318
 21
17.9312690927
  0
LINE
  5
22E
100
AcDbEntity
  8
0
100
AcDbLine
 62
7
  6
CONTINUOUS
 10
22.6188591103
 20
18.256044725
 11
22.6228481326
 21
18.2470261074
  0
LINE
  5
22F
100
AcDbEntity
  8
0
100
AcDbLine
 62
7
  6
CONTINUOUS
 10
22.6158413531
 20
18.2660693096
 11
22.6188591103
 21
18.256044725
  0
LINE
  5
230
100
AcDbEntity
  8
0
100
AcDbLine
 62
7
  6
CONTINUOUS
 10
22.6128235481
 20
18.2861184787
 11
22.613829515
 21
18.2760938941
  0
LINE
  5
231
100
AcDbEntity
  8
0
100
AcDbLine
 62
7
  6
CONTINUOUS
 10
22.613829515
 20
19.6744365887
 11
22.6128235481
 21
19.6644119086
  0
LINE
  5
232
100
AcDbEntity
  8
0
100
AcDbLine
 62
7
  6
CONTINUOUS
 10
22.6158413531
 20
19.6844610777
 11
22.613829515
 21
19.6744365887
  0
LINE
  5
233
100
AcDbEntity
  8
0
100
AcDbLine
 62
7
  6
CONTINUOUS
 10
22.7461609044
 20
20.0002182357
 11
22.7421372282
 21
19.9801690666
  0
LINE
  5
234
100
AcDbEntity
  8
0
100
AcDbLine
 62
7
  6
CONTINUOUS
 10
22.7491787094
 20
20.0102427246
 11
22.7461609044
 21
20.0002182357
  0
LINE
  5
235
100
AcDbEntity
  8
0
100
AcDbLine
 62
7
  6
CONTINUOUS
 10
22.7421372282
 20
19.7616399491
 11
22.7411313091
 21
19.7586569414
  0
LINE
  5
236
100
AcDbEntity
  8
0
100
AcDbLine
 62
7
  6
CONTINUOUS
 10
22.7391541249
 20
19.7536273938
 11
22.7381482058
 21
19.7516154601
  0
LINE
  5
237
100
AcDbEntity
  8
0
100
AcDbLine
 62
7
  6
CONTINUOUS
 10
22.7361363677
 20
19.7506095889
 11
22.7351304008
 21
19.7486322612
  0
LINE
  5
238
100
AcDbEntity
  8
0
100
AcDbLine
 62
7
  6
CONTINUOUS
 10
23.0338560991
 20
20.0513469341
 11
23.0318441654
 21
20.0483293203
  0
LINE
  5
239
100
AcDbEntity
  8
0
100
AcDbLine
 62
7
  6
CONTINUOUS
 10
23.2874537205
 20
20.0463519927
 11
23.2854418824
 21
20.0453461214
  0
LINE
  5
23A
100
AcDbEntity
  8
0
100
AcDbLine
 62
7
  6
CONTINUOUS
 10
22.7381482058
 20
19.7516154601
 11
22.7361363677
 21
19.7506095889
  0
LINE
  5
23B
100
AcDbEntity
  8
0
100
AcDbLine
 62
7
  6
CONTINUOUS
 10
22.7251058163
 20
19.744608585
 11
22.7230939781
 21
19.7436027137
  0
LINE
  5
23C
100
AcDbEntity
  8
0
100
AcDbLine
 62
7
  6
CONTINUOUS
 10
22.6609693344
 20
19.7365958385
 11
22.6519159672
 21
19.7325721623
  0
LINE
  5
23D
100
AcDbEntity
  8
0
100
AcDbLine
 62
7
  6
CONTINUOUS
 10
23.2844359155
 20
20.0433343789
 11
23.2814528122
 21
20.0423283164
  0
LINE
  5
23E
100
AcDbEntity
  8
0
100
AcDbLine
 62
7
  6
CONTINUOUS
 10
23.277429136
 20
20.0403165739
 11
23.274411331
 21
20.0393105114
  0
LINE
  5
23F
100
AcDbEntity
  8
0
100
AcDbLine
 62
7
  6
CONTINUOUS
 10
24.5705309481
 20
17.8921766736
 11
24.5805556282
 21
17.8931825927
  0
LINE
  5
240
100
AcDbEntity
  8
0
100
AcDbLine
 62
7
  6
CONTINUOUS
 10
22.8113033531
 20
17.8931825927
 11
22.8213279377
 21
17.8921766736
  0
LINE
  5
241
100
AcDbEntity
  8
0
100
AcDbLine
 62
7
  6
CONTINUOUS
 10
23.274411331
 20
17.9112199236
 11
23.277429136
 21
17.9102140046
  0
LINE
  5
242
100
AcDbEntity
  8
0
100
AcDbLine
 62
7
  6
CONTINUOUS
 10
22.6519159672
 20
18.2179582728
 11
22.6609693344
 21
18.2139345965
  0
LINE
  5
243
100
AcDbEntity
  8
0
100
AcDbLine
 62
7
  6
CONTINUOUS
 10
22.7361363677
 20
18.1998862879
 11
22.7381482058
 21
18.1989150227
  0
LINE
  5
244
100
AcDbEntity
  8
0
100
AcDbLine
 62
7
  6
CONTINUOUS
 10
23.2854418824
 20
17.9051843615
 11
23.2874537205
 21
17.9041784424
  0
LINE
  5
245
100
AcDbEntity
  8
0
100
AcDbLine
 62
7
  6
CONTINUOUS
 10
22.7230939781
 20
18.2069277692
 11
22.7251058163
 21
18.2059218501
  0
LINE
  5
246
100
AcDbEntity
  8
0
100
AcDbLine
 62
7
  6
CONTINUOUS
 10
22.7331185627
 20
18.2029040451
 11
22.7351304008
 21
18.201898126
  0
LINE
  5
247
100
AcDbEntity
  8
0
100
AcDbLine
 62
7
  6
CONTINUOUS
 10
23.2824587791
 20
17.9082021187
 11
23.2844359155
 21
17.9071961996
  0
LINE
  5
248
100
AcDbEntity
  8
0
100
AcDbLine
 62
7
  6
CONTINUOUS
 10
23.2794409741
 20
17.9102140046
 11
23.2824587791
 21
17.9082021187
  0
LINE
  5
249
100
AcDbEntity
  8
0
100
AcDbLine
 62
7
  6
CONTINUOUS
 10
22.7301354594
 20
18.204915931
 11
22.7331185627
 21
18.2029040451
  0
LINE
  5
24A
100
AcDbEntity
  8
0
100
AcDbLine
 62
7
  6
CONTINUOUS
 10
22.7351304008
 20
18.201898126
 11
22.7361363677
 21
18.1998862879
  0
LINE
  5
24B
100
AcDbEntity
  8
0
100
AcDbLine
 62
7
  6
CONTINUOUS
 10
22.7411313091
 20
18.1918735415
 11
22.7421372282
 21
18.1888904382
  0
LINE
  5
24C
100
AcDbEntity
  8
0
100
AcDbLine
 62
7
  6
CONTINUOUS
 10
22.7381482058
 20
18.1989150227
 11
22.7391541249
 21
18.1958972655
  0
LINE
  5
24D
100
AcDbEntity
  8
0
100
AcDbLine
 62
7
  6
CONTINUOUS
 10
22.7461609044
 20
17.950312295
 11
22.7491787094
 21
17.9402877582
  0
LINE
  5
24E
100
AcDbEntity
  8
0
100
AcDbLine
 62
7
  6
CONTINUOUS
 10
22.613829515
 20
18.2760938941
 11
22.6158413531
 21
18.2660693096
  0
LINE
  5
24F
100
AcDbEntity
  8
0
100
AcDbLine
 62
7
  6
CONTINUOUS
 10
22.7421372282
 20
17.9703614641
 11
22.7461609044
 21
17.950312295
  0
LINE
  5
250
100
AcDbEntity
  8
0
100
AcDbLine
 62
7
  6
CONTINUOUS
 10
22.6128235481
 20
19.6644119086
 11
22.6128235481
 21
18.2861184787
  0
LINE
  5
251
100
AcDbEntity
  8
0
100
AcDbLine
 62
7
  6
CONTINUOUS
 10
22.6739771962
 20
18.4665265607
 11
22.6739771962
 21
18.4986121693
  0
LINE
  5
252
100
AcDbEntity
  8
0
100
AcDbLine
 62
7
  6
CONTINUOUS
 10
23.028826456
 20
20.0453461214
 11
23.0278204891
 21
20.0433343789
  0
LINE
  5
253
100
AcDbEntity
  8
0
100
AcDbLine
 62
7
  6
CONTINUOUS
 10
23.0318441654
 20
20.0483293203
 11
23.0308382941
 21
20.0463519927
  0
LINE
  5
254
100
AcDbEntity
  8
0
100
AcDbLine
 62
7
  6
CONTINUOUS
 10
23.0358679372
 20
20.0583538092
 11
23.0348619704
 21
20.0563766728
  0
LINE
  5
255
100
AcDbEntity
  8
0
100
AcDbLine
 62
7
  6
CONTINUOUS
 10
23.2814528122
 20
20.0423283164
 11
23.2794409741
 21
20.0403165739
  0
LINE
  5
256
100
AcDbEntity
  8
0
100
AcDbLine
 62
7
  6
CONTINUOUS
 10
23.6022048161
 20
20.0403165739
 11
23.5992217128
 21
20.0393105114
  0
LINE
  5
257
100
AcDbEntity
  8
0
100
AcDbLine
 62
7
  6
CONTINUOUS
 10
23.6092462973
 20
20.0433343789
 11
23.6062285879
 21
20.0423283164
  0
LINE
  5
258
100
AcDbEntity
  8
0
100
AcDbLine
 62
7
  6
CONTINUOUS
 10
22.7351304008
 20
19.7486322612
 11
22.7321126436
 21
19.74762639
  0
LINE
  5
259
100
AcDbEntity
  8
0
100
AcDbLine
 62
7
  6
CONTINUOUS
 10
22.7281236213
 20
19.7456146474
 11
22.7251058163
 21
19.744608585
  0
LINE
  5
25A
100
AcDbEntity
  8
0
100
AcDbLine
 62
7
  6
CONTINUOUS
 10
22.670993919
 20
19.7396136435
 11
22.6609693344
 21
19.7365958385
  0
LINE
  5
25B
100
AcDbEntity
  8
0
100
AcDbLine
 62
7
  6
CONTINUOUS
 10
22.8213279377
 20
17.8921766736
 11
22.9376339299
 21
17.8921766736
  0
LINE
  5
25C
100
AcDbEntity
  8
0
100
AcDbLine
 62
7
  6
CONTINUOUS
 10
23.0358679372
 20
17.8921766736
 11
23.193243485
 21
17.8921766736
  0
LINE
  5
25D
100
AcDbEntity
  8
0
100
AcDbLine
 62
7
  6
CONTINUOUS
 10
23.2924833636
 20
17.8921766736
 11
23.5190250364
 21
17.8921766736
  0
LINE
  5
25E
100
AcDbEntity
  8
0
100
AcDbLine
 62
7
  6
CONTINUOUS
 10
23.6172590437
 20
17.8921766736
 11
23.7746345915
 21
17.8921766736
  0
LINE
  5
25F
100
AcDbEntity
  8
0
100
AcDbLine
 62
7
  6
CONTINUOUS
 10
23.8728685033
 20
17.8921766736
 11
24.0994103672
 21
17.8921766736
  0
LINE
  5
260
100
AcDbEntity
  8
0
100
AcDbLine
 62
7
  6
CONTINUOUS
 10
24.1986501502
 20
17.8921766736
 11
24.356025698
 21
17.8921766736
  0
LINE
  5
261
100
AcDbEntity
  8
0
100
AcDbLine
 62
7
  6
CONTINUOUS
 10
24.4542598009
 20
17.8921766736
 11
24.5705309481
 21
17.8921766736
  0
LINE
  5
262
100
AcDbEntity
  8
0
100
AcDbLine
 62
7
  6
CONTINUOUS
 10
22.9496356509
 20
17.9102140046
 11
22.9516475846
 21
17.9102140046
  0
LINE
  5
263
100
AcDbEntity
  8
0
100
AcDbLine
 62
7
  6
CONTINUOUS
 10
23.0208137096
 20
17.9102140046
 11
23.0228255477
 21
17.9102140046
  0
LINE
  5
264
100
AcDbEntity
  8
0
100
AcDbLine
 62
7
  6
CONTINUOUS
 10
23.2062511729
 20
17.9102140046
 11
23.208263011
 21
17.9102140046
  0
LINE
  5
265
100
AcDbEntity
  8
0
100
AcDbLine
 62
7
  6
CONTINUOUS
 10
23.277429136
 20
17.9102140046
 11
23.2794409741
 21
17.9102140046
  0
LINE
  5
266
100
AcDbEntity
  8
0
100
AcDbLine
 62
7
  6
CONTINUOUS
 10
23.531026853
 20
17.9102140046
 11
23.5330386911
 21
17.9102140046
  0
LINE
  5
267
100
AcDbEntity
  8
0
100
AcDbLine
 62
7
  6
CONTINUOUS
 10
23.6022048161
 20
17.9102140046
 11
23.6042166542
 21
17.9102140046
  0
LINE
  5
268
100
AcDbEntity
  8
0
100
AcDbLine
 62
7
  6
CONTINUOUS
 10
23.7876422793
 20
17.9102140046
 11
23.7896542131
 21
17.9102140046
  0
LINE
  5
269
100
AcDbEntity
  8
0
100
AcDbLine
 62
7
  6
CONTINUOUS
 10
23.858820338
 20
17.9102140046
 11
23.8608320806
 21
17.9102140046
  0
LINE
  5
26A
100
AcDbEntity
  8
0
100
AcDbLine
 62
7
  6
CONTINUOUS
 10
24.1124526611
 20
17.9102140046
 11
24.1144297976
 21
17.9102140046
  0
LINE
  5
26B
100
AcDbEntity
  8
0
100
AcDbLine
 62
7
  6
CONTINUOUS
 10
24.1835959225
 20
17.9102140046
 11
24.1856078563
 21
17.9102140046
  0
LINE
  5
26C
100
AcDbEntity
  8
0
100
AcDbLine
 62
7
  6
CONTINUOUS
 10
24.3690681831
 20
17.9102140046
 11
24.3710453196
 21
17.9102140046
  0
LINE
  5
26D
100
AcDbEntity
  8
0
100
AcDbLine
 62
7
  6
CONTINUOUS
 10
24.4402114445
 20
17.9102140046
 11
24.4422233783
 21
17.9102140046
  0
LINE
  5
26E
100
AcDbEntity
  8
0
100
AcDbLine
 62
7
  6
CONTINUOUS
 10
22.954665294
 20
17.9112199236
 11
23.0177959046
 21
17.9112199236
  0
LINE
  5
26F
100
AcDbEntity
  8
0
100
AcDbLine
 62
7
  6
CONTINUOUS
 10
23.211280816
 20
17.9112199236
 11
23.274411331
 21
17.9112199236
  0
LINE
  5
270
100
AcDbEntity
  8
0
100
AcDbLine
 62
7
  6
CONTINUOUS
 10
23.5360564961
 20
17.9112199236
 11
23.5992217128
 21
17.9112199236
  0
LINE
  5
271
100
AcDbEntity
  8
0
100
AcDbLine
 62
7
  6
CONTINUOUS
 10
23.7926718269
 20
17.9112199236
 11
23.8558371392
 21
17.9112199236
  0
LINE
  5
272
100
AcDbEntity
  8
0
100
AcDbLine
 62
7
  6
CONTINUOUS
 10
24.1174476026
 20
17.9112199236
 11
24.1806129148
 21
17.9112199236
  0
LINE
  5
273
100
AcDbEntity
  8
0
100
AcDbLine
 62
7
  6
CONTINUOUS
 10
24.3740631246
 20
17.9112199236
 11
24.4372282456
 21
17.9112199236
  0
LINE
  5
274
100
AcDbEntity
  8
0
100
AcDbLine
 62
7
  6
CONTINUOUS
 10
22.6609693344
 20
18.2139345965
 11
22.670993919
 21
18.2109167915
  0
LINE
  5
275
100
AcDbEntity
  8
0
100
AcDbLine
 62
7
  6
CONTINUOUS
 10
22.7251058163
 20
18.2059218501
 11
22.7281236213
 21
18.204915931
  0
LINE
  5
276
100
AcDbEntity
  8
0
100
AcDbLine
 62
7
  6
CONTINUOUS
 10
23.5992217128
 20
17.9112199236
 11
23.6022048161
 21
17.9102140046
  0
LINE
  5
277
100
AcDbEntity
  8
0
100
AcDbLine
 62
7
  6
CONTINUOUS
 10
23.2884596874
 20
17.9011953391
 11
23.2904715255
 21
17.8991834532
  0
LINE
  5
278
100
AcDbEntity
  8
0
100
AcDbLine
 62
7
  6
CONTINUOUS
 10
23.0348619704
 20
17.8941538578
 11
23.0358679372
 21
17.8921766736
  0
LINE
  5
279
100
AcDbEntity
  8
0
100
AcDbLine
 62
7
  6
CONTINUOUS
 10
23.0278204891
 20
17.9071961996
 11
23.028826456
 21
17.9051843615
  0
LINE
  5
27A
100
AcDbEntity
  8
0
100
AcDbLine
 62
7
  6
CONTINUOUS
 10
22.7411313091
 20
19.7586569414
 11
22.7411313091
 21
19.7566450076
  0
LINE
  5
27B
100
AcDbEntity
  8
0
100
AcDbLine
 62
7
  6
CONTINUOUS
 10
22.7411313091
 20
18.1938854274
 11
22.7411313091
 21
18.1918735415
  0
LINE
  5
27C
100
AcDbEntity
  8
0
100
AcDbLine
 62
7
  6
CONTINUOUS
 10
22.7421372282
 20
19.9801690666
 11
22.7421372282
 21
19.7616399491
  0
LINE
  5
27D
100
AcDbEntity
  8
0
100
AcDbLine
 62
7
  6
CONTINUOUS
 10
22.7421372282
 20
18.1888904382
 11
22.7421372282
 21
17.9703614641
  0
LINE
  5
27E
100
AcDbEntity
  8
0
100
AcDbLine
 62
7
  6
CONTINUOUS
 10
22.7722110983
 20
18.4986121693
 11
22.7722110983
 21
18.4665265607
  0
LINE
  5
27F
100
AcDbEntity
  8
0
100
AcDbLine
 62
7
  6
CONTINUOUS
 10
23.0348619704
 20
20.0563766728
 11
23.0338560991
 21
20.0533588678
  0
LINE
  5
280
100
AcDbEntity
  8
0
100
AcDbLine
 62
7
  6
CONTINUOUS
 10
23.2904715255
 20
20.0513469341
 11
23.2884596874
 21
20.0483293203
  0
LINE
  5
281
100
AcDbEntity
  8
0
100
AcDbLine
 62
7
  6
CONTINUOUS
 10
23.6122294006
 20
20.0463519927
 11
23.6102175625
 21
20.0453461214
  0
LINE
  5
282
100
AcDbEntity
  8
0
100
AcDbLine
 62
7
  6
CONTINUOUS
 10
23.858820338
 20
20.0403165739
 11
23.8558371392
 21
20.0393105114
  0
LINE
  5
283
100
AcDbEntity
  8
0
100
AcDbLine
 62
7
  6
CONTINUOUS
 10
23.8658618193
 20
20.0433343789
 11
23.8628440143
 21
20.0423283164
  0
LINE
  5
284
100
AcDbEntity
  8
0
100
AcDbLine
 62
7
  6
CONTINUOUS
 10
24.7008506428
 20
18.2069277692
 11
24.7208998119
 21
18.2109167915
  0
LINE
  5
285
100
AcDbEntity
  8
0
100
AcDbLine
 62
7
  6
CONTINUOUS
 10
22.670993919
 20
18.2109167915
 11
22.6910430403
 21
18.2069277692
  0
LINE
  5
286
100
AcDbEntity
  8
0
100
AcDbLine
 62
7
  6
CONTINUOUS
 10
23.8558371392
 20
17.9112199236
 11
23.858820338
 21
17.9102140046
  0
LINE
  5
287
100
AcDbEntity
  8
0
100
AcDbLine
 62
7
  6
CONTINUOUS
 10
23.6102175625
 20
17.9051843615
 11
23.6122294006
 21
17.9041784424
  0
LINE
  5
288
100
AcDbEntity
  8
0
100
AcDbLine
 62
7
  6
CONTINUOUS
 10
23.6072344592
 20
17.9082021187
 11
23.6092462973
 21
17.9071961996
  0
LINE
  5
289
100
AcDbEntity
  8
0
100
AcDbLine
 62
7
  6
CONTINUOUS
 10
23.6042166542
 20
17.9102140046
 11
23.6072344592
 21
17.9082021187
  0
LINE
  5
28A
100
AcDbEntity
  8
0
100
AcDbLine
 62
7
  6
CONTINUOUS
 10
23.0308382941
 20
17.9041784424
 11
23.0318441654
 21
17.9011953391
  0
LINE
  5
28B
100
AcDbEntity
  8
0
100
AcDbLine
 62
7
  6
CONTINUOUS
 10
23.0338560991
 20
17.897171615
 11
23.0348619704
 21
17.8941538578
  0
LINE
  5
28C
100
AcDbEntity
  8
0
100
AcDbLine
 62
7
  6
CONTINUOUS
 10
23.2854418824
 20
20.0453461214
 11
23.2844359155
 21
20.0433343789
  0
LINE
  5
28D
100
AcDbEntity
  8
0
100
AcDbLine
 62
7
  6
CONTINUOUS
 10
23.2924833636
 20
20.0583538092
 11
23.2914773968
 21
20.0563766728
  0
LINE
  5
28E
100
AcDbEntity
  8
0
100
AcDbLine
 62
7
  6
CONTINUOUS
 10
23.2884596874
 20
20.0483293203
 11
23.2874537205
 21
20.0463519927
  0
LINE
  5
28F
100
AcDbEntity
  8
0
100
AcDbLine
 62
7
  6
CONTINUOUS
 10
23.6062285879
 20
20.0423283164
 11
23.6042166542
 21
20.0403165739
  0
LINE
  5
290
100
AcDbEntity
  8
0
100
AcDbLine
 62
7
  6
CONTINUOUS
 10
23.868844827
 20
20.0463519927
 11
23.8668330845
 21
20.0453461214
  0
LINE
  5
291
100
AcDbEntity
  8
0
100
AcDbLine
 62
7
  6
CONTINUOUS
 10
24.1835959225
 20
20.0403165739
 11
24.1806129148
 21
20.0393105114
  0
LINE
  5
292
100
AcDbEntity
  8
0
100
AcDbLine
 62
7
  6
CONTINUOUS
 10
24.1906374038
 20
20.0433343789
 11
24.1876195988
 21
20.0423283164
  0
LINE
  5
293
100
AcDbEntity
  8
0
100
AcDbLine
 62
7
  6
CONTINUOUS
 10
24.1806129148
 20
17.9112199236
 11
24.1835959225
 21
17.9102140046
  0
LINE
  5
294
100
AcDbEntity
  8
0
100
AcDbLine
 62
7
  6
CONTINUOUS
 10
23.8668330845
 20
17.9051843615
 11
23.868844827
 21
17.9041784424
  0
LINE
  5
295
100
AcDbEntity
  8
0
100
AcDbLine
 62
7
  6
CONTINUOUS
 10
23.8638498856
 20
17.9082021187
 11
23.8658618193
 21
17.9071961996
  0
LINE
  5
296
100
AcDbEntity
  8
0
100
AcDbLine
 62
7
  6
CONTINUOUS
 10
23.6132353675
 20
17.9011953391
 11
23.6152472056
 21
17.8991834532
  0
LINE
  5
297
100
AcDbEntity
  8
0
100
AcDbLine
 62
7
  6
CONTINUOUS
 10
23.2914773968
 20
17.8941538578
 11
23.2924833636
 21
17.8921766736
  0
LINE
  5
298
100
AcDbEntity
  8
0
100
AcDbLine
 62
7
  6
CONTINUOUS
 10
23.2844359155
 20
17.9071961996
 11
23.2854418824
 21
17.9051843615
  0
LINE
  5
299
100
AcDbEntity
  8
0
100
AcDbLine
 62
7
  6
CONTINUOUS
 10
22.9376339299
 20
17.8921766736
 11
22.9376339299
 21
17.8941538578
  0
LINE
  5
29A
100
AcDbEntity
  8
0
100
AcDbLine
 62
7
  6
CONTINUOUS
 10
22.9376339299
 20
20.0563766728
 11
22.9376339299
 21
20.0583538092
  0
LINE
  5
29B
100
AcDbEntity
  8
0
100
AcDbLine
 62
7
  6
CONTINUOUS
 10
22.9386051951
 20
17.897171615
 11
22.9386051951
 21
17.8991834532
  0
LINE
  5
29C
100
AcDbEntity
  8
0
100
AcDbLine
 62
7
  6
CONTINUOUS
 10
22.9386051951
 20
20.0513469341
 11
22.9386051951
 21
20.0533588678
  0
LINE
  5
29D
100
AcDbEntity
  8
0
100
AcDbLine
 62
7
  6
CONTINUOUS
 10
23.2914773968
 20
20.0563766728
 11
23.2904715255
 21
20.0533588678
  0
LINE
  5
29E
100
AcDbEntity
  8
0
100
AcDbLine
 62
7
  6
CONTINUOUS
 10
24.1936206027
 20
20.0463519927
 11
24.1916434663
 21
20.0453461214
  0
LINE
  5
29F
100
AcDbEntity
  8
0
100
AcDbLine
 62
7
  6
CONTINUOUS
 10
24.4402114445
 20
20.0403165739
 11
24.4372282456
 21
20.0393105114
  0
LINE
  5
2A0
100
AcDbEntity
  8
0
100
AcDbLine
 62
7
  6
CONTINUOUS
 10
24.4472529258
 20
20.0433343789
 11
24.4442351208
 21
20.0423283164
  0
LINE
  5
2A1
100
AcDbEntity
  8
0
100
AcDbLine
 62
7
  6
CONTINUOUS
 10
22.7281236213
 20
18.204915931
 11
22.7301354594
 21
18.204915931
  0
LINE
  5
2A2
100
AcDbEntity
  8
0
100
AcDbLine
 62
7
  6
CONTINUOUS
 10
24.6617581759
 20
18.204915931
 11
24.6637701096
 21
18.204915931
  0
LINE
  5
2A3
100
AcDbEntity
  8
0
100
AcDbLine
 62
7
  6
CONTINUOUS
 10
22.6910430403
 20
18.2069277692
 11
22.7230939781
 21
18.2069277692
  0
LINE
  5
2A4
100
AcDbEntity
  8
0
100
AcDbLine
 62
7
  6
CONTINUOUS
 10
24.668765051
 20
18.2069277692
 11
24.7008506428
 21
18.2069277692
  0
LINE
  5
2A5
100
AcDbEntity
  8
0
100
AcDbLine
 62
7
  6
CONTINUOUS
 10
24.4372282456
 20
17.9112199236
 11
24.4402114445
 21
17.9102140046
  0
LINE
  5
2A6
100
AcDbEntity
  8
0
100
AcDbLine
 62
7
  6
CONTINUOUS
 10
24.1886256613
 20
17.9082021187
 11
24.1906374038
 21
17.9071961996
  0
LINE
  5
2A7
100
AcDbEntity
  8
0
100
AcDbLine
 62
7
  6
CONTINUOUS
 10
24.1916434663
 20
17.9051843615
 11
24.1936206027
 21
17.9041784424
  0
LINE
  5
2A8
100
AcDbEntity
  8
0
100
AcDbLine
 62
7
  6
CONTINUOUS
 10
23.8608320806
 20
17.9102140046
 11
23.8638498856
 21
17.9082021187
  0
LINE
  5
2A9
100
AcDbEntity
  8
0
100
AcDbLine
 62
7
  6
CONTINUOUS
 10
23.2874537205
 20
17.9041784424
 11
23.2884596874
 21
17.9011953391
  0
LINE
  5
2AA
100
AcDbEntity
  8
0
100
AcDbLine
 62
7
  6
CONTINUOUS
 10
23.2904715255
 20
17.897171615
 11
23.2914773968
 21
17.8941538578
  0
LINE
  5
2AB
100
AcDbEntity
  8
0
100
AcDbLine
 62
7
  6
CONTINUOUS
 10
23.0338560991
 20
20.0533588678
 11
23.0338560991
 21
20.0513469341
  0
LINE
  5
2AC
100
AcDbEntity
  8
0
100
AcDbLine
 62
7
  6
CONTINUOUS
 10
23.0338560991
 20
17.8991834532
 11
23.0338560991
 21
17.897171615
  0
LINE
  5
2AD
100
AcDbEntity
  8
0
100
AcDbLine
 62
7
  6
CONTINUOUS
 10
23.6152472056
 20
20.0513469341
 11
23.6132353675
 21
20.0483293203
  0
LINE
  5
2AE
100
AcDbEntity
  8
0
100
AcDbLine
 62
7
  6
CONTINUOUS
 10
23.8628440143
 20
20.0423283164
 11
23.8608320806
 21
20.0403165739
  0
LINE
  5
2AF
100
AcDbEntity
  8
0
100
AcDbLine
 62
7
  6
CONTINUOUS
 10
24.4502359335
 20
20.0463519927
 11
24.448258797
 21
20.0453461214
  0
LINE
  5
2B0
100
AcDbEntity
  8
0
100
AcDbLine
 62
7
  6
CONTINUOUS
 10
24.4452409921
 20
17.9082021187
 11
24.4472529258
 21
17.9071961996
  0
LINE
  5
2B1
100
AcDbEntity
  8
0
100
AcDbLine
 62
7
  6
CONTINUOUS
 10
24.448258797
 20
17.9051843615
 11
24.4502359335
 21
17.9041784424
  0
LINE
  5
2B2
100
AcDbEntity
  8
0
100
AcDbLine
 62
7
  6
CONTINUOUS
 10
24.1856078563
 20
17.9102140046
 11
24.1886256613
 21
17.9082021187
  0
LINE
  5
2B3
100
AcDbEntity
  8
0
100
AcDbLine
 62
7
  6
CONTINUOUS
 10
23.8698508895
 20
17.9011953391
 11
23.871862632
 21
17.8991834532
  0
LINE
  5
2B4
100
AcDbEntity
  8
DEFAULT_2
100
AcDbLine
 62
8
  6
HIDDEN
 10
23.1899889024
 20
19.6685900297
 11
23.1899889024
 21
19.8040231006
  0
LINE
  5
2B5
100
AcDbEntity
  8
0
100
AcDbLine
 62
7
  6
CONTINUOUS
 10
23.1952206214
 20
17.897171615
 11
23.1952206214
 21
17.8991834532
  0
LINE
  5
2B6
100
AcDbEntity
  8
0
100
AcDbLine
 62
7
  6
CONTINUOUS
 10
23.1952206214
 20
20.0513469341
 11
23.1952206214
 21
20.0533588678
  0
LINE
  5
2B7
100
AcDbEntity
  8
0
100
AcDbLine
 62
7
  6
CONTINUOUS
 10
23.6102175625
 20
20.0453461214
 11
23.6092462973
 21
20.0433343789
  0
LINE
  5
2B8
100
AcDbEntity
  8
0
100
AcDbLine
 62
7
  6
CONTINUOUS
 10
23.6172590437
 20
20.0583538092
 11
23.6162530769
 21
20.0563766728
  0
LINE
  5
2B9
100
AcDbEntity
  8
0
100
AcDbLine
 62
7
  6
CONTINUOUS
 10
23.6132353675
 20
20.0483293203
 11
23.6122294006
 21
20.0463519927
  0
LINE
  5
2BA
100
AcDbEntity
  8
0
100
AcDbLine
 62
7
  6
CONTINUOUS
 10
23.6162530769
 20
17.8941538578
 11
23.6172590437
 21
17.8921766736
  0
LINE
  5
2BB
100
AcDbEntity
  8
0
100
AcDbLine
 62
7
  6
CONTINUOUS
 10
23.6092462973
 20
17.9071961996
 11
23.6102175625
 21
17.9051843615
  0
LINE
  5
2BC
100
AcDbEntity
  8
0
100
AcDbLine
 62
7
  6
CONTINUOUS
 10
23.2904715255
 20
20.0533588678
 11
23.2904715255
 21
20.0513469341
  0
LINE
  5
2BD
100
AcDbEntity
  8
0
100
AcDbLine
 62
7
  6
CONTINUOUS
 10
23.2904715255
 20
17.8991834532
 11
23.2904715255
 21
17.897171615
  0
LINE
  5
2BE
100
AcDbEntity
  8
0
100
AcDbLine
 62
7
  6
CONTINUOUS
 10
23.6162530769
 20
20.0563766728
 11
23.6152472056
 21
20.0533588678
  0
LINE
  5
2BF
100
AcDbEntity
  8
0
100
AcDbLine
 62
7
  6
CONTINUOUS
 10
23.871862632
 20
20.0513469341
 11
23.8698508895
 21
20.0483293203
  0
LINE
  5
2C0
100
AcDbEntity
  8
0
100
AcDbLine
 62
7
  6
CONTINUOUS
 10
24.1876195988
 20
20.0423283164
 11
24.1856078563
 21
20.0403165739
  0
LINE
  5
2C1
100
AcDbEntity
  8
0
100
AcDbLine
 62
7
  6
CONTINUOUS
 10
24.4422233783
 20
17.9102140046
 11
24.4452409921
 21
17.9082021187
  0
LINE
  5
2C2
100
AcDbEntity
  8
0
100
AcDbLine
 62
7
  6
CONTINUOUS
 10
24.194626474
 20
17.9011953391
 11
24.1966384077
 21
17.8991834532
  0
LINE
  5
2C3
100
AcDbEntity
  8
0
100
AcDbLine
 62
7
  6
CONTINUOUS
 10
23.6122294006
 20
17.9041784424
 11
23.6132353675
 21
17.9011953391
  0
LINE
  5
2C4
100
AcDbEntity
  8
0
100
AcDbLine
 62
7
  6
CONTINUOUS
 10
23.6152472056
 20
17.897171615
 11
23.6162530769
 21
17.8941538578
  0
LINE
  5
2C5
100
AcDbEntity
  8
0
100
AcDbLine
 62
7
  6
CONTINUOUS
 10
22.9376339299
 20
17.8941538578
 11
22.9386051951
 21
17.897171615
  0
LINE
  5
2C6
100
AcDbEntity
  8
0
100
AcDbLine
 62
7
  6
CONTINUOUS
 10
23.8668330845
 20
20.0453461214
 11
23.8658618193
 21
20.0433343789
  0
LINE
  5
2C7
100
AcDbEntity
  8
0
100
AcDbLine
 62
7
  6
CONTINUOUS
 10
23.8698508895
 20
20.0483293203
 11
23.868844827
 21
20.0463519927
  0
LINE
  5
2C8
100
AcDbEntity
  8
0
100
AcDbLine
 62
7
  6
CONTINUOUS
 10
23.8658618193
 20
17.9071961996
 11
23.8668330845
 21
17.9051843615
  0
LINE
  5
2C9
100
AcDbEntity
  8
0
100
AcDbLine
 62
7
  6
CONTINUOUS
 10
22.9416229523
 20
20.0463519927
 11
22.9406170332
 21
20.0493351916
  0
LINE
  5
2CA
100
AcDbEntity
  8
0
100
AcDbLine
 62
7
  6
CONTINUOUS
 10
22.9386051951
 20
20.0533588678
 11
22.9376339299
 21
20.0563766728
  0
LINE
  5
2CB
100
AcDbEntity
  8
DEFAULT_2
100
AcDbLine
 62
8
  6
HIDDEN
 10
23.5049495324
 20
19.8040231006
 11
23.5049495324
 21
19.6685900297
  0
LINE
  5
2CC
100
AcDbEntity
  8
0
100
AcDbLine
 62
7
  6
CONTINUOUS
 10
22.9436348382
 20
17.9051843615
 11
22.9446407094
 21
17.9071961996
  0
LINE
  5
2CD
100
AcDbEntity
  8
0
100
AcDbLine
 62
7
  6
CONTINUOUS
 10
24.4442351208
 20
20.0423283164
 11
24.4422233783
 21
20.0403165739
  0
LINE
  5
2CE
100
AcDbEntity
  8
0
100
AcDbLine
 62
7
  6
CONTINUOUS
 10
24.4512419959
 20
17.9011953391
 11
24.4532537385
 21
17.8991834532
  0
LINE
  5
2CF
100
AcDbEntity
  8
0
100
AcDbLine
 62
7
  6
CONTINUOUS
 10
22.9446407094
 20
20.0433343789
 11
22.9436348382
 21
20.0453461214
  0
LINE
  5
2D0
100
AcDbEntity
  8
0
100
AcDbLine
 62
7
  6
CONTINUOUS
 10
23.5190250364
 20
17.8921766736
 11
23.5190250364
 21
17.8941538578
  0
LINE
  5
2D1
100
AcDbEntity
  8
0
100
AcDbLine
 62
7
  6
CONTINUOUS
 10
23.5190250364
 20
20.0563766728
 11
23.5190250364
 21
20.0583538092
  0
LINE
  5
2D2
100
AcDbEntity
  8
0
100
AcDbLine
 62
7
  6
CONTINUOUS
 10
23.5200310032
 20
17.897171615
 11
23.5200310032
 21
17.8991834532
  0
LINE
  5
2D3
100
AcDbEntity
  8
0
100
AcDbLine
 62
7
  6
CONTINUOUS
 10
23.5200310032
 20
20.0513469341
 11
23.5200310032
 21
20.0533588678
  0
LINE
  5
2D4
100
AcDbEntity
  8
0
100
AcDbLine
 62
7
  6
CONTINUOUS
 10
23.1942493563
 20
17.8941538578
 11
23.1952206214
 21
17.897171615
  0
LINE
  5
2D5
100
AcDbEntity
  8
0
100
AcDbLine
 62
7
  6
CONTINUOUS
 10
23.8728685033
 20
20.0563766728
 11
23.871862632
 21
20.0533588678
  0
LINE
  5
2D6
100
AcDbEntity
  8
0
100
AcDbLine
 62
7
  6
CONTINUOUS
 10
22.9406170332
 20
17.9022012582
 11
22.9416229523
 21
17.9041784424
  0
LINE
  5
2D7
100
AcDbEntity
  8
0
100
AcDbLine
 62
7
  6
CONTINUOUS
 10
24.1966384077
 20
20.0513469341
 11
24.194626474
 21
20.0483293203
  0
LINE
  5
2D8
100
AcDbEntity
  8
0
100
AcDbLine
 62
7
  6
CONTINUOUS
 10
23.868844827
 20
17.9041784424
 11
23.8698508895
 21
17.9011953391
  0
LINE
  5
2D9
100
AcDbEntity
  8
0
100
AcDbLine
 62
7
  6
CONTINUOUS
 10
23.1982384264
 20
20.0463519927
 11
23.1972324596
 21
20.0493351916
  0
LINE
  5
2DA
100
AcDbEntity
  8
0
100
AcDbLine
 62
7
  6
CONTINUOUS
 10
23.871862632
 20
17.897171615
 11
23.8728685033
 21
17.8941538578
  0
LINE
  5
2DB
100
AcDbEntity
  8
0
100
AcDbLine
 62
7
  6
CONTINUOUS
 10
23.1952206214
 20
20.0533588678
 11
23.1942493563
 21
20.0563766728
  0
LINE
  5
2DC
100
AcDbEntity
  8
0
100
AcDbLine
 62
7
  6
CONTINUOUS
 10
23.6152472056
 20
20.0533588678
 11
23.6152472056
 21
20.0513469341
  0
LINE
  5
2DD
100
AcDbEntity
  8
0
100
AcDbLine
 62
7
  6
CONTINUOUS
 10
23.6152472056
 20
17.8991834532
 11
23.6152472056
 21
17.897171615
  0
LINE
  5
2DE
100
AcDbEntity
  8
0
100
AcDbLine
 62
7
  6
CONTINUOUS
 10
24.1916434663
 20
20.0453461214
 11
24.1906374038
 21
20.0433343789
  0
LINE
  5
2DF
100
AcDbEntity
  8
0
100
AcDbLine
 62
7
  6
CONTINUOUS
 10
24.194626474
 20
20.0483293203
 11
24.1936206027
 21
20.0463519927
  0
LINE
  5
2E0
100
AcDbEntity
  8
0
100
AcDbLine
 62
7
  6
CONTINUOUS
 10
24.1986501502
 20
20.0583538092
 11
24.1976442789
 21
20.0563766728
  0
LINE
  5
2E1
100
AcDbEntity
  8
0
100
AcDbLine
 62
7
  6
CONTINUOUS
 10
22.9386051951
 20
17.8991834532
 11
22.9406170332
 21
17.9022012582
  0
LINE
  5
2E2
100
AcDbEntity
  8
0
100
AcDbLine
 62
7
  6
CONTINUOUS
 10
24.7669989628
 20
18.9436825853
 11
24.7650218263
 21
18.9436825853
  0
LINE
  5
2E3
100
AcDbEntity
  8
0
100
AcDbLine
 62
7
  6
CONTINUOUS
 10
24.7599920876
 20
18.9456944234
 11
24.7208998119
 21
18.9456944234
  0
LINE
  5
2E4
100
AcDbEntity
  8
0
100
AcDbLine
 62
7
  6
CONTINUOUS
 10
24.7159048704
 20
18.9477063571
 11
24.7138929367
 21
18.9477063571
  0
LINE
  5
2E5
100
AcDbEntity
  8
0
100
AcDbLine
 62
7
  6
CONTINUOUS
 10
24.1976442789
 20
17.8941538578
 11
24.1986501502
 21
17.8921766736
  0
LINE
  5
2E6
100
AcDbEntity
  8
0
100
AcDbLine
 62
7
  6
CONTINUOUS
 10
24.1906374038
 20
17.9071961996
 11
24.1916434663
 21
17.9051843615
  0
LINE
  5
2E7
100
AcDbEntity
  8
0
100
AcDbLine
 62
7
  6
CONTINUOUS
 10
23.7766465252
 20
17.897171615
 11
23.7766465252
 21
17.8991834532
  0
LINE
  5
2E8
100
AcDbEntity
  8
0
100
AcDbLine
 62
7
  6
CONTINUOUS
 10
23.7766465252
 20
20.0513469341
 11
23.7766465252
 21
20.0533588678
  0
LINE
  5
2E9
100
AcDbEntity
  8
0
100
AcDbLine
 62
7
  6
CONTINUOUS
 10
23.2002502646
 20
17.9051843615
 11
23.2012562314
 21
17.9071961996
  0
LINE
  5
2EA
100
AcDbEntity
  8
0
100
AcDbLine
 62
7
  6
CONTINUOUS
 10
23.1972324596
 20
17.9022012582
 11
23.1982384264
 21
17.9041784424
  0
LINE
  5
2EB
100
AcDbEntity
  8
0
100
AcDbLine
 62
7
  6
CONTINUOUS
 10
23.193243485
 20
17.8921766736
 11
23.1942493563
 21
17.8941538578
  0
LINE
  5
2EC
100
AcDbEntity
  8
0
100
AcDbLine
 62
7
  6
CONTINUOUS
 10
24.4532537385
 20
20.0513469341
 11
24.4512419959
 21
20.0483293203
  0
LINE
  5
2ED
100
AcDbEntity
  8
0
100
AcDbLine
 62
7
  6
CONTINUOUS
 10
24.7138929367
 20
19.0028242213
 11
24.7159048704
 21
19.0028242213
  0
LINE
  5
2EE
100
AcDbEntity
  8
0
100
AcDbLine
 62
7
  6
CONTINUOUS
 10
24.7208998119
 20
19.0048360594
 11
24.7599920876
 21
19.0048360594
  0
LINE
  5
2EF
100
AcDbEntity
  8
0
100
AcDbLine
 62
7
  6
CONTINUOUS
 10
24.7650218263
 20
19.0068478976
 11
24.7669989628
 21
19.0068478976
  0
LINE
  5
2F0
100
AcDbEntity
  8
0
100
AcDbLine
 62
7
  6
CONTINUOUS
 10
23.1942493563
 20
20.0563766728
 11
23.193243485
 21
20.0583538092
  0
LINE
  5
2F1
100
AcDbEntity
  8
0
100
AcDbLine
 62
7
  6
CONTINUOUS
 10
23.2012562314
 20
20.0433343789
 11
23.2002502646
 21
20.0453461214
  0
LINE
  5
2F2
100
AcDbEntity
  8
0
100
AcDbLine
 62
7
  6
CONTINUOUS
 10
23.871862632
 20
20.0533588678
 11
23.871862632
 21
20.0513469341
  0
LINE
  5
2F3
100
AcDbEntity
  8
0
100
AcDbLine
 62
7
  6
CONTINUOUS
 10
23.871862632
 20
17.8991834532
 11
23.871862632
 21
17.897171615
  0
LINE
  5
2F4
100
AcDbEntity
  8
0
100
AcDbLine
 62
7
  6
CONTINUOUS
 10
23.8728685033
 20
20.0583538092
 11
23.8728685033
 21
20.0563766728
  0
LINE
  5
2F5
100
AcDbEntity
  8
0
100
AcDbLine
 62
7
  6
CONTINUOUS
 10
23.8728685033
 20
17.8941538578
 11
23.8728685033
 21
17.8921766736
  0
LINE
  5
2F6
100
AcDbEntity
  8
0
100
AcDbLine
 62
7
  6
CONTINUOUS
 10
24.1976442789
 20
20.0563766728
 11
24.1966384077
 21
20.0533588678
  0
LINE
  5
2F7
100
AcDbEntity
  8
0
100
AcDbLine
 62
7
  6
CONTINUOUS
 10
23.5190250364
 20
17.8941538578
 11
23.5200310032
 21
17.897171615
  0
LINE
  5
2F8
100
AcDbEntity
  8
0
100
AcDbLine
 62
7
  6
CONTINUOUS
 10
24.448258797
 20
20.0453461214
 11
24.4472529258
 21
20.0433343789
  0
LINE
  5
2F9
100
AcDbEntity
  8
0
100
AcDbLine
 62
7
  6
CONTINUOUS
 10
24.4512419959
 20
20.0483293203
 11
24.4502359335
 21
20.0463519927
  0
LINE
  5
2FA
100
AcDbEntity
  8
0
100
AcDbLine
 62
7
  6
CONTINUOUS
 10
23.1952206214
 20
17.8991834532
 11
23.1972324596
 21
17.9022012582
  0
LINE
  5
2FB
100
AcDbEntity
  8
0
100
AcDbLine
 62
7
  6
CONTINUOUS
 10
22.9476585144
 20
17.9082021187
 11
22.9496356509
 21
17.9102140046
  0
LINE
  5
2FC
100
AcDbEntity
  8
0
100
AcDbLine
 62
7
  6
CONTINUOUS
 10
24.4472529258
 20
17.9071961996
 11
24.448258797
 21
17.9051843615
  0
LINE
  5
2FD
100
AcDbEntity
  8
0
100
AcDbLine
 62
7
  6
CONTINUOUS
 10
24.1936206027
 20
17.9041784424
 11
24.194626474
 21
17.9011953391
  0
LINE
  5
2FE
100
AcDbEntity
  8
0
100
AcDbLine
 62
7
  6
CONTINUOUS
 10
23.5230141065
 20
20.0463519927
 11
23.5220081397
 21
20.0493351916
  0
LINE
  5
2FF
100
AcDbEntity
  8
0
100
AcDbLine
 62
7
  6
CONTINUOUS
 10
24.1966384077
 20
17.897171615
 11
24.1976442789
 21
17.8941538578
  0
LINE
  5
300
100
AcDbEntity
  8
0
100
AcDbLine
 62
7
  6
CONTINUOUS
 10
23.5200310032
 20
20.0533588678
 11
23.5190250364
 21
20.0563766728
  0
LINE
  5
301
100
AcDbEntity
  8
0
100
AcDbLine
 62
7
  6
CONTINUOUS
 10
24.7159048704
 20
19.0028242213
 11
24.7188878781
 21
19.0038300926
  0
LINE
  5
302
100
AcDbEntity
  8
0
100
AcDbLine
 62
7
  6
CONTINUOUS
 10
24.7620040213
 20
19.0058419307
 11
24.7650218263
 21
19.0068478976
  0
LINE
  5
303
100
AcDbEntity
  8
0
100
AcDbLine
 62
7
  6
CONTINUOUS
 10
24.7088633892
 20
18.999841118
 11
24.7118811942
 21
19.0008122876
  0
LINE
  5
304
100
AcDbEntity
  8
0
100
AcDbLine
 62
7
  6
CONTINUOUS
 10
24.7690108965
 20
19.0088597357
 11
24.7720285103
 21
19.0098310009
  0
LINE
  5
305
100
AcDbEntity
  8
0
100
AcDbLine
 62
7
  6
CONTINUOUS
 10
24.7650218263
 20
18.9436825853
 11
24.7620040213
 21
18.9446885522
  0
LINE
  5
306
100
AcDbEntity
  8
0
100
AcDbLine
 62
7
  6
CONTINUOUS
 10
24.7188878781
 20
18.9467003903
 11
24.7159048704
 21
18.9477063571
  0
LINE
  5
307
100
AcDbEntity
  8
0
100
AcDbLine
 62
7
  6
CONTINUOUS
 10
22.9406170332
 20
20.0493351916
 11
22.9386051951
 21
20.0513469341
  0
LINE
  5
308
100
AcDbEntity
  8
0
100
AcDbLine
 62
7
  6
CONTINUOUS
 10
24.1004162385
 20
20.0563766728
 11
24.1004162385
 21
20.0583538092
  0
LINE
  5
309
100
AcDbEntity
  8
0
100
AcDbLine
 62
7
  6
CONTINUOUS
 10
24.1014221097
 20
17.897171615
 11
24.1014221097
 21
17.8991834532
  0
LINE
  5
30A
100
AcDbEntity
  8
0
100
AcDbLine
 62
7
  6
CONTINUOUS
 10
24.1014221097
 20
20.0513469341
 11
24.1014221097
 21
20.0533588678
  0
LINE
  5
30B
100
AcDbEntity
  8
0
100
AcDbLine
 62
7
  6
CONTINUOUS
 10
24.4542598009
 20
20.0563766728
 11
24.4532537385
 21
20.0533588678
  0
LINE
  5
30C
100
AcDbEntity
  8
0
100
AcDbLine
 62
7
  6
CONTINUOUS
 10
23.7756404628
 20
17.8941538578
 11
23.7766465252
 21
17.897171615
  0
LINE
  5
30D
100
AcDbEntity
  8
0
100
AcDbLine
 62
7
  6
CONTINUOUS
 10
23.5250259447
 20
17.9051843615
 11
23.5260319115
 21
17.9071961996
  0
LINE
  5
30E
100
AcDbEntity
  8
0
100
AcDbLine
 62
7
  6
CONTINUOUS
 10
23.5220081397
 20
17.9022012582
 11
23.5230141065
 21
17.9041784424
  0
LINE
  5
30F
100
AcDbEntity
  8
0
100
AcDbLine
 62
7
  6
CONTINUOUS
 10
23.2042739408
 20
17.9082021187
 11
23.2062511729
 21
17.9102140046
  0
LINE
  5
310
100
AcDbEntity
  8
0
100
AcDbLine
 62
7
  6
CONTINUOUS
 10
24.7108751317
 20
18.9497181953
 11
24.7088633892
 21
18.9506893648
  0
LINE
  5
311
100
AcDbEntity
  8
0
100
AcDbLine
 62
7
  6
CONTINUOUS
 10
23.1972324596
 20
20.0493351916
 11
23.1952206214
 21
20.0513469341
  0
LINE
  5
312
100
AcDbEntity
  8
0
100
AcDbLine
 62
7
  6
CONTINUOUS
 10
23.5260319115
 20
20.0433343789
 11
23.5250259447
 21
20.0453461214
  0
LINE
  5
313
100
AcDbEntity
  8
0
100
AcDbLine
 62
7
  6
CONTINUOUS
 10
24.4502359335
 20
17.9041784424
 11
24.4512419959
 21
17.9011953391
  0
LINE
  5
314
100
AcDbEntity
  8
0
100
AcDbLine
 62
7
  6
CONTINUOUS
 10
23.7796295329
 20
20.0463519927
 11
23.7786236617
 21
20.0493351916
  0
LINE
  5
315
100
AcDbEntity
  8
0
100
AcDbLine
 62
7
  6
CONTINUOUS
 10
24.4532537385
 20
17.897171615
 11
24.4542598009
 21
17.8941538578
  0
LINE
  5
316
100
AcDbEntity
  8
0
100
AcDbLine
 62
7
  6
CONTINUOUS
 10
23.7766465252
 20
20.0533588678
 11
23.7756404628
 21
20.0563766728
  0
LINE
  5
317
100
AcDbEntity
  8
0
100
AcDbLine
 62
7
  6
CONTINUOUS
 10
24.1966384077
 20
20.0533588678
 11
24.1966384077
 21
20.0513469341
  0
LINE
  5
318
100
AcDbEntity
  8
0
100
AcDbLine
 62
7
  6
CONTINUOUS
 10
24.1966384077
 20
17.8991834532
 11
24.1966384077
 21
17.897171615
  0
LINE
  5
319
100
AcDbEntity
  8
0
100
AcDbLine
 62
7
  6
CONTINUOUS
 10
23.5200310032
 20
17.8991834532
 11
23.5220081397
 21
17.9022012582
  0
LINE
  5
31A
100
AcDbEntity
  8
0
100
AcDbLine
 62
7
  6
CONTINUOUS
 10
24.7058801903
 20
18.996823313
 11
24.7078573267
 21
18.9978291843
  0
LINE
  5
31B
100
AcDbEntity
  8
0
100
AcDbLine
 62
7
  6
CONTINUOUS
 10
24.7188878781
 20
19.0038300926
 11
24.7208998119
 21
19.0048360594
  0
LINE
  5
31C
100
AcDbEntity
  8
0
100
AcDbLine
 62
7
  6
CONTINUOUS
 10
24.7730345727
 20
19.011842839
 11
24.7750463153
 21
19.0128488059
  0
LINE
  5
31D
100
AcDbEntity
  8
0
100
AcDbLine
 62
7
  6
CONTINUOUS
 10
24.7599920876
 20
19.0048360594
 11
24.7620040213
 21
19.0058419307
  0
LINE
  5
31E
100
AcDbEntity
  8
0
100
AcDbLine
 62
7
  6
CONTINUOUS
 10
24.7208998119
 20
18.9456944234
 11
24.7188878781
 21
18.9467003903
  0
LINE
  5
31F
100
AcDbEntity
  8
0
100
AcDbLine
 62
7
  6
CONTINUOUS
 10
24.7750463153
 20
18.9376817726
 11
24.7730345727
 21
18.9386876439
  0
LINE
  5
320
100
AcDbEntity
  8
0
100
AcDbLine
 62
7
  6
CONTINUOUS
 10
24.7620040213
 20
18.9446885522
 11
24.7599920876
 21
18.9456944234
  0
LINE
  5
321
100
AcDbEntity
  8
0
100
AcDbLine
 62
7
  6
CONTINUOUS
 10
24.7720285103
 20
18.9406647803
 11
24.7700167677
 21
18.9416707472
  0
LINE
  5
322
100
AcDbEntity
  8
0
100
AcDbLine
 62
7
  6
CONTINUOUS
 10
24.7078573267
 20
18.9527012986
 11
24.7058801903
 21
18.9537071698
  0
LINE
  5
323
100
AcDbEntity
  8
0
100
AcDbLine
 62
7
  6
CONTINUOUS
 10
22.9496356509
 20
20.0403165739
 11
22.9466525476
 21
20.0423283164
  0
LINE
  5
324
100
AcDbEntity
  8
0
100
AcDbLine
 62
7
  6
CONTINUOUS
 10
23.7816414667
 20
17.9051843615
 11
23.7826473379
 21
17.9071961996
  0
LINE
  5
325
100
AcDbEntity
  8
0
100
AcDbLine
 62
7
  6
CONTINUOUS
 10
23.7786236617
 20
17.9022012582
 11
23.7796295329
 21
17.9041784424
  0
LINE
  5
326
100
AcDbEntity
  8
0
100
AcDbLine
 62
7
  6
CONTINUOUS
 10
23.7746345915
 20
17.8921766736
 11
23.7756404628
 21
17.8941538578
  0
LINE
  5
327
100
AcDbEntity
  8
0
100
AcDbLine
 62
7
  6
CONTINUOUS
 10
22.9416229523
 20
17.9041784424
 11
22.9436348382
 21
17.9051843615
  0
LINE
  5
328
100
AcDbEntity
  8
0
100
AcDbLine
 62
7
  6
CONTINUOUS
 10
22.9466525476
 20
20.0423283164
 11
22.9446407094
 21
20.0433343789
  0
LINE
  5
329
100
AcDbEntity
  8
0
100
AcDbLine
 62
7
  6
CONTINUOUS
 10
22.9436348382
 20
20.0453461214
 11
22.9416229523
 21
20.0463519927
  0
LINE
  5
32A
100
AcDbEntity
  8
0
100
AcDbLine
 62
7
  6
CONTINUOUS
 10
24.7138929367
 20
18.9477063571
 11
24.7108751317
 21
18.9497181953
  0
LINE
  5
32B
100
AcDbEntity
  8
0
100
AcDbLine
 62
7
  6
CONTINUOUS
 10
24.7700167677
 20
18.9416707472
 11
24.7669989628
 21
18.9436825853
  0
LINE
  5
32C
100
AcDbEntity
  8
0
100
AcDbLine
 62
7
  6
CONTINUOUS
 10
23.2062511729
 20
20.0403165739
 11
23.2032680696
 21
20.0423283164
  0
LINE
  5
32D
100
AcDbEntity
  8
0
100
AcDbLine
 62
7
  6
CONTINUOUS
 10
23.7756404628
 20
20.0563766728
 11
23.7746345915
 21
20.0583538092
  0
LINE
  5
32E
100
AcDbEntity
  8
0
100
AcDbLine
 62
7
  6
CONTINUOUS
 10
23.7826473379
 20
20.0433343789
 11
23.7816414667
 21
20.0453461214
  0
LINE
  5
32F
100
AcDbEntity
  8
0
100
AcDbLine
 62
7
  6
CONTINUOUS
 10
24.3580376317
 20
17.897171615
 11
24.3580376317
 21
17.8991834532
  0
LINE
  5
330
100
AcDbEntity
  8
0
100
AcDbLine
 62
7
  6
CONTINUOUS
 10
24.3580376317
 20
20.0513469341
 11
24.3580376317
 21
20.0533588678
  0
LINE
  5
331
100
AcDbEntity
  8
0
100
AcDbLine
 62
7
  6
CONTINUOUS
 10
24.1004162385
 20
17.8941538578
 11
24.1014221097
 21
17.897171615
  0
LINE
  5
332
100
AcDbEntity
  8
0
100
AcDbLine
 62
7
  6
CONTINUOUS
 10
23.7766465252
 20
17.8991834532
 11
23.7786236617
 21
17.9022012582
  0
LINE
  5
333
100
AcDbEntity
  8
0
100
AcDbLine
 62
7
  6
CONTINUOUS
 10
23.5290496209
 20
17.9082021187
 11
23.531026853
 21
17.9102140046
  0
LINE
  5
334
100
AcDbEntity
  8
0
100
AcDbLine
 62
7
  6
CONTINUOUS
 10
24.7118811942
 20
19.0008122876
 11
24.7138929367
 21
19.0028242213
  0
LINE
  5
335
100
AcDbEntity
  8
DEFAULT_2
100
AcDbLine
 62
8
  6
HIDDEN
 10
23.5049495324
 20
19.6685900297
 11
23.1899889024
 21
19.6685900297
  0
LINE
  5
336
100
AcDbEntity
  8
0
100
AcDbLine
 62
7
  6
CONTINUOUS
 10
24.704874319
 20
18.9567249748
 11
24.7028623853
 21
18.958736813
  0
LINE
  5
337
100
AcDbEntity
  8
0
100
AcDbLine
 62
7
  6
CONTINUOUS
 10
23.5220081397
 20
20.0493351916
 11
23.5200310032
 21
20.0513469341
  0
LINE
  5
338
100
AcDbEntity
  8
0
100
AcDbLine
 62
7
  6
CONTINUOUS
 10
24.1014221097
 20
20.0533588678
 11
24.1004162385
 21
20.0563766728
  0
LINE
  5
339
100
AcDbEntity
  8
0
100
AcDbLine
 62
7
  6
CONTINUOUS
 10
24.1044053086
 20
20.0463519927
 11
24.1034340435
 21
20.0493351916
  0
LINE
  5
33A
100
AcDbEntity
  8
0
100
AcDbLine
 62
7
  6
CONTINUOUS
 10
24.4532537385
 20
20.0533588678
 11
24.4532537385
 21
20.0513469341
  0
LINE
  5
33B
100
AcDbEntity
  8
0
100
AcDbLine
 62
7
  6
CONTINUOUS
 10
24.4532537385
 20
17.8991834532
 11
24.4532537385
 21
17.897171615
  0
LINE
  5
33C
100
AcDbEntity
  8
0
100
AcDbLine
 62
7
  6
CONTINUOUS
 10
24.4542598009
 20
20.0583538092
 11
24.4542598009
 21
20.0563766728
  0
LINE
  5
33D
100
AcDbEntity
  8
0
100
AcDbLine
 62
7
  6
CONTINUOUS
 10
24.4542598009
 20
17.8941538578
 11
24.4542598009
 21
17.8921766736
  0
LINE
  5
33E
100
AcDbEntity
  8
0
100
AcDbLine
 62
7
  6
CONTINUOUS
 10
24.7028623853
 20
18.9917936699
 11
24.704874319
 21
18.9948114749
  0
LINE
  5
33F
100
AcDbEntity
  8
0
100
AcDbLine
 62
7
  6
CONTINUOUS
 10
23.7856651429
 20
17.9082021187
 11
23.7876422793
 21
17.9102140046
  0
LINE
  5
340
100
AcDbEntity
  8
0
100
AcDbLine
 62
7
  6
CONTINUOUS
 10
24.7669989628
 20
19.0068478976
 11
24.7690108965
 21
19.0088597357
  0
LINE
  5
341
100
AcDbEntity
  8
0
100
AcDbLine
 62
7
  6
CONTINUOUS
 10
23.1982384264
 20
17.9041784424
 11
23.2002502646
 21
17.9051843615
  0
LINE
  5
342
100
AcDbEntity
  8
0
100
AcDbLine
 62
7
  6
CONTINUOUS
 10
22.9516475846
 20
17.9102140046
 11
22.954665294
 21
17.9112199236
  0
LINE
  5
343
100
AcDbEntity
  8
0
100
AcDbLine
 62
7
  6
CONTINUOUS
 10
22.9446407094
 20
17.9071961996
 11
22.9476585144
 21
17.9082021187
  0
LINE
  5
344
100
AcDbEntity
  8
0
100
AcDbLine
 62
7
  6
CONTINUOUS
 10
24.7008506428
 20
19.7436027137
 11
24.668765051
 21
19.7436027137
  0
LINE
  5
345
100
AcDbEntity
  8
0
100
AcDbLine
 62
7
  6
CONTINUOUS
 10
22.7230939781
 20
19.7436027137
 11
22.6910430403
 21
19.7436027137
  0
LINE
  5
346
100
AcDbEntity
  8
0
100
AcDbLine
 62
7
  6
CONTINUOUS
 10
24.6637701096
 20
19.7456146474
 11
24.6617581759
 21
19.7456146474
  0
LINE
  5
347
100
AcDbEntity
  8
0
100
AcDbLine
 62
7
  6
CONTINUOUS
 10
22.7301354594
 20
19.7456146474
 11
22.7281236213
 21
19.7456146474
  0
LINE
  5
348
100
AcDbEntity
  8
DEFAULT_2
100
AcDbLine
 62
8
  6
HIDDEN
 10
23.1899889024
 20
19.8040231006
 11
23.5049495324
 21
19.8040231006
  0
LINE
  5
349
100
AcDbEntity
  8
0
100
AcDbLine
 62
7
  6
CONTINUOUS
 10
22.954665294
 20
20.0393105114
 11
22.9516475846
 21
20.0403165739
  0
LINE
  5
34A
100
AcDbEntity
  8
0
100
AcDbLine
 62
7
  6
CONTINUOUS
 10
23.2032680696
 20
20.0423283164
 11
23.2012562314
 21
20.0433343789
  0
LINE
  5
34B
100
AcDbEntity
  8
0
100
AcDbLine
 62
7
  6
CONTINUOUS
 10
23.2002502646
 20
20.0453461214
 11
23.1982384264
 21
20.0463519927
  0
LINE
  5
34C
100
AcDbEntity
  8
0
100
AcDbLine
 62
7
  6
CONTINUOUS
 10
23.531026853
 20
20.0403165739
 11
23.5280437497
 21
20.0423283164
  0
LINE
  5
34D
100
AcDbEntity
  8
0
100
AcDbLine
 62
7
  6
CONTINUOUS
 10
24.7780295142
 20
18.9326521295
 11
24.7760175804
 21
18.9346639676
  0
LINE
  5
34E
100
AcDbEntity
  8
0
100
AcDbLine
 62
7
  6
CONTINUOUS
 10
23.7786236617
 20
20.0493351916
 11
23.7766465252
 21
20.0513469341
  0
LINE
  5
34F
100
AcDbEntity
  8
0
100
AcDbLine
 62
7
  6
CONTINUOUS
 10
24.1034340435
 20
17.9022012582
 11
24.1044053086
 21
17.9041784424
  0
LINE
  5
350
100
AcDbEntity
  8
0
100
AcDbLine
 62
7
  6
CONTINUOUS
 10
24.1064170512
 20
17.9051843615
 11
24.1074229224
 21
17.9071961996
  0
LINE
  5
351
100
AcDbEntity
  8
0
100
AcDbLine
 62
7
  6
CONTINUOUS
 10
24.704874319
 20
18.9948114749
 11
24.7058801903
 21
18.996823313
  0
LINE
  5
352
100
AcDbEntity
  8
0
100
AcDbLine
 62
7
  6
CONTINUOUS
 10
24.7008506428
 20
18.9847868903
 11
24.701856514
 21
18.9867987285
  0
LINE
  5
353
100
AcDbEntity
  8
0
100
AcDbLine
 62
7
  6
CONTINUOUS
 10
24.7078573267
 20
18.9978291843
 11
24.7088633892
 21
18.999841118
  0
LINE
  5
354
100
AcDbEntity
  8
0
100
AcDbLine
 62
7
  6
CONTINUOUS
 10
24.0994103672
 20
17.8921766736
 11
24.1004162385
 21
17.8941538578
  0
LINE
  5
355
100
AcDbEntity
  8
0
100
AcDbLine
 62
7
  6
CONTINUOUS
 10
24.7760175804
 20
19.014860644
 11
24.7780295142
 21
19.0178783534
  0
LINE
  5
356
100
AcDbEntity
  8
0
100
AcDbLine
 62
7
  6
CONTINUOUS
 10
23.5230141065
 20
17.9041784424
 11
23.5250259447
 21
17.9051843615
  0
LINE
  5
357
100
AcDbEntity
  8
0
100
AcDbLine
 62
7
  6
CONTINUOUS
 10
23.208263011
 20
17.9102140046
 11
23.211280816
 21
17.9112199236
  0
LINE
  5
358
100
AcDbEntity
  8
0
100
AcDbLine
 62
7
  6
CONTINUOUS
 10
23.2012562314
 20
17.9071961996
 11
23.2042739408
 21
17.9082021187
  0
LINE
  5
359
100
AcDbEntity
  8
0
100
AcDbLine
 62
7
  6
CONTINUOUS
 10
23.211280816
 20
20.0393105114
 11
23.208263011
 21
20.0403165739
  0
LINE
  5
35A
100
AcDbEntity
  8
0
100
AcDbLine
 62
7
  6
CONTINUOUS
 10
23.5280437497
 20
20.0423283164
 11
23.5260319115
 21
20.0433343789
  0
LINE
  5
35B
100
AcDbEntity
  8
0
100
AcDbLine
 62
7
  6
CONTINUOUS
 10
23.5250259447
 20
20.0453461214
 11
23.5230141065
 21
20.0463519927
  0
LINE
  5
35C
100
AcDbEntity
  8
0
100
AcDbLine
 62
7
  6
CONTINUOUS
 10
24.1074229224
 20
20.0433343789
 11
24.1064170512
 21
20.0453461214
  0
LINE
  5
35D
100
AcDbEntity
  8
0
100
AcDbLine
 62
7
  6
CONTINUOUS
 10
24.701856514
 20
18.9637317544
 11
24.7008506428
 21
18.9657435925
  0
LINE
  5
35E
100
AcDbEntity
  8
0
100
AcDbLine
 62
7
  6
CONTINUOUS
 10
24.7088633892
 20
18.9506893648
 11
24.7078573267
 21
18.9527012986
  0
LINE
  5
35F
100
AcDbEntity
  8
0
100
AcDbLine
 62
7
  6
CONTINUOUS
 10
24.6497217532
 20
17.9703614641
 11
24.6497217532
 21
18.1888904382
  0
LINE
  5
360
100
AcDbEntity
  8
0
100
AcDbLine
 62
7
  6
CONTINUOUS
 10
24.6497217532
 20
19.7616399491
 11
24.6497217532
 21
19.9801690666
  0
LINE
  5
361
100
AcDbEntity
  8
0
100
AcDbLine
 62
7
  6
CONTINUOUS
 10
24.6507276244
 20
18.1918735415
 11
24.6507276244
 21
18.1938854274
  0
LINE
  5
362
100
AcDbEntity
  8
0
100
AcDbLine
 62
7
  6
CONTINUOUS
 10
24.6507276244
 20
19.7566450076
 11
24.6507276244
 21
19.7586569414
  0
LINE
  5
363
100
AcDbEntity
  8
0
100
AcDbLine
 62
7
  6
CONTINUOUS
 10
24.7008506428
 20
18.9657435925
 11
24.7008506428
 21
18.9847868903
  0
LINE
  5
364
100
AcDbEntity
  8
0
100
AcDbLine
 62
7
  6
CONTINUOUS
 10
24.7028623853
 20
18.9898165335
 11
24.7028623853
 21
18.9917936699
  0
LINE
  5
365
100
AcDbEntity
  8
0
100
AcDbLine
 62
7
  6
CONTINUOUS
 10
24.7028623853
 20
18.958736813
 11
24.7028623853
 21
18.9607139494
  0
LINE
  5
366
100
AcDbEntity
  8
0
100
AcDbLine
 62
7
  6
CONTINUOUS
 10
24.701856514
 20
18.9867987285
 11
24.7028623853
 21
18.9898165335
  0
LINE
  5
367
100
AcDbEntity
  8
0
100
AcDbLine
 62
7
  6
CONTINUOUS
 10
24.3570317604
 20
17.8941538578
 11
24.3580376317
 21
17.897171615
  0
LINE
  5
368
100
AcDbEntity
  8
0
100
AcDbLine
 62
7
  6
CONTINUOUS
 10
24.7780295142
 20
19.0198555854
 11
24.7790353854
 21
19.0228733904
  0
LINE
  5
369
100
AcDbEntity
  8
0
100
AcDbLine
 62
7
  6
CONTINUOUS
 10
24.7750463153
 20
19.0128488059
 11
24.7760175804
 21
19.014860644
  0
LINE
  5
36A
100
AcDbEntity
  8
0
100
AcDbLine
 62
7
  6
CONTINUOUS
 10
24.7720285103
 20
19.0098310009
 11
24.7730345727
 21
19.011842839
  0
LINE
  5
36B
100
AcDbEntity
  8
0
100
AcDbLine
 62
7
  6
CONTINUOUS
 10
24.1014221097
 20
17.8991834532
 11
24.1034340435
 21
17.9022012582
  0
LINE
  5
36C
100
AcDbEntity
  8
0
100
AcDbLine
 62
7
  6
CONTINUOUS
 10
23.7796295329
 20
17.9041784424
 11
23.7816414667
 21
17.9051843615
  0
LINE
  5
36D
100
AcDbEntity
  8
0
100
AcDbLine
 62
7
  6
CONTINUOUS
 10
23.5330386911
 20
17.9102140046
 11
23.5360564961
 21
17.9112199236
  0
LINE
  5
36E
100
AcDbEntity
  8
0
100
AcDbLine
 62
7
  6
CONTINUOUS
 10
23.5260319115
 20
17.9071961996
 11
23.5290496209
 21
17.9082021187
  0
LINE
  5
36F
100
AcDbEntity
  8
0
100
AcDbLine
 62
7
  6
CONTINUOUS
 10
24.7208998119
 20
18.2109167915
 11
24.7309243008
 21
18.2139345965
  0
LINE
  5
370
100
AcDbEntity
  8
0
100
AcDbLine
 62
7
  6
CONTINUOUS
 10
22.6910430403
 20
19.7436027137
 11
22.670993919
 21
19.7396136435
  0
LINE
  5
371
100
AcDbEntity
  8
0
100
AcDbLine
 62
7
  6
CONTINUOUS
 10
24.7208998119
 20
19.7396136435
 11
24.7008506428
 21
19.7436027137
  0
LINE
  5
372
100
AcDbEntity
  8
0
100
AcDbLine
 62
7
  6
CONTINUOUS
 10
24.7309243008
 20
19.7365958385
 11
24.7208998119
 21
19.7396136435
  0
LINE
  5
373
100
AcDbEntity
  8
0
100
AcDbLine
 62
7
  6
CONTINUOUS
 10
23.5360564961
 20
20.0393105114
 11
23.5330386911
 21
20.0403165739
  0
LINE
  5
374
100
AcDbEntity
  8
0
100
AcDbLine
 62
7
  6
CONTINUOUS
 10
23.7846592716
 20
20.0423283164
 11
23.7826473379
 21
20.0433343789
  0
LINE
  5
375
100
AcDbEntity
  8
0
100
AcDbLine
 62
7
  6
CONTINUOUS
 10
23.7816414667
 20
20.0453461214
 11
23.7796295329
 21
20.0463519927
  0
LINE
  5
376
100
AcDbEntity
  8
0
100
AcDbLine
 62
7
  6
CONTINUOUS
 10
23.7876422793
 20
20.0403165739
 11
23.7846592716
 21
20.0423283164
  0
LINE
  5
377
100
AcDbEntity
  8
0
100
AcDbLine
 62
7
  6
CONTINUOUS
 10
24.7730345727
 20
18.9386876439
 11
24.7720285103
 21
18.9406647803
  0
LINE
  5
378
100
AcDbEntity
  8
0
100
AcDbLine
 62
7
  6
CONTINUOUS
 10
24.7028623853
 20
18.9607139494
 11
24.701856514
 21
18.9637317544
  0
LINE
  5
379
100
AcDbEntity
  8
0
100
AcDbLine
 62
7
  6
CONTINUOUS
 10
24.7058801903
 20
18.9537071698
 11
24.704874319
 21
18.9567249748
  0
LINE
  5
37A
100
AcDbEntity
  8
0
100
AcDbLine
 62
7
  6
CONTINUOUS
 10
24.3580376317
 20
20.0533588678
 11
24.3570317604
 21
20.0563766728
  0
LINE
  5
37B
100
AcDbEntity
  8
0
100
AcDbLine
 62
7
  6
CONTINUOUS
 10
24.7790353854
 20
18.9276571881
 11
24.7780295142
 21
18.9306748974
  0
LINE
  5
37C
100
AcDbEntity
  8
0
100
AcDbLine
 62
7
  6
CONTINUOUS
 10
24.3610206394
 20
20.0463519927
 11
24.3600493742
 21
20.0493351916
  0
LINE
  5
37D
100
AcDbEntity
  8
0
100
AcDbLine
 62
7
  6
CONTINUOUS
 10
24.7760175804
 20
18.9346639676
 11
24.7750463153
 21
18.9376817726
  0
LINE
  5
37E
100
AcDbEntity
  8
0
100
AcDbLine
 62
7
  6
CONTINUOUS
 10
24.7780295142
 20
18.9306748974
 11
24.7780295142
 21
18.9326521295
  0
LINE
  5
37F
100
AcDbEntity
  8
0
100
AcDbLine
 62
7
  6
CONTINUOUS
 10
24.7780295142
 20
19.0178783534
 11
24.7780295142
 21
19.0198555854
  0
LINE
  5
380
100
AcDbEntity
  8
0
100
AcDbLine
 62
7
  6
CONTINUOUS
 10
24.7790353854
 20
18.2861184787
 11
24.7790353854
 21
18.9276571881
  0
LINE
  5
381
100
AcDbEntity
  8
0
100
AcDbLine
 62
7
  6
CONTINUOUS
 10
24.7790353854
 20
19.0228733904
 11
24.7790353854
 21
19.6644119086
  0
LINE
  5
382
100
AcDbEntity
  8
0
100
AcDbLine
 62
7
  6
CONTINUOUS
 10
24.645732683
 20
17.950312295
 11
24.6497217532
 21
17.9703614641
  0
LINE
  5
383
100
AcDbEntity
  8
0
100
AcDbLine
 62
7
  6
CONTINUOUS
 10
24.3600493742
 20
17.9022012582
 11
24.3610206394
 21
17.9041784424
  0
LINE
  5
384
100
AcDbEntity
  8
0
100
AcDbLine
 62
7
  6
CONTINUOUS
 10
24.3630325731
 20
17.9051843615
 11
24.3640384444
 21
17.9071961996
  0
LINE
  5
385
100
AcDbEntity
  8
0
100
AcDbLine
 62
7
  6
CONTINUOUS
 10
24.356025698
 20
17.8921766736
 11
24.3570317604
 21
17.8941538578
  0
LINE
  5
386
100
AcDbEntity
  8
0
100
AcDbLine
 62
7
  6
CONTINUOUS
 10
24.1104407274
 20
17.9082021187
 11
24.1124526611
 21
17.9102140046
  0
LINE
  5
387
100
AcDbEntity
  8
0
100
AcDbLine
 62
7
  6
CONTINUOUS
 10
24.6667531173
 20
18.2059218501
 11
24.668765051
 21
18.2069277692
  0
LINE
  5
388
100
AcDbEntity
  8
0
100
AcDbLine
 62
7
  6
CONTINUOUS
 10
24.6537454294
 20
18.1989150227
 11
24.6557573632
 21
18.1998862879
  0
LINE
  5
389
100
AcDbEntity
  8
0
100
AcDbLine
 62
7
  6
CONTINUOUS
 10
24.7309243008
 20
18.2139345965
 11
24.7399429185
 21
18.2179582728
  0
LINE
  5
38A
100
AcDbEntity
  8
0
100
AcDbLine
 62
7
  6
CONTINUOUS
 10
24.6637701096
 20
18.204915931
 11
24.6667531173
 21
18.2059218501
  0
LINE
  5
38B
100
AcDbEntity
  8
0
100
AcDbLine
 62
7
  6
CONTINUOUS
 10
24.6567632344
 20
18.201898126
 11
24.6597462421
 21
18.2029040451
  0
LINE
  5
38C
100
AcDbEntity
  8
0
100
AcDbLine
 62
7
  6
CONTINUOUS
 10
23.7896542131
 20
17.9102140046
 11
23.7926718269
 21
17.9112199236
  0
LINE
  5
38D
100
AcDbEntity
  8
0
100
AcDbLine
 62
7
  6
CONTINUOUS
 10
23.7826473379
 20
17.9071961996
 11
23.7856651429
 21
17.9082021187
  0
LINE
  5
38E
100
AcDbEntity
  8
0
100
AcDbLine
 62
7
  6
CONTINUOUS
 10
24.4372282456
 20
20.0393105114
 11
24.3740631246
 21
20.0393105114
  0
LINE
  5
38F
100
AcDbEntity
  8
0
100
AcDbLine
 62
7
  6
CONTINUOUS
 10
24.1806129148
 20
20.0393105114
 11
24.1174476026
 21
20.0393105114
  0
LINE
  5
390
100
AcDbEntity
  8
0
100
AcDbLine
 62
7
  6
CONTINUOUS
 10
23.8558371392
 20
20.0393105114
 11
23.7926718269
 21
20.0393105114
  0
LINE
  5
391
100
AcDbEntity
  8
0
100
AcDbLine
 62
7
  6
CONTINUOUS
 10
23.5992217128
 20
20.0393105114
 11
23.5360564961
 21
20.0393105114
  0
LINE
  5
392
100
AcDbEntity
  8
0
100
AcDbLine
 62
7
  6
CONTINUOUS
 10
23.274411331
 20
20.0393105114
 11
23.211280816
 21
20.0393105114
  0
LINE
  5
393
100
AcDbEntity
  8
0
100
AcDbLine
 62
7
  6
CONTINUOUS
 10
23.0177959046
 20
20.0393105114
 11
22.954665294
 21
20.0393105114
  0
LINE
  5
394
100
AcDbEntity
  8
0
100
AcDbLine
 62
7
  6
CONTINUOUS
 10
24.4422233783
 20
20.0403165739
 11
24.4402114445
 21
20.0403165739
  0
LINE
  5
395
100
AcDbEntity
  8
0
100
AcDbLine
 62
7
  6
CONTINUOUS
 10
24.3710453196
 20
20.0403165739
 11
24.3690681831
 21
20.0403165739
  0
LINE
  5
396
100
AcDbEntity
  8
0
100
AcDbLine
 62
7
  6
CONTINUOUS
 10
24.1856078563
 20
20.0403165739
 11
24.1835959225
 21
20.0403165739
  0
LINE
  5
397
100
AcDbEntity
  8
0
100
AcDbLine
 62
7
  6
CONTINUOUS
 10
24.1144297976
 20
20.0403165739
 11
24.1124526611
 21
20.0403165739
  0
LINE
  5
398
100
AcDbEntity
  8
0
100
AcDbLine
 62
7
  6
CONTINUOUS
 10
23.8608320806
 20
20.0403165739
 11
23.858820338
 21
20.0403165739
  0
LINE
  5
399
100
AcDbEntity
  8
0
100
AcDbLine
 62
7
  6
CONTINUOUS
 10
23.7896542131
 20
20.0403165739
 11
23.7876422793
 21
20.0403165739
  0
LINE
  5
39A
100
AcDbEntity
  8
0
100
AcDbLine
 62
7
  6
CONTINUOUS
 10
23.6042166542
 20
20.0403165739
 11
23.6022048161
 21
20.0403165739
  0
LINE
  5
39B
100
AcDbEntity
  8
0
100
AcDbLine
 62
7
  6
CONTINUOUS
 10
23.5330386911
 20
20.0403165739
 11
23.531026853
 21
20.0403165739
  0
LINE
  5
39C
100
AcDbEntity
  8
0
100
AcDbLine
 62
7
  6
CONTINUOUS
 10
23.2794409741
 20
20.0403165739
 11
23.277429136
 21
20.0403165739
  0
LINE
  5
39D
100
AcDbEntity
  8
0
100
AcDbLine
 62
7
  6
CONTINUOUS
 10
23.208263011
 20
20.0403165739
 11
23.2062511729
 21
20.0403165739
  0
LINE
  5
39E
100
AcDbEntity
  8
0
100
AcDbLine
 62
7
  6
CONTINUOUS
 10
23.0228255477
 20
20.0403165739
 11
23.0208137096
 21
20.0403165739
  0
LINE
  5
39F
100
AcDbEntity
  8
0
100
AcDbLine
 62
7
  6
CONTINUOUS
 10
22.9516475846
 20
20.0403165739
 11
22.9496356509
 21
20.0403165739
  0
LINE
  5
3A0
100
AcDbEntity
  8
0
100
AcDbLine
 62
7
  6
CONTINUOUS
 10
24.5705309481
 20
20.0583538092
 11
24.4542598009
 21
20.0583538092
  0
LINE
  5
3A1
100
AcDbEntity
  8
0
100
AcDbLine
 62
7
  6
CONTINUOUS
 10
24.356025698
 20
20.0583538092
 11
24.1986501502
 21
20.0583538092
  0
LINE
  5
3A2
100
AcDbEntity
  8
0
100
AcDbLine
 62
7
  6
CONTINUOUS
 10
24.1004162385
 20
20.0583538092
 11
23.8728685033
 21
20.0583538092
  0
LINE
  5
3A3
100
AcDbEntity
  8
0
100
AcDbLine
 62
7
  6
CONTINUOUS
 10
23.7746345915
 20
20.0583538092
 11
23.6172590437
 21
20.0583538092
  0
LINE
  5
3A4
100
AcDbEntity
  8
0
100
AcDbLine
 62
7
  6
CONTINUOUS
 10
23.5190250364
 20
20.0583538092
 11
23.2924833636
 21
20.0583538092
  0
LINE
  5
3A5
100
AcDbEntity
  8
0
100
AcDbLine
 62
7
  6
CONTINUOUS
 10
23.193243485
 20
20.0583538092
 11
23.0358679372
 21
20.0583538092
  0
LINE
  5
3A6
100
AcDbEntity
  8
0
100
AcDbLine
 62
7
  6
CONTINUOUS
 10
22.9376339299
 20
20.0583538092
 11
22.8213279377
 21
20.0583538092
  0
LINE
  5
3A7
100
AcDbEntity
  8
0
100
AcDbLine
 62
7
  6
CONTINUOUS
 10
23.7926718269
 20
20.0393105114
 11
23.7896542131
 21
20.0403165739
  0
LINE
  5
3A8
100
AcDbEntity
  8
0
100
AcDbLine
 62
7
  6
CONTINUOUS
 10
24.6667531173
 20
19.744608585
 11
24.6637701096
 21
19.7456146474
  0
LINE
  5
3A9
100
AcDbEntity
  8
0
100
AcDbLine
 62
7
  6
CONTINUOUS
 10
24.7399429185
 20
19.7325721623
 11
24.7309243008
 21
19.7365958385
  0
LINE
  5
3AA
100
AcDbEntity
  8
0
100
AcDbLine
 62
7
  6
CONTINUOUS
 10
24.668765051
 20
19.7436027137
 11
24.6667531173
 21
19.744608585
  0
LINE
  5
3AB
100
AcDbEntity
  8
0
100
AcDbLine
 62
7
  6
CONTINUOUS
 10
24.6557573632
 20
19.7506095889
 11
24.6537454294
 21
19.7516154601
  0
LINE
  5
3AC
100
AcDbEntity
  8
0
100
AcDbLine
 62
7
  6
CONTINUOUS
 10
24.6587403709
 20
19.74762639
 11
24.6567632344
 21
19.7486322612
  0
LINE
  5
3AD
100
AcDbEntity
  8
0
100
AcDbLine
 62
7
  6
CONTINUOUS
 10
24.1124526611
 20
20.0403165739
 11
24.1094348561
 21
20.0423283164
  0
LINE
  5
3AE
100
AcDbEntity
  8
0
100
AcDbLine
 62
7
  6
CONTINUOUS
 10
24.1034340435
 20
20.0493351916
 11
24.1014221097
 21
20.0513469341
  0
LINE
  5
3AF
100
AcDbEntity
  8
0
100
AcDbLine
 62
7
  6
CONTINUOUS
 10
24.3570317604
 20
20.0563766728
 11
24.356025698
 21
20.0583538092
  0
LINE
  5
3B0
100
AcDbEntity
  8
0
100
AcDbLine
 62
7
  6
CONTINUOUS
 10
24.3640384444
 20
20.0433343789
 11
24.3630325731
 21
20.0453461214
  0
LINE
  5
3B1
100
AcDbEntity
  8
0
100
AcDbLine
 62
7
  6
CONTINUOUS
 10
24.6497217532
 20
19.9801690666
 11
24.645732683
 21
20.0002182357
  0
LINE
  5
3B2
100
AcDbEntity
  8
0
100
AcDbLine
 62
7
  6
CONTINUOUS
 10
24.7790353854
 20
19.6644119086
 11
24.7780295142
 21
19.6744365887
  0
LINE
  5
3B3
100
AcDbEntity
  8
0
100
AcDbLine
 62
7
  6
CONTINUOUS
 10
24.7780295142
 20
18.2760938941
 11
24.7790353854
 21
18.2861184787
  0
LINE
  5
3B4
100
AcDbEntity
  8
0
100
AcDbLine
 62
7
  6
CONTINUOUS
 10
24.7760175804
 20
18.2660693096
 11
24.7780295142
 21
18.2760938941
  0
LINE
  5
3B5
100
AcDbEntity
  8
0
100
AcDbLine
 62
7
  6
CONTINUOUS
 10
24.7730345727
 20
18.256044725
 11
24.7760175804
 21
18.2660693096
  0
LINE
  5
3B6
100
AcDbEntity
  8
0
100
AcDbLine
 62
7
  6
CONTINUOUS
 10
24.642714878
 20
17.9402877582
 11
24.645732683
 21
17.950312295
  0
LINE
  5
3B7
100
AcDbEntity
  8
0
100
AcDbLine
 62
7
  6
CONTINUOUS
 10
24.6497217532
 20
18.1888904382
 11
24.6507276244
 21
18.1918735415
  0
LINE
  5
3B8
100
AcDbEntity
  8
0
100
AcDbLine
 62
7
  6
CONTINUOUS
 10
24.6527395582
 20
18.1969031846
 11
24.6537454294
 21
18.1989150227
  0
LINE
  5
3B9
100
AcDbEntity
  8
0
100
AcDbLine
 62
7
  6
CONTINUOUS
 10
24.6557573632
 20
18.1998862879
 11
24.6567632344
 21
18.201898126
  0
LINE
  5
3BA
100
AcDbEntity
  8
0
100
AcDbLine
 62
7
  6
CONTINUOUS
 10
24.3580376317
 20
17.8991834532
 11
24.3600493742
 21
17.9022012582
  0
LINE
  5
3BB
100
AcDbEntity
  8
0
100
AcDbLine
 62
7
  6
CONTINUOUS
 10
24.6507276244
 20
18.1938854274
 11
24.6527395582
 21
18.1969031846
  0
LINE
  5
3BC
100
AcDbEntity
  8
0
100
AcDbLine
 62
7
  6
CONTINUOUS
 10
24.6597462421
 20
18.2029040451
 11
24.6617581759
 21
18.204915931
  0
LINE
  5
3BD
100
AcDbEntity
  8
0
100
AcDbLine
 62
7
  6
CONTINUOUS
 10
24.3670562494
 20
17.9082021187
 11
24.3690681831
 21
17.9102140046
  0
LINE
  5
3BE
100
AcDbEntity
  8
0
100
AcDbLine
 62
7
  6
CONTINUOUS
 10
24.7399429185
 20
18.2179582728
 11
24.7479556649
 21
18.2239591333
  0
LINE
  5
3BF
100
AcDbEntity
  8
0
100
AcDbLine
 62
7
  6
CONTINUOUS
 10
24.1044053086
 20
17.9041784424
 11
24.1064170512
 21
17.9051843615
  0
LINE
  5
3C0
100
AcDbEntity
  8
0
100
AcDbLine
 62
7
  6
CONTINUOUS
 10
24.1144297976
 20
17.9102140046
 11
24.1174476026
 21
17.9112199236
  0
LINE
  5
3C1
100
AcDbEntity
  8
0
100
AcDbLine
 62
7
  6
CONTINUOUS
 10
24.1074229224
 20
17.9071961996
 11
24.1104407274
 21
17.9082021187
  0
LINE
  5
3C2
100
AcDbEntity
  8
0
100
AcDbLine
 62
7
  6
CONTINUOUS
 10
24.3710453196
 20
17.9102140046
 11
24.3740631246
 21
17.9112199236
  0
LINE
  5
3C3
100
AcDbEntity
  8
0
100
AcDbLine
 62
7
  6
CONTINUOUS
 10
24.3640384444
 20
17.9071961996
 11
24.3670562494
 21
17.9082021187
  0
LINE
  5
3C4
100
AcDbEntity
  8
0
100
AcDbLine
 62
7
  6
CONTINUOUS
 10
22.8113033531
 20
20.057347938
 11
22.8012788164
 21
20.0553708016
  0
LINE
  5
3C5
100
AcDbEntity
  8
0
100
AcDbLine
 62
7
  6
CONTINUOUS
 10
22.8213279377
 20
20.0583538092
 11
22.8113033531
 21
20.057347938
  0
LINE
  5
3C6
100
AcDbEntity
  8
0
100
AcDbLine
 62
7
  6
CONTINUOUS
 10
24.5805556282
 20
20.057347938
 11
24.5705309481
 21
20.0583538092
  0
LINE
  5
3C7
100
AcDbEntity
  8
0
100
AcDbLine
 62
7
  6
CONTINUOUS
 10
24.5905801172
 20
20.0553708016
 11
24.5805556282
 21
20.057347938
  0
LINE
  5
3C8
100
AcDbEntity
  8
0
100
AcDbLine
 62
7
  6
CONTINUOUS
 10
24.1174476026
 20
20.0393105114
 11
24.1144297976
 21
20.0403165739
  0
LINE
  5
3C9
100
AcDbEntity
  8
0
100
AcDbLine
 62
7
  6
CONTINUOUS
 10
24.3740631246
 20
20.0393105114
 11
24.3710453196
 21
20.0403165739
  0
LINE
  5
3CA
100
AcDbEntity
  8
0
100
AcDbLine
 62
7
  6
CONTINUOUS
 10
24.1094348561
 20
20.0423283164
 11
24.1074229224
 21
20.0433343789
  0
LINE
  5
3CB
100
AcDbEntity
  8
0
100
AcDbLine
 62
7
  6
CONTINUOUS
 10
24.1064170512
 20
20.0453461214
 11
24.1044053086
 21
20.0463519927
  0
LINE
  5
3CC
100
AcDbEntity
  8
0
100
AcDbLine
 62
7
  6
CONTINUOUS
 10
24.6617581759
 20
19.7456146474
 11
24.6587403709
 21
19.74762639
  0
LINE
  5
3CD
100
AcDbEntity
  8
0
100
AcDbLine
 62
7
  6
CONTINUOUS
 10
24.7479556649
 20
19.7265713496
 11
24.7399429185
 21
19.7325721623
  0
LINE
  5
3CE
100
AcDbEntity
  8
0
100
AcDbLine
 62
7
  6
CONTINUOUS
 10
24.6527395582
 20
19.7546332651
 11
24.6507276244
 21
19.7566450076
  0
LINE
  5
3CF
100
AcDbEntity
  8
0
100
AcDbLine
 62
7
  6
CONTINUOUS
 10
24.3600493742
 20
20.0493351916
 11
24.3580376317
 21
20.0513469341
  0
LINE
  5
3D0
100
AcDbEntity
  8
0
100
AcDbLine
 62
7
  6
CONTINUOUS
 10
24.6567632344
 20
19.7486322612
 11
24.6557573632
 21
19.7506095889
  0
LINE
  5
3D1
100
AcDbEntity
  8
0
100
AcDbLine
 62
7
  6
CONTINUOUS
 10
24.6507276244
 20
19.7586569414
 11
24.6497217532
 21
19.7616399491
  0
LINE
  5
3D2
100
AcDbEntity
  8
0
100
AcDbLine
 62
7
  6
CONTINUOUS
 10
24.6537454294
 20
19.7516154601
 11
24.6527395582
 21
19.7546332651
  0
LINE
  5
3D3
100
AcDbEntity
  8
0
100
AcDbLine
 62
7
  6
CONTINUOUS
 10
24.645732683
 20
20.0002182357
 11
24.642714878
 21
20.0102427246
  0
LINE
  5
3D4
100
AcDbEntity
  8
0
100
AcDbLine
 62
7
  6
CONTINUOUS
 10
24.7760175804
 20
19.6844610777
 11
24.7730345727
 21
19.6944857578
  0
LINE
  5
3D5
100
AcDbEntity
  8
0
100
AcDbLine
 62
7
  6
CONTINUOUS
 10
24.7780295142
 20
19.6744365887
 11
24.7760175804
 21
19.6844610777
  0
LINE
  5
3D6
100
AcDbEntity
  8
0
100
AcDbLine
 62
7
  6
CONTINUOUS
 10
24.7690108965
 20
18.2470261074
 11
24.7730345727
 21
18.256044725
  0
LINE
  5
3D7
100
AcDbEntity
  8
0
100
AcDbLine
 62
7
  6
CONTINUOUS
 10
24.6386912018
 20
17.9312690927
 11
24.642714878
 21
17.9402877582
  0
LINE
  5
3D8
100
AcDbEntity
  8
0
100
AcDbLine
 62
7
  6
CONTINUOUS
 10
24.7630098926
 20
18.2390133609
 11
24.7690108965
 21
18.2470261074
  0
LINE
  5
3D9
100
AcDbEntity
  8
0
100
AcDbLine
 62
7
  6
CONTINUOUS
 10
24.7559684113
 20
18.2309659606
 11
24.7630098926
 21
18.2390133609
  0
LINE
  5
3DA
100
AcDbEntity
  8
0
100
AcDbLine
 62
7
  6
CONTINUOUS
 10
24.7479556649
 20
18.2239591333
 11
24.7559684113
 21
18.2309659606
  0
LINE
  5
3DB
100
AcDbEntity
  8
0
100
AcDbLine
 62
7
  6
CONTINUOUS
 10
24.3610206394
 20
17.9041784424
 11
24.3630325731
 21
17.9051843615
  0
LINE
  5
3DC
100
AcDbEntity
  8
0
100
AcDbLine
 62
7
  6
CONTINUOUS
 10
24.5905801172
 20
17.8951597769
 11
24.6006047973
 21
17.8981775341
  0
LINE
  5
3DD
100
AcDbEntity
  8
0
100
AcDbLine
 62
7
  6
CONTINUOUS
 10
24.6006047973
 20
20.0523529966
 11
24.5905801172
 21
20.0553708016
  0
LINE
  5
3DE
100
AcDbEntity
  8
0
100
AcDbLine
 62
7
  6
CONTINUOUS
 10
24.3660503781
 20
20.0423283164
 11
24.3640384444
 21
20.0433343789
  0
LINE
  5
3DF
100
AcDbEntity
  8
0
100
AcDbLine
 62
7
  6
CONTINUOUS
 10
24.3630325731
 20
20.0453461214
 11
24.3610206394
 21
20.0463519927
  0
LINE
  5
3E0
100
AcDbEntity
  8
0
100
AcDbLine
 62
7
  6
CONTINUOUS
 10
24.3690681831
 20
20.0403165739
 11
24.3660503781
 21
20.0423283164
  0
LINE
  5
3E1
100
AcDbEntity
  8
0
100
AcDbLine
 62
7
  6
CONTINUOUS
 10
24.7559684113
 20
19.7195644744
 11
24.7479556649
 21
19.7265713496
  0
LINE
  5
3E2
100
AcDbEntity
  8
0
100
AcDbLine
 62
7
  6
CONTINUOUS
 10
24.7630098926
 20
19.7115171219
 11
24.7559684113
 21
19.7195644744
  0
LINE
  5
3E3
100
AcDbEntity
  8
0
100
AcDbLine
 62
7
  6
CONTINUOUS
 10
24.7690108965
 20
19.7035043755
 11
24.7630098926
 21
19.7115171219
  0
LINE
  5
3E4
100
AcDbEntity
  8
0
100
AcDbLine
 62
7
  6
CONTINUOUS
 10
24.7730345727
 20
19.6944857578
 11
24.7690108965
 21
19.7035043755
  0
LINE
  5
3E5
100
AcDbEntity
  8
0
100
AcDbLine
 62
7
  6
CONTINUOUS
 10
24.642714878
 20
20.0102427246
 11
24.6386912018
 21
20.0192613423
  0
LINE
  5
3E6
100
AcDbEntity
  8
0
100
AcDbLine
 62
7
  6
CONTINUOUS
 10
24.6326903891
 20
17.9232563463
 11
24.6386912018
 21
17.9312690927
  0
LINE
  5
3E7
100
AcDbEntity
  8
0
100
AcDbLine
 62
7
  6
CONTINUOUS
 10
24.6256835139
 20
17.915208946
 11
24.6326903891
 21
17.9232563463
  0
LINE
  5
3E8
100
AcDbEntity
  8
0
100
AcDbLine
 62
7
  6
CONTINUOUS
 10
24.6176361614
 20
17.9082021187
 11
24.6256835139
 21
17.915208946
  0
LINE
  5
3E9
100
AcDbEntity
  8
0
100
AcDbLine
 62
7
  6
CONTINUOUS
 10
24.609623415
 20
17.9022012582
 11
24.6176361614
 21
17.9082021187
  0
LINE
  5
3EA
100
AcDbEntity
  8
0
100
AcDbLine
 62
7
  6
CONTINUOUS
 10
24.6006047973
 20
17.8981775341
 11
24.609623415
 21
17.9022012582
  0
LINE
  5
3EB
100
AcDbEntity
  8
0
100
AcDbLine
 62
7
  6
CONTINUOUS
 10
24.609623415
 20
20.0483293203
 11
24.6006047973
 21
20.0523529966
  0
LINE
  5
3EC
100
AcDbEntity
  8
0
100
AcDbLine
 62
7
  6
CONTINUOUS
 10
24.6176361614
 20
20.0423283164
 11
24.609623415
 21
20.0483293203
  0
LINE
  5
3ED
100
AcDbEntity
  8
0
100
AcDbLine
 62
7
  6
CONTINUOUS
 10
24.6256835139
 20
20.0353216325
 11
24.6176361614
 21
20.0423283164
  0
LINE
  5
3EE
100
AcDbEntity
  8
0
100
AcDbLine
 62
7
  6
CONTINUOUS
 10
24.6326903891
 20
20.0272740887
 11
24.6256835139
 21
20.0353216325
  0
LINE
  5
3EF
100
AcDbEntity
  8
0
100
AcDbLine
 62
7
  6
CONTINUOUS
 10
24.6386912018
 20
20.0192613423
 11
24.6326903891
 21
20.0272740887
  0
ARC
  5
3F0
100
AcDbEntity
  8
0
100
AcDbCircle
 62
7
  6
CONTINUOUS
 10
22.7230941473
 20
18.4729848664
 40
0.0495397274
100
AcDbArc
 50
187.4907537457
 51
352.5092462543
  0
ARC
  5
3F1
100
AcDbEntity
  8
0
100
AcDbCircle
 62
7
  6
CONTINUOUS
 10
22.7230941473
 20
18.4921937343
 40
0.0495345454
100
AcDbArc
 50
7.4450296132
 51
172.5549703868
  0
CIRCLE
  5
3F2
100
AcDbEntity
  8
0
100
AcDbCircle
 62
7
  6
CONTINUOUS
 10
22.7230941473
 20
19.4679424068
 40
0.0491338583
  0
CIRCLE
  5
3F3
100
AcDbEntity
  8
0
100
AcDbCircle
 62
7
  6
CONTINUOUS
 10
22.7230941473
 20
19.224536895
 40
0.0151574803
  0
CIRCLE
  5
3F4
100
AcDbEntity
  8
0
100
AcDbCircle
 62
7
  6
CONTINUOUS
 10
22.7230941473
 20
19.1533164225
 40
0.0151574803
  0
CIRCLE
  5
3F5
100
AcDbEntity
  8
0
100
AcDbCircle
 62
7
  6
CONTINUOUS
 10
22.7230941473
 20
19.0820959501
 40
0.0151574803
  0
CIRCLE
  5
3F6
100
AcDbEntity
  8
0
100
AcDbCircle
 62
7
  6
CONTINUOUS
 10
22.7230941473
 20
19.0108754777
 40
0.0151574803
  0
CIRCLE
  5
3F7
100
AcDbEntity
  8
0
100
AcDbCircle
 62
7
  6
CONTINUOUS
 10
22.7230941473
 20
19.2957573674
 40
0.0151574803
  0
CIRCLE
  5
3F8
100
AcDbEntity
  8
0
100
AcDbCircle
 62
7
  6
CONTINUOUS
 10
22.7230941473
 20
18.7259935879
 40
0.0151574803
  0
CIRCLE
  5
3F9
100
AcDbEntity
  8
0
100
AcDbCircle
 62
7
  6
CONTINUOUS
 10
22.7230941473
 20
18.7972140603
 40
0.0151574803
  0
CIRCLE
  5
3FA
100
AcDbEntity
  8
0
100
AcDbCircle
 62
7
  6
CONTINUOUS
 10
22.7230941473
 20
18.8684345328
 40
0.0151574803
  0
CIRCLE
  5
3FB
100
AcDbEntity
  8
0
100
AcDbCircle
 62
7
  6
CONTINUOUS
 10
22.7230941473
 20
18.9396550052
 40
0.0151574803
  0
CIRCLE
  5
3FC
100
AcDbEntity
  8
0
100
AcDbCircle
 62
7
  6
CONTINUOUS
 10
22.7230941473
 20
18.6547731154
 40
0.0151574803
  0
ENDSEC
  0
SECTION
  2
OBJECTS
  0
DICTIONARY
  5
3FD
100
AcDbDictionary
  3
ACAD_GROUP
350
3FE
  3
ACAD_MLINESTYLE
350
3FF
  0
DICTIONARY
  5
3FE
102
{ACAD_REACTORS
330
3FD
102
}
100
AcDbDictionary
  0
DICTIONARY
  5
3FF
102
{ACAD_REACTORS
330
3FD
102
}
100
AcDbDictionary
  3
STANDARD
350
400
  0
MLINESTYLE
  5
400
102
{ACAD_REACTORS
330
3FF
102
}
100
AcDbMlineStyle
  2
STANDARD
 70
0
  3

 62
256
 51
90.0
 52
90.0
 71
2
 49
0.5
 62
256
  6
BYLAYER
 49
-0.5
 62
256
  6
BYLAYER
  0
ENDSEC
  0
EOF
