0
SECTION
2
HEADER
9
$INSUNITS
70
4
9
$ACADVER
1
AC1014
9
$HANDSEED
5
FFFF
0
ENDSEC
0
SECTION
2
TABLES
0
TABLE
2
VPORT
5
8
100
AcDbSymbolTable
0
ENDTAB
0
TABLE
2
LTYPE
5
5
100
AcDbSymbolTable
0
LTYPE
5
14
100
AcDbSymbolTableRecord
100
AcDbLinetypeTableRecord
2
BYBLOCK
70
0
0
LTYPE
5
15
100
AcDbSymbolTableRecord
100
AcDbLinetypeTableRecord
2
BYLAYER
70
0
0
ENDTAB
0
TABLE
2
LAYER
5
2
100
AcDbSymbolTable
70
2
0
LAYER
5
50
100
AcDbSymbolTableRecord
100
AcDbLayerTableRecord
2
0
70
0
6
CONTINUOUS
0
ENDTAB
0
TABLE
2
STYLE
5
3
100
AcDbSymbolTable
70
1
0
STYLE
5
11
100
AcDbSymbolTableRecord
100
AcDbTextStyleTableRecord
2
STANDARD
70
0
0
ENDTAB
0
TABLE
2
VIEW
5
6
100
AcDbSymbolTable
70
0
0
ENDTAB
0
TABLE
2
UCS
5
7
100
AcDbSymbolTable
70
0
0
ENDTAB
0
TABLE
2
APPID
5
9
100
AcDbSymbolTable
70
2
0
APPID
5
12
100
AcDbSymbolTableRecord
100
AcDbRegAppTableRecord
2
ACAD
70
0
0
ENDTAB
0
TABLE
2
DIMSTYLE
5
A
100
AcDbSymbolTable
70
1
0
ENDTAB
0
TABLE
2
BLOCK_RECORD
5
1
100
AcDbSymbolTable
70
1
0
BLOCK_RECORD
5
1F
100
AcDbSymbolTableRecord
100
AcDbBlockTableRecord
2
*MODEL_SPACE
0
BLOCK_RECORD
5
1B
100
AcDbSymbolTableRecord
100
AcDbBlockTableRecord
2
*PAPER_SPACE
0
ENDTAB
0
ENDSEC
0
SECTION
2
BLOCKS
0
BLOCK
5
20
100
AcDbEntity
100
AcDbBlockBegin
2
*MODEL_SPACE
0
ENDBLK
5
21
100
AcDbEntity
100
AcDbBlockEnd
0
BLOCK
5
1C
100
AcDbEntity
100
AcDbBlockBegin
2
*PAPER_SPACE
0
ENDBLK
5
1D
100
AcDbEntity
100
AcDbBlockEnd
0
ENDSEC
0
SECTION
2
ENTITIES
0
LWPOLYLINE
5
100
100
AcDbEntity
8
0
100
AcDbPolyline
90
488
70
1
43
0.0
10
44.246028826816364
20
27.951985329781639
10
40.248689913361552
20
27.951985329781639
10
40.223140783193799
20
27.901764850339074
10
40.197591653026031
20
27.825113817591426
10
40.197591653026031
20
27.774013129092999
10
40.146488536364686
20
27.722911226513109
10
40.120939406196932
20
27.647140402821329
10
40.070720140835824
20
27.62159005857211
10
40.04516615434224
20
27.570489370073684
10
39.994067894006719
20
27.544939025824462
10
39.91741564717762
20
27.493837123244582
10
39.866312530516275
20
27.493837123244582
10
39.7905441349874
20
27.468286778995363
10
38.186145203051836
20
27.468286778995363
10
38.109492956222731
20
27.493837123244582
10
38.059273690861623
20
27.493837123244582
10
38.008170574200278
20
27.544939025824466
10
37.93151832737118
20
27.570489370073684
10
37.905969197203419
20
27.621590058572107
10
37.854870936867904
20
27.647140402821329
10
37.83020080167455
20
27.697360882263897
10
37.779097685013213
20
27.774013129092996
10
37.779097685013205
20
27.825113817591426
10
37.753548554845445
20
27.901764850339074
10
37.727999424677691
20
27.951985329781635
10
31.973836080603519
20
27.951985329781639
10
31.973836080603519
20
27.901764850339074
10
31.948286950435758
20
27.825113817591426
10
31.948286950435765
20
27.774013129092999
10
31.897188690100243
20
27.722911226513109
10
31.871634703606659
20
27.647140402821329
10
31.820536443271138
20
27.62159005857211
10
31.795866308077795
20
27.570489370073684
10
31.744763191416446
20
27.544939025824462
10
31.668110944587351
20
27.493837123244582
10
31.617012684251829
20
27.493837123244582
10
31.541239432397134
20
27.468286778995363
10
29.936840500461564
20
27.468286778995363
10
29.860193109958288
20
27.493837123244582
10
29.809089993296951
20
27.493837123244582
10
29.758870727935836
20
27.544939025824466
10
29.682218481106734
20
27.570489370073684
10
29.656669350938969
20
27.621590058572107
10
29.605566234277635
20
27.647140402821329
10
29.580017104109871
20
27.697360882263897
10
29.529797838748763
20
27.774013129092996
10
29.529797838748763
20
27.825113817591426
10
29.504243852255179
20
27.901764850339074
10
29.478694722087422
20
27.951985329781635
10
25.481355808632618
20
27.951985329781639
10
25.455804250301945
20
27.901764850339074
10
25.430255120134184
20
27.825113817591426
10
25.430255120134184
20
27.774013129092999
10
25.379154431635754
20
27.722911226513109
10
25.353602873305078
20
27.647140402821329
10
25.302502184806656
20
27.62159005857211
10
25.277832049613306
20
27.570489370073684
10
25.226731361114872
20
27.544939025824462
10
25.150079114285774
20
27.493837123244582
10
25.09897842578734
20
27.493837123244582
10
25.02320760209556
20
27.468286778995363
10
23.418811098322905
20
27.468286778995363
10
23.342158851493803
20
27.493837123244582
10
23.29105816299537
20
27.493837123244582
10
23.240836469471343
20
27.544939025824466
10
23.164186650805156
20
27.570489370073684
10
23.138635092474491
20
27.621590058572107
10
23.087534403976061
20
27.647140402821329
10
23.061982845645382
20
27.697360882263897
10
23.011763580284274
20
27.774013129092996
10
23.011763580284274
20
27.825113817591426
10
22.986212021953598
20
27.901764850339074
10
22.986212021953598
20
27.951985329781635
10
17.232053534205257
20
27.951985329781639
10
17.206501975874591
20
27.901764850339074
10
17.18095284570683
20
27.825113817591426
10
17.180952845706834
20
27.774013129092999
10
17.129852157208404
20
27.722911226513109
10
17.104300598877728
20
27.647140402821329
10
17.053199910379295
20
27.62159005857211
10
17.027648352048626
20
27.570489370073684
10
16.977429086687511
20
27.544939025824462
10
16.900776839858409
20
27.493837123244582
10
16.849676151359979
20
27.493837123244582
10
16.773023904530884
20
27.468286778995363
10
15.16950882389555
20
27.468286778995363
10
15.092856577066449
20
27.493837123244582
10
15.041755888568014
20
27.493837123244582
10
14.991534195043997
20
27.544939025824466
10
14.914884376377804
20
27.570489370073684
10
14.889332818047134
20
27.621590058572107
10
14.838232129548706
20
27.647140402821329
10
14.812680571218031
20
27.697360882263897
10
14.761579882719602
20
27.774013129092996
10
14.7615798827196
20
27.825113817591426
10
14.736909747526246
20
27.901764850339074
10
14.711360617358491
20
27.951985329781635
10
10.714021703903683
20
27.951985329781639
10
10.688470145573012
20
27.901764850339074
10
10.662921015405253
20
27.825113817591426
10
10.662921015405256
20
27.774013129092999
10
10.611817898743915
20
27.722911226513109
10
10.586268768576153
20
27.647140402821329
10
10.535168080077721
20
27.62159005857211
10
10.509616521747052
20
27.570489370073684
10
10.459397256385943
20
27.544939025824462
10
10.382745009556839
20
27.493837123244582
10
10.331644321058409
20
27.493837123244582
10
10.254992074229307
20
27.468286778995363
10
8.6514745654310552
20
27.468286778995363
10
8.5748247467648717
20
27.493837123244582
10
8.5237216301035303
20
27.493837123244582
10
8.4735023647424192
20
27.544939025824466
10
8.396850117913317
20
27.570489370073684
10
8.3713009877455598
20
27.621590058572107
10
8.3201990851656724
20
27.647140402821329
10
8.2946487409164522
20
27.697360882263897
10
8.2435480524180242
20
27.774013129092996
10
8.2435480524180207
20
27.825113817591426
10
8.2188779172246758
20
27.901764850339074
10
8.2188779172246775
20
27.951985329781635
10
5.264705714952739
20
27.951985329781639
10
5.0100812674349937
20
27.926434985532424
10
4.755458033998706
20
27.876214506089859
10
4.5008323723995067
20
27.799563473342207
10
4.2717594832124375
20
27.697360882263897
10
4.0682357241931157
20
27.544939025824466
10
3.8647119651738056
20
27.366965611054368
10
3.6867397644851634
20
27.162561642979192
10
3.5334364849084143
20
26.959037883959876
10
3.4321153169674208
20
26.729963780691346
10
3.3554630701383155
20
26.475340547255058
10
3.2532616931414546
20
25.966091652219568
10
3.2532616931414537
20
20.415455709409084
10
3.2277113488922415
20
20.339684885717304
10
3.2277113488922415
20
20.288582983137417
10
3.1774908694496764
20
20.237482294638987
10
3.1519405252004589
20
20.160831261891342
10
3.10083983670203
20
20.136161126697985
10
3.075288278371354
20
20.085060438199562
10
3.0241875898729269
20
20.059510093950344
10
2.9484167661811473
20
20.00840819137046
10
2.8973160776827172
20
20.008408191370457
10
2.8206638308536154
20
19.982857847121242
10
2.7695631423551852
20
19.957307502872027
10
1.9554693203593851
20
19.957307502872027
10
1.700846086923099
20
19.906206814373597
10
1.4462216394053529
20
19.855986334931032
10
1.1915971918876087
20
19.779334088101926
10
0.96164166548175811
20
19.677132711105067
10
0.7581179064624437
20
19.524710854665642
10
0.55459536152458644
20
19.346737439895545
10
0.37662194675449184
20
19.142333471820365
10
0.22331866717774237
20
18.938809712801049
10
0.12199749923674201
20
18.70973682361398
10
0.045346466489100831
20
18.455112376096231
10
-0.0057542220093304008
20
18.20048792857849
10
-0.031305780340004044
20
17.945863481060744
10
-0.031305780340002975
20
-17.062789638459957
10
-0.0057542220093298848
20
-17.317416514140618
10
0.045346466489099568
20
-17.572038533495451
10
0.1219974992367427
20
-17.826665409176101
10
0.22331866717774235
20
-18.05573829836317
10
0.3766219467544904
20
-18.259262057382493
10
0.55459536152458788
20
-18.463664811376216
10
0.75811790646244481
20
-18.641639440227763
10
0.96164166548175789
20
-18.794060082585744
10
1.191597191887608
20
-18.896261459582608
10
1.4462216394053529
20
-18.972913706411699
10
1.700846086923099
20
-19.023132971772814
10
1.9554693203593854
20
-19.074236088434159
10
2.7695631423551834
20
-19.074236088434162
10
2.8206638308536132
20
-19.099785218601927
10
2.8973160776827194
20
-19.125339205095504
10
2.9484167661811496
20
-19.125339205095511
10
2.9986372456237129
20
-19.176437465431025
10
3.0752882783713549
20
-19.201986595598783
10
3.1008398367020309
20
-19.252210717285717
10
3.151940525200458
20
-19.277759847453474
10
3.1774908694496791
20
-19.328862964114812
10
3.2277113488922424
20
-19.405510354618091
10
3.2277113488922415
20
-19.456613471279432
10
3.2532616931414537
20
-19.532381866808311
10
3.2532616931414537
20
-25.083021451863161
10
3.355463070138315
20
-25.592270346898655
10
3.4321153169674194
20
-25.846892366253471
10
3.5334364849084148
20
-26.075965255440558
10
3.6867397644851629
20
-26.279489014459859
10
3.8647119651738056
20
-26.483896624779419
10
4.0682357241931193
20
-26.661866397305154
10
4.2717594832124348
20
-26.814291895988937
10
4.5008323723995023
20
-26.916493272985797
10
4.7554580339987087
20
-26.993145519814902
10
5.0100812674349973
20
-27.04336478517601
10
5.2647057149527354
20
-27.068913915343774
10
8.2188779172246758
20
-27.068913915343771
10
8.2188779172246775
20
-27.01869464998266
10
8.2435480524180242
20
-26.942042403153561
10
8.2435480524180207
20
-26.890939286492216
10
8.2946487409164522
20
-26.839841026156709
10
8.3201990851656742
20
-26.764067774302013
10
8.3713009877455562
20
-26.738518644134249
10
8.3968501179133153
20
-26.687420383798731
10
8.4479508064117486
20
-26.661866397305154
10
8.5237216301035303
20
-26.610768136969618
10
8.5748247467648717
20
-26.610768136969618
10
8.6514745654310587
20
-26.585214150476038
10
10.254992074229307
20
-26.585214150476038
10
10.331644321058405
20
-26.610768136969618
10
10.382745009556842
20
-26.610768136969618
10
10.43384569805527
20
-26.661866397305147
10
10.509616521747052
20
-26.687420383798724
10
10.535168080077721
20
-26.738518644134249
10
10.586268768576151
20
-26.764067774302006
10
10.611817898743915
20
-26.814291895988941
10
10.662921015405256
20
-26.890939286492213
10
10.662921015405256
20
-26.942042403153565
10
10.688470145573012
20
-27.01869464998266
10
10.714021703903683
20
-27.068913915343771
10
14.711360617358491
20
-27.068913915343771
10
14.736909747526246
20
-27.01869464998266
10
14.761579882719602
20
-26.942042403153561
10
14.7615798827196
20
-26.890939286492216
10
14.812680571218031
20
-26.839841026156709
10
14.838232129548706
20
-26.764067774302013
10
14.889332818047134
20
-26.738518644134249
10
14.914884376377804
20
-26.687420383798731
10
14.965985064876232
20
-26.661866397305154
10
15.041755888568014
20
-26.610768136969618
10
15.092856577066447
20
-26.610768136969618
10
15.169508823895548
20
-26.585214150476038
10
16.773023904530884
20
-26.585214150476038
10
16.849676151359979
20
-26.610768136969618
10
16.900776839858413
20
-26.610768136969618
10
16.951877528356846
20
-26.661866397305147
10
17.027648352048622
20
-26.687420383798724
10
17.053199910379295
20
-26.738518644134249
10
17.104300598877728
20
-26.764067774302006
10
17.129852157208397
20
-26.814291895988941
10
17.18095284570683
20
-26.890939286492213
10
17.180952845706834
20
-26.942042403153565
10
17.206501975874591
20
-27.01869464998266
10
17.23205353420526
20
-27.068913915343771
10
22.986212021953602
20
-27.068913915343771
10
22.986212021953598
20
-27.01869464998266
10
23.011763580284274
20
-26.942042403153561
10
23.011763580284274
20
-26.890939286492216
10
23.061982845645382
20
-26.839841026156709
10
23.087534403976058
20
-26.764067774302013
10
23.138635092474487
20
-26.738518644134249
10
23.164186650805156
20
-26.687420383798731
10
23.215287339303586
20
-26.661866397305154
10
23.291058162995377
20
-26.610768136969618
10
23.342158851493796
20
-26.610768136969618
10
23.418811098322902
20
-26.585214150476038
10
25.02320760209556
20
-26.585214150476038
10
25.098978425787344
20
-26.610768136969618
10
25.150079114285774
20
-26.610768136969618
10
25.201182230947108
20
-26.661866397305147
10
25.277832049613302
20
-26.687420383798724
10
25.302502184806649
20
-26.738518644134249
10
25.353602873305082
20
-26.764067774302006
10
25.379154431635762
20
-26.814291895988941
10
25.430255120134181
20
-26.890939286492213
10
25.430255120134184
20
-26.942042403153565
10
25.455804250301945
20
-27.01869464998266
10
25.481355808632618
20
-27.068913915343771
10
29.478694722087422
20
-27.068913915343771
10
29.504243852255179
20
-27.01869464998266
10
29.529797838748763
20
-26.942042403153561
10
29.529797838748763
20
-26.890939286492216
10
29.580017104109871
20
-26.839841026156709
10
29.605566234277632
20
-26.764067774302013
10
29.656669350938976
20
-26.738518644134249
10
29.682218481106737
20
-26.687420383798731
10
29.733321597768075
20
-26.661866397305154
10
29.809089993296951
20
-26.610768136969618
10
29.860193109958288
20
-26.610768136969618
10
29.936840500461564
20
-26.585214150476038
10
31.541239432397134
20
-26.585214150476038
10
31.617012684251826
20
-26.610768136969618
10
31.668110944587347
20
-26.610768136969618
10
31.719214061248692
20
-26.661866397305147
10
31.795866308077795
20
-26.687420383798724
10
31.820536443271138
20
-26.738518644134249
10
31.871634703606663
20
-26.764067774302006
10
31.89718869010024
20
-26.814291895988941
10
31.948286950435762
20
-26.890939286492213
10
31.948286950435765
20
-26.942042403153565
10
31.973836080603526
20
-27.01869464998266
10
31.973836080603519
20
-27.068913915343771
10
37.753548554845445
20
-27.068913915343771
10
37.753548554845445
20
-27.01869464998266
10
37.779097685013205
20
-26.942042403153561
10
37.779097685013205
20
-26.890939286492216
10
37.83020080167455
20
-26.839841026156709
10
37.854870936867904
20
-26.764067774302013
10
37.905969197203419
20
-26.738518644134249
10
37.93151832737118
20
-26.687420383798731
10
37.982621444032517
20
-26.661866397305154
10
38.059273690861623
20
-26.610768136969618
10
38.109492956222731
20
-26.610768136969618
10
38.186145203051836
20
-26.585214150476038
10
39.7905441349874
20
-26.585214150476038
10
39.866312530516275
20
-26.610768136969618
10
39.917415647177613
20
-26.610768136969618
10
39.968513907513127
20
-26.661866397305147
10
40.04516615434224
20
-26.687420383798724
10
40.070720140835824
20
-26.738518644134249
10
40.120939406196932
20
-26.764067774302006
10
40.146488536364686
20
-26.814291895988941
10
40.197591653026031
20
-26.890939286492213
10
40.197591653026031
20
-26.942042403153565
10
40.223140783193799
20
-27.01869464998266
10
40.248689913361552
20
-27.068913915343771
10
44.246028826816364
20
-27.068913915343771
10
44.271582813309948
20
-27.01869464998266
10
44.297131943477694
20
-26.942042403153561
10
44.297131943477694
20
-26.890939286492216
10
44.348230203813223
20
-26.839841026156709
10
44.372900339006563
20
-26.764067774302013
10
44.424003455667915
20
-26.738518644134249
10
44.449552585835661
20
-26.687420383798731
10
44.500655702497014
20
-26.661866397305154
10
44.577307949326119
20
-26.610768136969618
10
44.627527214687213
20
-26.610768136969618
10
44.704179461516333
20
-26.585214150476038
10
46.308573537126072
20
-26.585214150476038
10
46.384346788980764
20
-26.610768136969618
10
46.435449905642095
20
-26.610768136969618
10
46.486548165977624
20
-26.661866397305147
10
46.563200412806722
20
-26.687420383798724
10
46.58874954297449
20
-26.738518644134249
10
46.638968808335584
20
-26.764067774302006
10
46.664522794829182
20
-26.814291895988941
10
46.715621055164704
20
-26.890939286492213
10
46.715621055164689
20
-26.942042403153565
10
46.741175041658273
20
-27.01869464998266
10
46.741175041658281
20
-27.068913915343771
10
49.694462178548527
20
-27.068913915343771
10
49.949089054229177
20
-27.043364785176006
10
50.20371107358401
20
-26.993145519814902
10
50.45833794926466
20
-26.916493272985804
10
50.687410838451747
20
-26.814291895988941
10
50.890934597471052
20
-26.661866397305147
10
51.095337351464771
20
-26.483896624779408
10
51.273311980316329
20
-26.279489014459863
10
51.425732622674296
20
-26.075965255440558
10
51.527933999671156
20
-25.846892366253474
10
51.604586246500261
20
-25.592270346898658
10
51.654805511861383
20
-25.337643471217987
10
51.705908628522714
20
-25.083021451863154
10
51.705908628522714
20
-19.532381866808311
10
51.731457758690482
20
-19.456613471279439
10
51.731457758690468
20
-19.405510354618091
10
51.78256087535182
20
-19.354412094282573
10
51.808110005519566
20
-19.277759847453481
10
51.859213122180918
20
-19.252210717285717
10
51.884762252348686
20
-19.201986595598783
10
51.934981517709787
20
-19.176437465431025
10
52.011633764538885
20
-19.125339205095504
10
52.062736881200237
20
-19.125339205095511
10
52.138505276729099
20
-19.099785218601927
10
52.189608393390444
20
-19.074236088434159
10
53.004582424442106
20
-19.074236088434162
10
53.259204443796939
20
-19.023132971772817
10
53.513831319477603
20
-18.972913706411703
10
53.768453338832423
20
-18.896261459582608
10
53.99752622801951
20
-18.794060082585741
10
54.201049987038814
20
-18.64163944022777
10
54.404573746058126
20
-18.463664811376216
10
54.583427369884099
20
-18.25926205738249
10
54.735852868567889
20
-18.055738298363178
10
54.838054245564749
20
-17.826665409176108
10
54.91382264109361
20
-17.572038533495444
10
54.964925757754955
20
-17.317416514140611
10
54.990474887922723
20
-17.062789638459961
10
54.990474887922723
20
-0.76771127678748163
10
54.964925757754955
20
-0.69105902995837132
10
54.964925757754955
20
-0.64083733643434559
10
54.91382264109361
20
-0.56418751776815768
10
54.889152505900263
20
-0.51308682926972715
10
54.838054245564749
20
-0.48753527093905574
10
54.812500259071165
20
-0.43643458244062405
10
54.735852868567889
20
-0.41176444724727895
10
54.684749751906537
20
-0.3606637587488476
10
54.63453048654543
20
-0.36066375874884926
10
54.557878239716331
20
-0.33511220041817619
10
54.506775123054979
20
-0.30956307025041757
10
53.513831319477603
20
-0.30956307025041596
10
53.462728202816258
20
-0.28401151191974289
10
53.386959807287383
20
-0.25846238175198427
10
53.335856690626059
20
-0.2584623817519871
10
53.284758430290523
20
-0.2073592650906409
10
53.208106183461425
20
-0.18269155806020115
10
53.182552196967841
20
-0.131588441398862
10
53.132332931606726
20
-0.10603931123110474
10
53.106783801438965
20
-0.054938622732670611
10
53.05568068477762
20
0.021713624096427395
10
53.05568068477762
20
0.071932889457539451
10
53.030131554609873
20
0.14858513628664358
10
53.004582424442106
20
0.19968582478507357
10
53.004582424442106
20
0.68338558965279839
10
53.030131554609873
20
0.73448627815123124
10
53.05568068477762
20
0.81113852498033323
10
53.05568068477762
20
0.86135779034144322
10
53.106783801438972
20
0.9124584788398743
10
53.13233293160674
20
0.98911072566898073
10
53.182552196967841
20
1.0146598558367375
10
53.208106183461425
20
1.0657629724980808
10
53.259204443796939
20
1.0904306795285144
10
53.335856690626045
20
1.1415313680269481
10
53.386959807287376
20
1.141531368026949
10
53.462728202816258
20
1.1670829263576157
10
53.513831319477603
20
1.1926344846882919
10
54.506775123054993
20
1.1926344846882886
10
54.557878239716338
20
1.2181836148560459
10
54.63453048654543
20
1.2437351731867208
10
54.684749751906537
20
1.2437351731867219
10
54.76140199873565
20
1.2948358616851525
10
54.812500259071165
20
1.3203874200158239
10
54.838054245564749
20
1.3706066853769356
10
54.889152505900263
20
1.3961558155446934
10
54.91382264109361
20
1.4728080623737942
10
54.964925757754955
20
1.5239087508722244
10
54.964925757754955
20
1.5741304443962469
10
54.990474887922723
20
1.6507802630624324
10
54.990474887922723
20
17.945863481060744
10
54.964925757754955
20
18.20048792857849
10
54.91382264109361
20
18.455112376096231
10
54.838054245564749
20
18.70973682361398
10
54.735852868567889
20
18.938809712801049
10
54.583427369884099
20
19.142333471820365
10
54.404573746058126
20
19.346737439895545
10
54.201049987038807
20
19.524710854665642
10
53.997526228019495
20
19.677132711105067
10
53.768453338832423
20
19.77933408810193
10
53.513831319477603
20
19.855986334931032
10
53.259204443796939
20
19.906206814373594
10
53.004582424442106
20
19.957307502872027
10
52.189608393390444
20
19.957307502872027
10
52.138505276729099
20
19.982857847121242
10
52.062736881200237
20
20.00840819137046
10
52.011633764538885
20
20.008408191370457
10
51.96053064787754
20
20.05951009395034
10
51.884762252348686
20
20.085060438199562
10
51.859213122180911
20
20.136161126697992
10
51.808110005519566
20
20.160831261891342
10
51.78256087535182
20
20.211931950389769
10
51.731457758690468
20
20.288582983137417
10
51.731457758690468
20
20.339684885717304
10
51.705908628522707
20
20.415455709409088
10
51.705908628522714
20
25.966091652219575
10
51.654805511861383
20
26.220716099737309
10
51.604586246500268
20
26.475340547255051
10
51.527933999671163
20
26.729963780691346
10
51.425732622674296
20
26.959037883959876
10
51.273311980316329
20
27.162561642979188
10
51.095337351464771
20
27.366965611054365
10
50.890934597471045
20
27.544939025824466
10
50.68741083845174
20
27.697360882263894
10
50.45833794926466
20
27.799563473342207
10
50.20371107358401
20
27.876214506089859
10
49.949089054229177
20
27.926434985532417
10
49.694462178548527
20
27.951985329781639
10
46.741175041658281
20
27.951985329781639
10
46.741175041658281
20
27.901764850339074
10
46.715621055164704
20
27.825113817591426
10
46.715621055164689
20
27.774013129092999
10
46.664522794829175
20
27.722911226513109
10
46.638968808335584
20
27.647140402821329
10
46.58874954297449
20
27.62159005857211
10
46.563200412806722
20
27.570489370073684
10
46.51209729614537
20
27.544939025824462
10
46.435449905642095
20
27.493837123244582
10
46.384346788980764
20
27.493837123244582
10
46.308573537126072
20
27.468286778995363
10
44.704179461516333
20
27.468286778995363
10
44.62752721468722
20
27.493837123244582
10
44.577307949326126
20
27.493837123244582
10
44.526204832664774
20
27.544939025824466
10
44.449552585835661
20
27.570489370073684
10
44.424003455667915
20
27.621590058572107
10
44.372900339006563
20
27.647140402821329
10
44.348230203813223
20
27.697360882263897
10
44.297131943477694
20
27.774013129092996
10
44.297131943477694
20
27.825113817591426
10
44.271582813309948
20
27.901764850339074
0
LWPOLYLINE
5
101
100
AcDbEntity
8
0
100
AcDbPolyline
90
90
70
1
43
0.0
10
1.5219948888429169
20
13.210194846403533
10
1.5219948888429169
20
13.363498196608418
10
1.5730960436259878
20
13.541470881032643
10
1.6241970166747597
20
13.693893154812569
10
1.7008487038881914
20
13.821645824559784
10
1.7766192999396995
20
13.974068136279756
10
1.8788215495576077
20
14.101820768086924
10
2.0056930996878637
20
14.203141936027921
10
2.1334459591353054
20
14.279793651696384
10
2.2858680811550496
20
14.356445139724581
10
2.4391714366118906
20
14.406665315646778
10
2.6171441684611678
20
14.457766307665574
10
2.9228696838778023
20
14.457766307665576
10
3.1008424916071693
20
14.40666531564678
10
3.2532646515669588
20
14.356445139724578
10
3.3810174351343143
20
14.279793651696384
10
3.5334395950941011
20
14.203141936027921
10
3.6611923786614504
20
14.101820768086924
10
3.7625135466024489
20
13.974068136279756
10
3.8391650346306401
20
13.821645824559782
10
3.9158168261791988
20
13.693893154812571
10
3.9660368503412164
20
13.541470881032643
10
4.0171379941201906
20
13.363498196608418
10
4.0171379941201923
20
12.548523738731244
10
3.9660368503412142
20
12.369669963145103
10
3.9158168261791952
20
12.217247651425122
10
3.8391650346306432
20
12.090376139234913
10
3.7625135466024489
20
11.937072783778076
10
3.6611923786614504
20
11.810201119827683
10
3.5334395950941015
20
11.707998832269729
10
3.4065680829038882
20
11.631347192481359
10
3.2532646515669605
20
11.555576672309938
10
3.1008424916071715
20
11.504475680291142
10
2.9228696838777983
20
11.453374536512168
10
2.6171441684611696
20
11.453374536512166
10
2.4391714366118928
20
11.504475680291144
10
2.2858680811550496
20
11.55557667230994
10
2.1589964930847474
20
11.631347192481353
10
2.0056930996878646
20
11.707998832269729
10
1.8788215495576082
20
11.810201119827683
10
1.776619299939699
20
11.937072783778076
10
1.700848703888191
20
12.090376139234918
10
1.6241970166747599
20
12.217247651425128
10
1.573096043625988
20
12.3696699631451
10
1.5219948888429169
20
12.548523738731241
10
1.5219948888429169
20
13.210194846403533
10
1.5219948888429169
20
13.363498196608418
10
1.5730960436259878
20
13.541470881032643
10
1.6241970166747597
20
13.693893154812569
10
1.7008487038881914
20
13.821645824559784
10
1.7766192999396995
20
13.974068136279756
10
1.8788215495576077
20
14.101820768086924
10
2.0056930996878637
20
14.203141936027921
10
2.1334459591353054
20
14.279793651696384
10
2.2858680811550496
20
14.356445139724581
10
2.4391714366118906
20
14.406665315646778
10
2.6171441684611678
20
14.457766307665574
10
2.9228696838778023
20
14.457766307665576
10
3.1008424916071693
20
14.40666531564678
10
3.2532646515669588
20
14.356445139724578
10
3.3810174351343143
20
14.279793651696384
10
3.5334395950941011
20
14.203141936027921
10
3.6611923786614504
20
14.101820768086924
10
3.7625135466024489
20
13.974068136279756
10
3.8391650346306401
20
13.821645824559782
10
3.9158168261791988
20
13.693893154812571
10
3.9660368503412164
20
13.541470881032643
10
4.0171379941201906
20
13.363498196608418
10
4.0171379941201923
20
12.548523738731244
10
3.9660368503412142
20
12.369669963145103
10
3.9158168261791952
20
12.217247651425122
10
3.8391650346306432
20
12.090376139234913
10
3.7625135466024489
20
11.937072783778076
10
3.6611923786614504
20
11.810201119827683
10
3.5334395950941015
20
11.707998832269729
10
3.4065680829038882
20
11.631347192481359
10
3.2532646515669605
20
11.555576672309938
10
3.1008424916071715
20
11.504475680291142
10
2.9228696838777983
20
11.453374536512168
10
2.6171441684611696
20
11.453374536512166
10
2.4391714366118928
20
11.504475680291144
10
2.2858680811550496
20
11.55557667230994
10
2.1589964930847474
20
11.631347192481353
10
2.0056930996878646
20
11.707998832269729
10
1.8788215495576082
20
11.810201119827683
10
1.776619299939699
20
11.937072783778076
10
1.700848703888191
20
12.090376139234918
10
1.6241970166747599
20
12.217247651425128
10
1.573096043625988
20
12.3696699631451
10
1.5219948888429169
20
12.548523738731241
0
SPLINE
5
102
100
AcDbEntity
8
0
100
AcDbSpline
70
4
71
3
72
8
73
4
74
0
42
0.000000001
43
0.0000000001
44
0.0000000001
40
0
40
0
40
0
40
0
40
1
40
1
40
1
40
1
41
1
41
1
41
1
41
1
10
3.9915878823046835
20
-12.072517631503379
30
0
10
3.9915878823046835
20
-12.083971318821272
30
0
10
3.9915878823046835
20
-12.080447116011586
30
0
10
3.9915878823046835
20
-12.060182886573081
30
0
0
SPLINE
5
103
100
AcDbEntity
8
0
100
AcDbSpline
70
4
71
3
72
8
73
4
74
0
42
0.000000001
43
0.0000000001
44
0.0000000001
40
0
40
0
40
0
40
0
40
1
40
1
40
1
40
1
41
1
41
1
41
1
41
1
10
3.9915878823046835
20
-12.060182886573081
30
0
10
3.9915878823046835
20
-11.379128690337152
30
0
10
3.4400484852312418
20
-10.824946109440932
30
0
10
2.757232114970849
20
-10.824946109440932
30
0
0
SPLINE
5
104
100
AcDbEntity
8
0
100
AcDbSpline
70
4
71
3
72
8
73
4
74
0
42
0.000000001
43
0.0000000001
44
0.0000000001
40
0
40
0
40
0
40
0
40
1
40
1
40
1
40
1
41
1
41
1
41
1
41
1
10
2.757232114970849
20
-10.824946109440932
30
0
10
2.074415782650505
20
-10.824946109440932
30
0
10
1.5219953651081086
20
-11.379128690337152
30
0
10
1.5219953651081086
20
-12.060182886573081
30
0
0
SPLINE
5
105
100
AcDbEntity
8
0
100
AcDbSpline
70
4
71
3
72
8
73
4
74
0
42
0.000000001
43
0.0000000001
44
0.0000000001
40
0
40
0
40
0
40
0
40
1
40
1
40
1
40
1
41
1
41
1
41
1
41
1
10
1.5219953651081086
20
-12.060182886573081
30
0
10
1.5219953651081086
20
-12.741237104150285
30
0
10
2.074415782650505
20
-13.294538565429548
30
0
10
2.757232114970849
20
-13.294538565429548
30
0
0
SPLINE
5
106
100
AcDbEntity
8
0
100
AcDbSpline
70
4
71
3
72
8
73
4
74
0
42
0.000000001
43
0.0000000001
44
0.0000000001
40
0
40
0
40
0
40
0
40
1
40
1
40
1
40
1
41
1
41
1
41
1
41
1
10
2.757232114970849
20
-13.294538565429548
30
0
10
3.4347621089899016
20
-13.294538565429548
30
0
10
3.9854205048608327
20
-12.749166649542261
30
0
10
3.9915878823046835
20
-12.072517631503379
30
0
0
LWPOLYLINE
5
107
100
AcDbEntity
8
0
100
AcDbPolyline
90
2
70
1
43
0.0
10
3.9915878823046835
20
-12.072517631503379
10
2.757232114970849
20
-12.060182886573079
0
SPLINE
5
108
100
AcDbEntity
8
0
100
AcDbSpline
70
4
71
3
72
8
73
4
74
0
42
0.000000001
43
0.0000000001
44
0.0000000001
40
0
40
0
40
0
40
0
40
1
40
1
40
1
40
1
41
1
41
1
41
1
41
1
10
3.1263934215835576
20
6.7450240744286294
30
0
10
3.1263934215835576
20
6.7459051283174221
30
0
10
3.1263934215835576
20
6.7494293343134792
30
0
10
3.1263934215835576
20
6.7555967207977341
30
0
0
SPLINE
5
109
100
AcDbEntity
8
0
100
AcDbSpline
70
4
71
3
72
8
73
4
74
0
42
0.000000001
43
0.0000000001
44
0.0000000001
40
0
40
0
40
0
40
0
40
1
40
1
40
1
40
1
41
1
41
1
41
1
41
1
10
3.1263934215835576
20
6.7555967207977341
30
0
10
3.1263934215835576
20
6.9600010137345514
30
0
10
2.9625175076699639
20
7.1247581085008616
30
0
10
2.7572320216073498
20
7.1247581085008616
30
0
0
SPLINE
5
110
100
AcDbEntity
8
0
100
AcDbSpline
70
4
71
3
72
8
73
4
74
0
42
0.000000001
43
0.0000000001
44
0.0000000001
40
0
40
0
40
0
40
0
40
1
40
1
40
1
40
1
41
1
41
1
41
1
41
1
10
2.7572320216073498
20
7.1247581085008616
30
0
10
2.551946706274939
20
7.1247581085008616
30
0
10
2.3880707500956166
20
6.9600010137345514
30
0
10
2.3880707500956166
20
6.7555967207977341
30
0
0
SPLINE
5
111
100
AcDbEntity
8
0
100
AcDbSpline
70
4
71
3
72
8
73
4
74
0
42
0.000000001
43
0.0000000001
44
0.0000000001
40
0
40
0
40
0
40
0
40
1
40
1
40
1
40
1
41
1
41
1
41
1
41
1
10
2.3880707500956166
20
6.7555967207977341
30
0
10
2.3880707500956166
20
6.552073381490171
30
0
10
2.551946706274939
20
6.3864353378371197
30
0
10
2.7572320216073498
20
6.3864353378371197
30
0
0
SPLINE
5
112
100
AcDbEntity
8
0
100
AcDbSpline
70
4
71
3
72
8
73
4
74
0
42
0.000000001
43
0.0000000001
44
0.0000000001
40
0
40
0
40
0
40
0
40
1
40
1
40
1
40
1
41
1
41
1
41
1
41
1
10
2.7572320216073498
20
6.3864353378371197
30
0
10
2.9563502015118992
20
6.3864353378371197
30
0
10
3.1202260521704739
20
6.5441438360981952
30
0
10
3.1263934215835576
20
6.7450240744286294
30
0
0
LWPOLYLINE
5
113
100
AcDbEntity
8
0
100
AcDbPolyline
90
2
70
1
43
0.0
10
3.1263934215835576
20
6.7450240744286294
10
2.7572320216073471
20
6.7555967207977314
0
SPLINE
5
114
100
AcDbEntity
8
0
100
AcDbSpline
70
4
71
3
72
8
73
4
74
0
42
0.000000001
43
0.0000000001
44
0.0000000001
40
0
40
0
40
0
40
0
40
1
40
1
40
1
40
1
41
1
41
1
41
1
41
1
10
3.1263934215835576
20
4.9371020728209469
30
0
10
3.1263934215835576
20
4.9388641728826954
30
0
10
3.1263934215835576
20
4.9415073409959209
30
0
10
3.1263934215835576
20
4.9485557626212495
30
0
0
SPLINE
5
115
100
AcDbEntity
8
0
100
AcDbSpline
70
4
71
3
72
8
73
4
74
0
42
0.000000001
43
0.0000000001
44
0.0000000001
40
0
40
0
40
0
40
0
40
1
40
1
40
1
40
1
41
1
41
1
41
1
41
1
10
3.1263934215835576
20
4.9485557626212495
30
0
10
3.1263934215835576
20
5.1520790260487193
30
0
10
2.9625175076699639
20
5.3177170886718006
30
0
10
2.7572320216073498
20
5.3177170886718006
30
0
0
SPLINE
5
116
100
AcDbEntity
8
0
100
AcDbSpline
70
4
71
3
72
8
73
4
74
0
42
0.000000001
43
0.0000000001
44
0.0000000001
40
0
40
0
40
0
40
0
40
1
40
1
40
1
40
1
41
1
41
1
41
1
41
1
10
2.7572320216073498
20
5.3177170886718006
30
0
10
2.551946706274939
20
5.3177170886718006
30
0
10
2.3880707500956166
20
5.1520790260487193
30
0
10
2.3880707500956166
20
4.9485557626212495
30
0
0
SPLINE
5
117
100
AcDbEntity
8
0
100
AcDbSpline
70
4
71
3
72
8
73
4
74
0
42
0.000000001
43
0.0000000001
44
0.0000000001
40
0
40
0
40
0
40
0
40
1
40
1
40
1
40
1
41
1
41
1
41
1
41
1
10
2.3880707500956166
20
4.9485557626212495
30
0
10
2.3880707500956166
20
4.7441514127743645
30
0
10
2.551946706274939
20
4.5793944697682365
30
0
10
2.7572320216073498
20
4.5793944697682365
30
0
0
SPLINE
5
118
100
AcDbEntity
8
0
100
AcDbSpline
70
4
71
3
72
8
73
4
74
0
42
0.000000001
43
0.0000000001
44
0.0000000001
40
0
40
0
40
0
40
0
40
1
40
1
40
1
40
1
41
1
41
1
41
1
41
1
10
2.7572320216073498
20
4.5793944697682365
30
0
10
2.9563502015118992
20
4.5793944697682365
30
0
10
3.1202260521704739
20
4.7362218673823842
30
0
10
3.1263934215835576
20
4.9371020728209469
30
0
0
LWPOLYLINE
5
119
100
AcDbEntity
8
0
100
AcDbPolyline
90
2
70
1
43
0.0
10
3.1263934215835576
20
4.9371020728209469
10
2.7572320216073471
20
4.9485557626212477
0
SPLINE
5
120
100
AcDbEntity
8
0
100
AcDbSpline
70
4
71
3
72
8
73
4
74
0
42
0.000000001
43
0.0000000001
44
0.0000000001
40
0
40
0
40
0
40
0
40
1
40
1
40
1
40
1
41
1
41
1
41
1
41
1
10
3.1263934215835576
20
3.154730703112234
30
0
10
3.1263934215835576
20
3.1564928147227
30
0
10
3.1263934215835576
20
3.1591359666817631
30
0
10
3.1263934215835576
20
3.1661844040166365
30
0
0
SPLINE
5
121
100
AcDbEntity
8
0
100
AcDbSpline
70
4
71
3
72
8
73
4
74
0
42
0.000000001
43
0.0000000001
44
0.0000000001
40
0
40
0
40
0
40
0
40
1
40
1
40
1
40
1
41
1
41
1
41
1
41
1
10
3.1263934215835576
20
3.1661844040166365
30
0
10
3.1263934215835576
20
3.3697077113122864
30
0
10
2.9625175076699639
20
3.5353457359953211
30
0
10
2.7572320216073498
20
3.5353457359953211
30
0
0
SPLINE
5
122
100
AcDbEntity
8
0
100
AcDbSpline
70
4
71
3
72
8
73
4
74
0
42
0.000000001
43
0.0000000001
44
0.0000000001
40
0
40
0
40
0
40
0
40
1
40
1
40
1
40
1
41
1
41
1
41
1
41
1
10
2.7572320216073498
20
3.5353457359953211
30
0
10
2.551946706274939
20
3.5353457359953211
30
0
10
2.3880707500956166
20
3.3697077113122864
30
0
10
2.3880707500956166
20
3.1661844040166365
30
0
0
SPLINE
5
123
100
AcDbEntity
8
0
100
AcDbSpline
70
4
71
3
72
8
73
4
74
0
42
0.000000001
43
0.0000000001
44
0.0000000001
40
0
40
0
40
0
40
0
40
1
40
1
40
1
40
1
41
1
41
1
41
1
41
1
10
2.3880707500956166
20
3.1661844040166365
30
0
10
2.3880707500956166
20
2.9617800790679105
30
0
10
2.551946706274939
20
2.7970230032716259
30
0
10
2.7572320216073498
20
2.7970230032716259
30
0
0
SPLINE
5
124
100
AcDbEntity
8
0
100
AcDbSpline
70
4
71
3
72
8
73
4
74
0
42
0.000000001
43
0.0000000001
44
0.0000000001
40
0
40
0
40
0
40
0
40
1
40
1
40
1
40
1
41
1
41
1
41
1
41
1
10
2.7572320216073498
20
2.7970230032716259
30
0
10
2.9563502015118992
20
2.7970230032716259
30
0
10
3.1202260521704739
20
2.9538505336759258
30
0
10
3.1263934215835576
20
3.154730703112234
30
0
0
LWPOLYLINE
5
125
100
AcDbEntity
8
0
100
AcDbPolyline
90
2
70
1
43
0.0
10
3.1263934215835576
20
3.154730703112234
10
2.7572320216073471
20
3.1661844040166383
0
SPLINE
5
126
100
AcDbEntity
8
0
100
AcDbSpline
70
4
71
3
72
8
73
4
74
0
42
0.000000001
43
0.0000000001
44
0.0000000001
40
0
40
0
40
0
40
0
40
1
40
1
40
1
40
1
41
1
41
1
41
1
41
1
10
3.1263934215835576
20
1.346808926431784
30
0
10
3.1263934215835576
20
1.3485710342093693
30
0
10
3.1263934215835576
20
1.35209524976454
30
0
10
3.1263934215835576
20
1.3582626205392456
30
0
0
SPLINE
5
127
100
AcDbEntity
8
0
100
AcDbSpline
70
4
71
3
72
8
73
4
74
0
42
0.000000001
43
0.0000000001
44
0.0000000001
40
0
40
0
40
0
40
0
40
1
40
1
40
1
40
1
41
1
41
1
41
1
41
1
10
3.1263934215835576
20
1.3582626205392456
30
0
10
3.1263934215835576
20
1.5617859491761665
30
0
10
2.9625175076699639
20
1.7274240117992479
30
0
10
2.7572320216073498
20
1.7274240117992479
30
0
0
SPLINE
5
128
100
AcDbEntity
8
0
100
AcDbSpline
70
4
71
3
72
8
73
4
74
0
42
0.000000001
43
0.0000000001
44
0.0000000001
40
0
40
0
40
0
40
0
40
1
40
1
40
1
40
1
41
1
41
1
41
1
41
1
10
2.7572320216073498
20
1.7274240117992479
30
0
10
2.551946706274939
20
1.7274240117992479
30
0
10
2.3880707500956166
20
1.5617859491761665
30
0
10
2.3880707500956166
20
1.3582626205392456
30
0
0
SPLINE
5
129
100
AcDbEntity
8
0
100
AcDbSpline
70
4
71
3
72
8
73
4
74
0
42
0.000000001
43
0.0000000001
44
0.0000000001
40
0
40
0
40
0
40
0
40
1
40
1
40
1
40
1
41
1
41
1
41
1
41
1
10
2.3880707500956166
20
1.3582626205392456
30
0
10
2.3880707500956166
20
1.1547392847885618
30
0
10
2.551946706274939
20
0.98910124113550157
30
0
10
2.7572320216073498
20
0.98910124113550157
30
0
0
SPLINE
5
130
100
AcDbEntity
8
0
100
AcDbSpline
70
4
71
3
72
8
73
4
74
0
42
0.000000001
43
0.0000000001
44
0.0000000001
40
0
40
0
40
0
40
0
40
1
40
1
40
1
40
1
41
1
41
1
41
1
41
1
10
2.7572320216073498
20
0.98910124113550157
30
0
10
2.9563502015118992
20
0.98910124113550157
30
0
10
3.1202260521704739
20
1.1468098911567637
30
0
10
3.1263934215835576
20
1.346808926431784
30
0
0
LWPOLYLINE
5
131
100
AcDbEntity
8
0
100
AcDbPolyline
90
2
70
1
43
0.0
10
3.1263934215835576
20
1.346808926431784
10
2.7572320216073471
20
1.3582626205392478
0
SPLINE
5
132
100
AcDbEntity
8
0
100
AcDbSpline
70
4
71
3
72
8
73
4
74
0
42
0.000000001
43
0.0000000001
44
0.0000000001
40
0
40
0
40
0
40
0
40
1
40
1
40
1
40
1
41
1
41
1
41
1
41
1
10
3.1263934215835576
20
8.5520647298572108
30
0
10
3.1263934215835576
20
8.5538268376347979
30
0
10
3.1263934215835576
20
8.5573510517079256
30
0
10
3.1263934215835576
20
8.5635184221862293
30
0
0
SPLINE
5
133
100
AcDbEntity
8
0
100
AcDbSpline
70
4
71
3
72
8
73
4
74
0
42
0.000000001
43
0.0000000001
44
0.0000000001
40
0
40
0
40
0
40
0
40
1
40
1
40
1
40
1
41
1
41
1
41
1
41
1
10
3.1263934215835576
20
8.5635184221862293
30
0
10
3.1263934215835576
20
8.7670417342243834
30
0
10
2.9625175076699639
20
8.9326797968474647
30
0
10
2.7572320216073498
20
8.9326797968474647
30
0
0
SPLINE
5
134
100
AcDbEntity
8
0
100
AcDbSpline
70
4
71
3
72
8
73
4
74
0
42
0.000000001
43
0.0000000001
44
0.0000000001
40
0
40
0
40
0
40
0
40
1
40
1
40
1
40
1
41
1
41
1
41
1
41
1
10
2.7572320216073498
20
8.9326797968474647
30
0
10
2.551946706274939
20
8.9326797968474647
30
0
10
2.3880707500956166
20
8.7670417342243834
30
0
10
2.3880707500956166
20
8.5635184221862293
30
0
0
SPLINE
5
135
100
AcDbEntity
8
0
100
AcDbSpline
70
4
71
3
72
8
73
4
74
0
42
0.000000001
43
0.0000000001
44
0.0000000001
40
0
40
0
40
0
40
0
40
1
40
1
40
1
40
1
41
1
41
1
41
1
41
1
10
2.3880707500956166
20
8.5635184221862293
30
0
10
2.3880707500956166
20
8.3599950698367742
30
0
10
2.551946706274939
20
8.1943570261837237
30
0
10
2.7572320216073498
20
8.1943570261837237
30
0
0
SPLINE
5
136
100
AcDbEntity
8
0
100
AcDbSpline
70
4
71
3
72
8
73
4
74
0
42
0.000000001
43
0.0000000001
44
0.0000000001
40
0
40
0
40
0
40
0
40
1
40
1
40
1
40
1
41
1
41
1
41
1
41
1
10
2.7572320216073498
20
8.1943570261837237
30
0
10
2.9563502015118992
20
8.1943570261837237
30
0
10
3.1202260521704739
20
8.3520656762049796
30
0
10
3.1263934215835576
20
8.5520647298572108
30
0
0
LWPOLYLINE
5
137
100
AcDbEntity
8
0
100
AcDbPolyline
90
2
70
1
43
0.0
10
3.1263934215835576
20
8.5520647298572108
10
2.7572320216073471
20
8.5635184221862275
0
SPLINE
5
138
100
AcDbEntity
8
0
100
AcDbSpline
70
4
71
3
72
8
73
4
74
0
42
0.000000001
43
0.0000000001
44
0.0000000001
40
0
40
0
40
0
40
0
40
1
40
1
40
1
40
1
41
1
41
1
41
1
41
1
10
3.1263934215835576
20
-2.2681538617826646
30
0
10
3.1263934215835576
20
-2.2672728094500005
30
0
10
3.1263934215835576
20
-2.2637485924127976
30
0
10
3.1263934215835576
20
-2.2575812210452817
30
0
0
SPLINE
5
139
100
AcDbEntity
8
0
100
AcDbSpline
70
4
71
3
72
8
73
4
74
0
42
0.000000001
43
0.0000000001
44
0.0000000001
40
0
40
0
40
0
40
0
40
1
40
1
40
1
40
1
41
1
41
1
41
1
41
1
10
3.1263934215835576
20
-2.2575812210452817
30
0
10
3.1263934215835576
20
-2.0540578426120515
30
0
10
2.9625175076699639
20
-1.8884197989589868
30
0
10
2.7572320216073498
20
-1.8884197989589868
30
0
0
SPLINE
5
140
100
AcDbEntity
8
0
100
AcDbSpline
70
4
71
3
72
8
73
4
74
0
42
0.000000001
43
0.0000000001
44
0.0000000001
40
0
40
0
40
0
40
0
40
1
40
1
40
1
40
1
41
1
41
1
41
1
41
1
10
2.7572320216073498
20
-1.8884197989589868
30
0
10
2.551946706274939
20
-1.8884197989589868
30
0
10
2.3880707500956166
20
-2.0540578426120515
30
0
10
2.3880707500956166
20
-2.2575812210452817
30
0
0
SPLINE
5
141
100
AcDbEntity
8
0
100
AcDbSpline
70
4
71
3
72
8
73
4
74
0
42
0.000000001
43
0.0000000001
44
0.0000000001
40
0
40
0
40
0
40
0
40
1
40
1
40
1
40
1
41
1
41
1
41
1
41
1
10
2.3880707500956166
20
-2.2575812210452817
30
0
10
2.3880707500956166
20
-2.4611045069996518
30
0
10
2.551946706274939
20
-2.6267425316826909
30
0
10
2.7572320216073498
20
-2.6267425316826909
30
0
0
SPLINE
5
142
100
AcDbEntity
8
0
100
AcDbSpline
70
4
71
3
72
8
73
4
74
0
42
0.000000001
43
0.0000000001
44
0.0000000001
40
0
40
0
40
0
40
0
40
1
40
1
40
1
40
1
41
1
41
1
41
1
41
1
10
2.7572320216073498
20
-2.6267425316826909
30
0
10
2.9563502015118992
20
-2.6267425316826909
30
0
10
3.1202260521704739
20
-2.4690340523916365
30
0
10
3.1263934215835576
20
-2.2681538617826646
30
0
0
LWPOLYLINE
5
143
100
AcDbEntity
8
0
100
AcDbPolyline
90
2
70
1
43
0.0
10
3.1263934215835576
20
-2.2681538617826646
10
2.7572320216073471
20
-2.2575812210452839
0
SPLINE
5
144
100
AcDbEntity
8
0
100
AcDbSpline
70
4
71
3
72
8
73
4
74
0
42
0.000000001
43
0.0000000001
44
0.0000000001
40
0
40
0
40
0
40
0
40
1
40
1
40
1
40
1
41
1
41
1
41
1
41
1
10
3.1263934215835576
20
-4.0505250996666842
30
0
10
3.1263934215835576
20
-4.0487629870724806
30
0
10
3.1263934215835576
20
-4.046119834965225
30
0
10
3.1263934215835576
20
-4.039952463894112
30
0
0
SPLINE
5
145
100
AcDbEntity
8
0
100
AcDbSpline
70
4
71
3
72
8
73
4
74
0
42
0.000000001
43
0.0000000001
44
0.0000000001
40
0
40
0
40
0
40
0
40
1
40
1
40
1
40
1
41
1
41
1
41
1
41
1
10
3.1263934215835576
20
-4.039952463894112
30
0
10
3.1263934215835576
20
-3.8355480737359215
30
0
10
2.9625175076699639
20
-3.6707911686698491
30
0
10
2.7572320216073498
20
-3.6707911686698491
30
0
0
SPLINE
5
146
100
AcDbEntity
8
0
100
AcDbSpline
70
4
71
3
72
8
73
4
74
0
42
0.000000001
43
0.0000000001
44
0.0000000001
40
0
40
0
40
0
40
0
40
1
40
1
40
1
40
1
41
1
41
1
41
1
41
1
10
2.7572320216073498
20
-3.6707911686698491
30
0
10
2.551946706274939
20
-3.6707911686698491
30
0
10
2.3880707500956166
20
-3.8355480737359215
30
0
10
2.3880707500956166
20
-4.039952463894112
30
0
0
SPLINE
5
147
100
AcDbEntity
8
0
100
AcDbSpline
70
4
71
3
72
8
73
4
74
0
42
0.000000001
43
0.0000000001
44
0.0000000001
40
0
40
0
40
0
40
0
40
1
40
1
40
1
40
1
41
1
41
1
41
1
41
1
10
2.3880707500956166
20
-4.039952463894112
30
0
10
2.3880707500956166
20
-4.2434757059803019
30
0
10
2.551946706274939
20
-4.4091137496333666
30
0
10
2.7572320216073498
20
-4.4091137496333666
30
0
0
SPLINE
5
148
100
AcDbEntity
8
0
100
AcDbSpline
70
4
71
3
72
8
73
4
74
0
42
0.000000001
43
0.0000000001
44
0.0000000001
40
0
40
0
40
0
40
0
40
1
40
1
40
1
40
1
41
1
41
1
41
1
41
1
10
2.7572320216073498
20
-4.4091137496333666
30
0
10
2.9563502015118992
20
-4.4091137496333666
30
0
10
3.1202260521704739
20
-4.2514052513722866
30
0
10
3.1263934215835576
20
-4.0505250996666842
30
0
0
LWPOLYLINE
5
149
100
AcDbEntity
8
0
100
AcDbPolyline
90
2
70
1
43
0.0
10
3.1263934215835576
20
-4.0505250996666842
10
2.7572320216073471
20
-4.0399524638941138
0
SPLINE
5
150
100
AcDbEntity
8
0
100
AcDbSpline
70
4
71
3
72
8
73
4
74
0
42
0.000000001
43
0.0000000001
44
0.0000000001
40
0
40
0
40
0
40
0
40
1
40
1
40
1
40
1
41
1
41
1
41
1
41
1
10
3.1263934215835576
20
-5.8584469704249997
30
0
10
3.1263934215835576
20
-5.8566848649306724
30
0
10
3.1263934215835576
20
-5.8540416968174469
30
0
10
3.1263934215835576
20
-5.8469932754885257
30
0
0
SPLINE
5
151
100
AcDbEntity
8
0
100
AcDbSpline
70
4
71
3
72
8
73
4
74
0
42
0.000000001
43
0.0000000001
44
0.0000000001
40
0
40
0
40
0
40
0
40
1
40
1
40
1
40
1
41
1
41
1
41
1
41
1
10
3.1263934215835576
20
-5.8469932754885257
30
0
10
3.1263934215835576
20
-5.6434699266959587
30
0
10
2.9625175076699639
20
-5.4778319020129196
30
0
10
2.7572320216073498
20
-5.4778319020129196
30
0
0
SPLINE
5
152
100
AcDbEntity
8
0
100
AcDbSpline
70
4
71
3
72
8
73
4
74
0
42
0.000000001
43
0.0000000001
44
0.0000000001
40
0
40
0
40
0
40
0
40
1
40
1
40
1
40
1
41
1
41
1
41
1
41
1
10
2.7572320216073498
20
-5.4778319020129196
30
0
10
2.551946706274939
20
-5.4778319020129196
30
0
10
2.3880707500956166
20
-5.6434699266959587
30
0
10
2.3880707500956166
20
-5.8469932754885257
30
0
0
SPLINE
5
153
100
AcDbEntity
8
0
100
AcDbSpline
70
4
71
3
72
8
73
4
74
0
42
0.000000001
43
0.0000000001
44
0.0000000001
40
0
40
0
40
0
40
0
40
1
40
1
40
1
40
1
41
1
41
1
41
1
41
1
10
2.3880707500956166
20
-5.8469932754885257
30
0
10
2.3880707500956166
20
-6.0513977107005168
30
0
10
2.551946706274939
20
-6.2161546347366237
30
0
10
2.7572320216073498
20
-6.2161546347366237
30
0
0
SPLINE
5
154
100
AcDbEntity
8
0
100
AcDbSpline
70
4
71
3
72
8
73
4
74
0
42
0.000000001
43
0.0000000001
44
0.0000000001
40
0
40
0
40
0
40
0
40
1
40
1
40
1
40
1
41
1
41
1
41
1
41
1
10
2.7572320216073498
20
-6.2161546347366237
30
0
10
2.9563502015118992
20
-6.2161546347366237
30
0
10
3.1202260521704739
20
-6.0593271043323149
30
0
10
3.1263934215835576
20
-5.8584469704249997
30
0
0
LWPOLYLINE
5
155
100
AcDbEntity
8
0
100
AcDbPolyline
90
2
70
1
43
0.0
10
3.1263934215835576
20
-5.8584469704249997
10
2.7572320216073471
20
-5.8469932754885221
0
SPLINE
5
156
100
AcDbEntity
8
0
100
AcDbSpline
70
4
71
3
72
8
73
4
74
0
42
0.000000001
43
0.0000000001
44
0.0000000001
40
0
40
0
40
0
40
0
40
1
40
1
40
1
40
1
41
1
41
1
41
1
41
1
10
3.1263934215835576
20
-7.6663688113883222
30
0
10
3.1263934215835576
20
-7.6646066977844907
30
0
10
3.1263934215835576
20
-7.6610824948266032
30
0
10
3.1263934215835576
20
-7.6549151246447167
30
0
0
SPLINE
5
157
100
AcDbEntity
8
0
100
AcDbSpline
70
4
71
3
72
8
73
4
74
0
42
0.000000001
43
0.0000000001
44
0.0000000001
40
0
40
0
40
0
40
0
40
1
40
1
40
1
40
1
41
1
41
1
41
1
41
1
10
3.1263934215835576
20
-7.6549151246447167
30
0
10
3.1263934215835576
20
-7.4513917497683568
30
0
10
2.9625175076699639
20
-7.2857536871452755
30
0
10
2.7572320216073498
20
-7.2857536871452755
30
0
0
SPLINE
5
158
100
AcDbEntity
8
0
100
AcDbSpline
70
4
71
3
72
8
73
4
74
0
42
0.000000001
43
0.0000000001
44
0.0000000001
40
0
40
0
40
0
40
0
40
1
40
1
40
1
40
1
41
1
41
1
41
1
41
1
10
2.7572320216073498
20
-7.2857536871452755
30
0
10
2.551946706274939
20
-7.2857536871452755
30
0
10
2.3880707500956166
20
-7.4513917497683568
30
0
10
2.3880707500956166
20
-7.6549151246447167
30
0
0
SPLINE
5
159
100
AcDbEntity
8
0
100
AcDbSpline
70
4
71
3
72
8
73
4
74
0
42
0.000000001
43
0.0000000001
44
0.0000000001
40
0
40
0
40
0
40
0
40
1
40
1
40
1
40
1
41
1
41
1
41
1
41
1
10
2.3880707500956166
20
-7.6549151246447167
30
0
10
2.3880707500956166
20
-7.858438414155966
30
0
10
2.551946706274939
20
-8.0240764578090218
30
0
10
2.7572320216073498
20
-8.0240764578090218
30
0
0
SPLINE
5
160
100
AcDbEntity
8
0
100
AcDbSpline
70
4
71
3
72
8
73
4
74
0
42
0.000000001
43
0.0000000001
44
0.0000000001
40
0
40
0
40
0
40
0
40
1
40
1
40
1
40
1
41
1
41
1
41
1
41
1
10
2.7572320216073498
20
-8.0240764578090218
30
0
10
2.9563502015118992
20
-8.0240764578090218
30
0
10
3.1202260521704739
20
-7.8663679595479419
30
0
10
3.1263934215835576
20
-7.6663688113883222
30
0
0
LWPOLYLINE
5
161
100
AcDbEntity
8
0
100
AcDbPolyline
90
2
70
1
43
0.0
10
3.1263934215835576
20
-7.6663688113883222
10
2.7572320216073471
20
-7.6549151246447176
0
SPLINE
5
162
100
AcDbEntity
8
0
100
AcDbSpline
70
4
71
3
72
8
73
4
74
0
42
0.000000001
43
0.0000000001
44
0.0000000001
40
0
40
0
40
0
40
0
40
1
40
1
40
1
40
1
41
1
41
1
41
1
41
1
10
3.1263934215835576
20
-0.46111300843529435
30
0
10
3.1263934215835576
20
-0.45935090073180529
30
0
10
3.1263934215835576
20
-0.45582669317961955
30
0
10
3.1263934215835576
20
-0.44965932181209922
30
0
0
SPLINE
5
163
100
AcDbEntity
8
0
100
AcDbSpline
70
4
71
3
72
8
73
4
74
0
42
0.000000001
43
0.0000000001
44
0.0000000001
40
0
40
0
40
0
40
0
40
1
40
1
40
1
40
1
41
1
41
1
41
1
41
1
10
3.1263934215835576
20
-0.44965932181209922
30
0
10
3.1263934215835576
20
-0.24613596472014443
30
0
10
2.9625175076699639
20
-0.08049790209706309
30
0
10
2.7572320216073498
20
-0.08049790209706309
30
0
0
SPLINE
5
164
100
AcDbEntity
8
0
100
AcDbSpline
70
4
71
3
72
8
73
4
74
0
42
0.000000001
43
0.0000000001
44
0.0000000001
40
0
40
0
40
0
40
0
40
1
40
1
40
1
40
1
41
1
41
1
41
1
41
1
10
2.7572320216073498
20
-0.08049790209706309
30
0
10
2.551946706274939
20
-0.08049790209706309
30
0
10
2.3880707500956166
20
-0.24613596472014443
30
0
10
2.3880707500956166
20
-0.44965932181209922
30
0
0
SPLINE
5
165
100
AcDbEntity
8
0
100
AcDbSpline
70
4
71
3
72
8
73
4
74
0
42
0.000000001
43
0.0000000001
44
0.0000000001
40
0
40
0
40
0
40
0
40
1
40
1
40
1
40
1
41
1
41
1
41
1
41
1
10
2.3880707500956166
20
-0.44965932181209922
30
0
10
2.3880707500956166
20
-0.65318262910774916
30
0
10
2.551946706274939
20
-0.81882067276080939
30
0
10
2.7572320216073498
20
-0.81882067276080939
30
0
0
SPLINE
5
166
100
AcDbEntity
8
0
100
AcDbSpline
70
4
71
3
72
8
73
4
74
0
42
0.000000001
43
0.0000000001
44
0.0000000001
40
0
40
0
40
0
40
0
40
1
40
1
40
1
40
1
41
1
41
1
41
1
41
1
10
2.7572320216073498
20
-0.81882067276080939
30
0
10
2.9563502015118992
20
-0.81882067276080939
30
0
10
3.1202260521704739
20
-0.66111217449972504
30
0
10
3.1263934215835576
20
-0.46111300843529435
30
0
0
LWPOLYLINE
5
167
100
AcDbEntity
8
0
100
AcDbPolyline
90
2
70
1
43
0.0
10
3.1263934215835576
20
-0.46111300843529435
10
2.7572320216073471
20
-0.44965932181209872
0
SPLINE
5
168
100
AcDbEntity
8
0
100
AcDbSpline
70
4
71
3
72
8
73
4
74
0
42
0.000000001
43
0.0000000001
44
0.0000000001
40
0
40
0
40
0
40
0
40
1
40
1
40
1
40
1
41
1
41
1
41
1
41
1
10
4.017138514220302
20
-12.098068037816025
30
0
10
4.017138514220302
20
-12.101592256397788
30
0
10
4.017138514220302
20
-12.093662768212283
30
0
10
4.017138514220302
20
-12.072517472806412
30
0
0
SPLINE
5
169
100
AcDbEntity
8
0
100
AcDbSpline
70
4
71
3
72
8
73
4
74
0
42
0.000000001
43
0.0000000001
44
0.0000000001
40
0
40
0
40
0
40
0
40
1
40
1
40
1
40
1
41
1
41
1
41
1
41
1
10
4.017138514220302
20
-12.072517472806412
30
0
10
4.017138514220302
20
-11.385295834065383
30
0
10
3.4585506944655764
20
-10.824946022891186
30
0
10
2.7695670180471232
20
-10.824946022891186
30
0
0
SPLINE
5
170
100
AcDbEntity
8
0
100
AcDbSpline
70
4
71
3
72
8
73
4
74
0
42
0.000000001
43
0.0000000001
44
0.0000000001
40
0
40
0
40
0
40
0
40
1
40
1
40
1
40
1
41
1
41
1
41
1
41
1
10
2.7695670180471232
20
-10.824946022891186
30
0
10
2.0805833036886234
20
-10.824946022891186
30
0
10
1.5219955041080735
20
-11.385295834065383
30
0
10
1.5219955041080735
20
-12.072517472806412
30
0
0
SPLINE
5
171
100
AcDbEntity
8
0
100
AcDbSpline
70
4
71
3
72
8
73
4
74
0
42
0.000000001
43
0.0000000001
44
0.0000000001
40
0
40
0
40
0
40
0
40
1
40
1
40
1
40
1
41
1
41
1
41
1
41
1
10
1.5219955041080735
20
-12.072517472806412
30
0
10
1.5219955041080735
20
-12.759739087834916
30
0
10
2.0805833036886234
20
-13.320088974889206
30
0
10
2.7695670180471232
20
-13.320088974889206
30
0
0
SPLINE
5
172
100
AcDbEntity
8
0
100
AcDbSpline
70
4
71
3
72
8
73
4
74
0
42
0.000000001
43
0.0000000001
44
0.0000000001
40
0
40
0
40
0
40
0
40
1
40
1
40
1
40
1
41
1
41
1
41
1
41
1
10
2.7695670180471232
20
-13.320088974889206
30
0
10
3.4488590615998671
20
-13.320088974889206
30
0
10
4.0030416685798675
20
-12.77559802685869
30
0
10
4.017138514220302
20
-12.098068037816025
30
0
0
SPLINE
5
173
100
AcDbEntity
8
0
100
AcDbSpline
70
4
71
3
72
8
73
4
74
0
42
0.000000001
43
0.0000000001
44
0.0000000001
40
0
40
0
40
0
40
0
40
1
40
1
40
1
40
1
41
1
41
1
41
1
41
1
10
3.1501818150928163
20
6.7194734425130154
30
0
10
3.1519439265940097
20
6.7256408167149173
30
0
10
3.1519439265940097
20
6.7335702891908777
30
0
10
3.1519439265940097
20
6.7432619102003244
30
0
0
SPLINE
5
174
100
AcDbEntity
8
0
100
AcDbSpline
70
4
71
3
72
8
73
4
74
0
42
0.000000001
43
0.0000000001
44
0.0000000001
40
0
40
0
40
0
40
0
40
1
40
1
40
1
40
1
41
1
41
1
41
1
41
1
10
3.1519439265940097
20
6.7432619102003244
30
0
10
3.1519439265940097
20
6.9529526386597951
30
0
10
2.981019599623087
20
7.1247580074409456
30
0
10
2.7695668074024082
20
7.1247580074409456
30
0
0
SPLINE
5
175
100
AcDbEntity
8
0
100
AcDbSpline
70
4
71
3
72
8
73
4
74
0
42
0.000000001
43
0.0000000001
44
0.0000000001
40
0
40
0
40
0
40
0
40
1
40
1
40
1
40
1
41
1
41
1
41
1
41
1
10
2.7695668074024082
20
7.1247580074409456
30
0
10
2.5581139962117083
20
7.1247580074409456
30
0
10
2.3880706959342701
20
6.9529526386597951
30
0
10
2.3880706959342701
20
6.7432619102003244
30
0
0
SPLINE
5
176
100
AcDbEntity
8
0
100
AcDbSpline
70
4
71
3
72
8
73
4
74
0
42
0.000000001
43
0.0000000001
44
0.0000000001
40
0
40
0
40
0
40
0
40
1
40
1
40
1
40
1
41
1
41
1
41
1
41
1
10
2.3880706959342701
20
6.7432619102003244
30
0
10
2.3880706959342701
20
6.5326900526388831
30
0
10
2.5581139962117083
20
6.3608847028277538
30
0
10
2.7695668074024082
20
6.3608847028277538
30
0
0
SPLINE
5
177
100
AcDbEntity
8
0
100
AcDbSpline
70
4
71
3
72
8
73
4
74
0
42
0.000000001
43
0.0000000001
44
0.0000000001
40
0
40
0
40
0
40
0
40
1
40
1
40
1
40
1
41
1
41
1
41
1
41
1
10
2.7695668074024082
20
6.3608847028277538
30
0
10
2.9722090863743311
20
6.3608847028277538
30
0
10
3.138728118039813
20
6.5185933528490159
30
0
10
3.1501818150928163
20
6.7194734425130154
30
0
0
SPLINE
5
178
100
AcDbEntity
8
0
100
AcDbSpline
70
4
71
3
72
8
73
4
74
0
42
0.000000001
43
0.0000000001
44
0.0000000001
40
0
40
0
40
0
40
0
40
1
40
1
40
1
40
1
41
1
41
1
41
1
41
1
10
3.1501818150928163
20
4.9115516664434589
30
0
10
3.1519439265940097
20
4.9177190326447029
30
0
10
3.1519439265940097
20
4.9256485211266154
30
0
10
3.1519439265940097
20
4.935340157549204
30
0
0
SPLINE
5
179
100
AcDbEntity
8
0
100
AcDbSpline
70
4
71
3
72
8
73
4
74
0
42
0.000000001
43
0.0000000001
44
0.0000000001
40
0
40
0
40
0
40
0
40
1
40
1
40
1
40
1
41
1
41
1
41
1
41
1
10
3.1519439265940097
20
4.935340157549204
30
0
10
3.1519439265940097
20
5.1459118443804464
30
0
10
2.981019599623087
20
5.317717213161588
30
0
10
2.7695668074024082
20
5.317717213161588
30
0
0
SPLINE
5
180
100
AcDbEntity
8
0
100
AcDbSpline
70
4
71
3
72
8
73
4
74
0
42
0.000000001
43
0.0000000001
44
0.0000000001
40
0
40
0
40
0
40
0
40
1
40
1
40
1
40
1
41
1
41
1
41
1
41
1
10
2.7695668074024082
20
5.317717213161588
30
0
10
2.5581139962117083
20
5.317717213161588
30
0
10
2.3880706959342701
20
5.1459118443804464
30
0
10
2.3880706959342701
20
4.935340157549204
30
0
0
SPLINE
5
181
100
AcDbEntity
8
0
100
AcDbSpline
70
4
71
3
72
8
73
4
74
0
42
0.000000001
43
0.0000000001
44
0.0000000001
40
0
40
0
40
0
40
0
40
1
40
1
40
1
40
1
41
1
41
1
41
1
41
1
10
2.3880706959342701
20
4.935340157549204
30
0
10
2.3880706959342701
20
4.7256494290897333
30
0
10
2.5581139962117083
20
4.5538440603085828
30
0
10
2.7695668074024082
20
4.5538440603085828
30
0
0
SPLINE
5
182
100
AcDbEntity
8
0
100
AcDbSpline
70
4
71
3
72
8
73
4
74
0
42
0.000000001
43
0.0000000001
44
0.0000000001
40
0
40
0
40
0
40
0
40
1
40
1
40
1
40
1
41
1
41
1
41
1
41
1
10
2.7695668074024082
20
4.5538440603085828
30
0
10
2.9722090863743311
20
4.5538440603085828
30
0
10
3.138728118039813
20
4.7106714389527049
30
0
10
3.1501818150928163
20
4.9115516664434589
30
0
0
SPLINE
5
183
100
AcDbEntity
8
0
100
AcDbSpline
70
4
71
3
72
8
73
4
74
0
42
0.000000001
43
0.0000000001
44
0.0000000001
40
0
40
0
40
0
40
0
40
1
40
1
40
1
40
1
41
1
41
1
41
1
41
1
10
3.1501818150928163
20
3.1291802967629812
30
0
10
3.1519439265940097
20
3.1353476746329179
30
0
10
3.1519439265940097
20
3.1432771471088694
30
0
10
3.1519439265940097
20
3.1529686720825723
30
0
0
SPLINE
5
184
100
AcDbEntity
8
0
100
AcDbSpline
70
4
71
3
72
8
73
4
74
0
42
0.000000001
43
0.0000000001
44
0.0000000001
40
0
40
0
40
0
40
0
40
1
40
1
40
1
40
1
41
1
41
1
41
1
41
1
10
3.1519439265940097
20
3.1529686720825723
30
0
10
3.1519439265940097
20
3.3635405296440224
30
0
10
2.981019599623087
20
3.535345898425164
30
0
10
2.7695668074024082
20
3.535345898425164
30
0
0
SPLINE
5
185
100
AcDbEntity
8
0
100
AcDbSpline
70
4
71
3
72
8
73
4
74
0
42
0.000000001
43
0.0000000001
44
0.0000000001
40
0
40
0
40
0
40
0
40
1
40
1
40
1
40
1
41
1
41
1
41
1
41
1
10
2.7695668074024082
20
3.535345898425164
30
0
10
2.5581139962117083
20
3.535345898425164
30
0
10
2.3880706959342701
20
3.3635405296440224
30
0
10
2.3880706959342701
20
3.1529686720825723
30
0
0
SPLINE
5
186
100
AcDbEntity
8
0
100
AcDbSpline
70
4
71
3
72
8
73
4
74
0
42
0.000000001
43
0.0000000001
44
0.0000000001
40
0
40
0
40
0
40
0
40
1
40
1
40
1
40
1
41
1
41
1
41
1
41
1
10
2.3880706959342701
20
3.1529686720825723
30
0
10
2.3880706959342701
20
2.9432780953832882
30
0
10
2.5581139962117083
20
2.77147255587193
30
0
10
2.7695668074024082
20
2.77147255587193
30
0
0
SPLINE
5
187
100
AcDbEntity
8
0
100
AcDbSpline
70
4
71
3
72
8
73
4
74
0
42
0.000000001
43
0.0000000001
44
0.0000000001
40
0
40
0
40
0
40
0
40
1
40
1
40
1
40
1
41
1
41
1
41
1
41
1
10
2.7695668074024082
20
2.77147255587193
30
0
10
2.9722090863743311
20
2.77147255587193
30
0
10
3.138728118039813
20
2.9291812248632176
30
0
10
3.1501818150928163
20
3.1291802967629812
30
0
0
SPLINE
5
188
100
AcDbEntity
8
0
100
AcDbSpline
70
4
71
3
72
8
73
4
74
0
42
0.000000001
43
0.0000000001
44
0.0000000001
40
0
40
0
40
0
40
0
40
1
40
1
40
1
40
1
41
1
41
1
41
1
41
1
10
3.1501818150928163
20
1.3212583609325801
30
0
10
3.1519439265940097
20
1.3283067825393857
30
0
10
3.1519439265940097
20
1.3362362710212938
30
0
10
3.1519439265940097
20
1.3450467605575156
30
0
0
SPLINE
5
189
100
AcDbEntity
8
0
100
AcDbSpline
70
4
71
3
72
8
73
4
74
0
42
0.000000001
43
0.0000000001
44
0.0000000001
40
0
40
0
40
0
40
0
40
1
40
1
40
1
40
1
41
1
41
1
41
1
41
1
10
3.1519439265940097
20
1.3450467605575156
30
0
10
3.1519439265940097
20
1.5556186157477114
30
0
10
2.981019599623087
20
1.727423984528853
30
0
10
2.7695668074024082
20
1.727423984528853
30
0
0
SPLINE
5
190
100
AcDbEntity
8
0
100
AcDbSpline
70
4
71
3
72
8
73
4
74
0
42
0.000000001
43
0.0000000001
44
0.0000000001
40
0
40
0
40
0
40
0
40
1
40
1
40
1
40
1
41
1
41
1
41
1
41
1
10
2.7695668074024082
20
1.727423984528853
30
0
10
2.5581139962117083
20
1.727423984528853
30
0
10
2.3880706959342701
20
1.5556186157477114
30
0
10
2.3880706959342701
20
1.3450467605575156
30
0
0
SPLINE
5
191
100
AcDbEntity
8
0
100
AcDbSpline
70
4
71
3
72
8
73
4
74
0
42
0.000000001
43
0.0000000001
44
0.0000000001
40
0
40
0
40
0
40
0
40
1
40
1
40
1
40
1
41
1
41
1
41
1
41
1
10
2.3880706959342701
20
1.3450467605575156
30
0
10
2.3880706959342701
20
1.1353561814869728
30
0
10
2.5581139962117083
20
0.96355067991567012
30
0
10
2.7695668074024082
20
0.96355067991567012
30
0
0
SPLINE
5
192
100
AcDbEntity
8
0
100
AcDbSpline
70
4
71
3
72
8
73
4
74
0
42
0.000000001
43
0.0000000001
44
0.0000000001
40
0
40
0
40
0
40
0
40
1
40
1
40
1
40
1
41
1
41
1
41
1
41
1
10
2.7695668074024082
20
0.96355067991567012
30
0
10
2.9722090863743311
20
0.96355067991567012
30
0
10
3.138728118039813
20
1.1212593109669067
30
0
10
3.1501818150928163
20
1.3212583609325801
30
0
0
SPLINE
5
193
100
AcDbEntity
8
0
100
AcDbSpline
70
4
71
3
72
8
73
4
74
0
42
0.000000001
43
0.0000000001
44
0.0000000001
40
0
40
0
40
0
40
0
40
1
40
1
40
1
40
1
41
1
41
1
41
1
41
1
10
3.1501818150928163
20
8.5273952182653225
30
0
10
3.1519439265940097
20
8.5335625841863649
30
0
10
3.1519439265940097
20
8.5414920726682819
30
0
10
3.1519439265940097
20
8.5511836628514395
30
0
0
SPLINE
5
194
100
AcDbEntity
8
0
100
AcDbSpline
70
4
71
3
72
8
73
4
74
0
42
0.000000001
43
0.0000000001
44
0.0000000001
40
0
40
0
40
0
40
0
40
1
40
1
40
1
40
1
41
1
41
1
41
1
41
1
10
3.1519439265940097
20
8.5511836628514395
30
0
10
3.1519439265940097
20
8.7608744007959238
30
0
10
2.981019599623087
20
8.9326797695770708
30
0
10
2.7695668074024082
20
8.9326797695770708
30
0
0
SPLINE
5
195
100
AcDbEntity
8
0
100
AcDbSpline
70
4
71
3
72
8
73
4
74
0
42
0.000000001
43
0.0000000001
44
0.0000000001
40
0
40
0
40
0
40
0
40
1
40
1
40
1
40
1
41
1
41
1
41
1
41
1
10
2.7695668074024082
20
8.9326797695770708
30
0
10
2.5581139962117083
20
8.9326797695770708
30
0
10
2.3880706959342701
20
8.7608744007959238
30
0
10
2.3880706959342701
20
8.5511836628514395
30
0
0
SPLINE
5
196
100
AcDbEntity
8
0
100
AcDbSpline
70
4
71
3
72
8
73
4
74
0
42
0.000000001
43
0.0000000001
44
0.0000000001
40
0
40
0
40
0
40
0
40
1
40
1
40
1
40
1
41
1
41
1
41
1
41
1
10
2.3880706959342701
20
8.5511836628514395
30
0
10
2.3880706959342701
20
8.3406119665351888
30
0
10
2.5581139962117083
20
8.1688064649638825
30
0
10
2.7695668074024082
20
8.1688064649638825
30
0
0
SPLINE
5
197
100
AcDbEntity
8
0
100
AcDbSpline
70
4
71
3
72
8
73
4
74
0
42
0.000000001
43
0.0000000001
44
0.0000000001
40
0
40
0
40
0
40
0
40
1
40
1
40
1
40
1
41
1
41
1
41
1
41
1
10
2.7695668074024082
20
8.1688064649638825
30
0
10
2.9722090863743311
20
8.1688064649638825
30
0
10
3.138728118039813
20
8.3265150960151182
30
0
10
3.1501818150928163
20
8.5273952182653225
30
0
0
SPLINE
5
198
100
AcDbEntity
8
0
100
AcDbSpline
70
4
71
3
72
8
73
4
74
0
42
0.000000001
43
0.0000000001
44
0.0000000001
40
0
40
0
40
0
40
0
40
1
40
1
40
1
40
1
41
1
41
1
41
1
41
1
10
3.1501818150928163
20
-2.2937042017136378
30
0
10
3.1519439265940097
20
-2.2875368340882485
30
0
10
3.1519439265940097
20
-2.2796073461991551
30
0
10
3.1519439265940097
20
-2.2699156931777864
30
0
0
SPLINE
5
199
100
AcDbEntity
8
0
100
AcDbSpline
70
4
71
3
72
8
73
4
74
0
42
0.000000001
43
0.0000000001
44
0.0000000001
40
0
40
0
40
0
40
0
40
1
40
1
40
1
40
1
41
1
41
1
41
1
41
1
10
3.1519439265940097
20
-2.2699156931777864
30
0
10
3.1519439265940097
20
-2.0602251212210021
30
0
10
2.981019599623087
20
-1.8884196006796738
30
0
10
2.7695668074024082
20
-1.8884196006796738
30
0
0
SPLINE
5
200
100
AcDbEntity
8
0
100
AcDbSpline
70
4
71
3
72
8
73
4
74
0
42
0.000000001
43
0.0000000001
44
0.0000000001
40
0
40
0
40
0
40
0
40
1
40
1
40
1
40
1
41
1
41
1
41
1
41
1
10
2.7695668074024082
20
-1.8884196006796738
30
0
10
2.5581139962117083
20
-1.8884196006796738
30
0
10
2.3880706959342701
20
-2.0602251212210021
30
0
10
2.3880706959342701
20
-2.2699156931777864
30
0
0
SPLINE
5
201
100
AcDbEntity
8
0
100
AcDbSpline
70
4
71
3
72
8
73
4
74
0
42
0.000000001
43
0.0000000001
44
0.0000000001
40
0
40
0
40
0
40
0
40
1
40
1
40
1
40
1
41
1
41
1
41
1
41
1
10
2.3880706959342701
20
-2.2699156931777864
30
0
10
2.3880706959342701
20
-2.4804875365117152
30
0
10
2.5581139962117083
20
-2.6522929052928657
30
0
10
2.7695668074024082
20
-2.6522929052928657
30
0
0
SPLINE
5
202
100
AcDbEntity
8
0
100
AcDbSpline
70
4
71
3
72
8
73
4
74
0
42
0.000000001
43
0.0000000001
44
0.0000000001
40
0
40
0
40
0
40
0
40
1
40
1
40
1
40
1
41
1
41
1
41
1
41
1
10
2.7695668074024082
20
-2.6522929052928657
30
0
10
2.9722090863743311
20
-2.6522929052928657
30
0
10
3.138728118039813
20
-2.4945844260018024
30
0
10
3.1501818150928163
20
-2.2937042017136378
30
0
0
SPLINE
5
203
100
AcDbEntity
8
0
100
AcDbSpline
70
4
71
3
72
8
73
4
74
0
42
0.000000001
43
0.0000000001
44
0.0000000001
40
0
40
0
40
0
40
0
40
1
40
1
40
1
40
1
41
1
41
1
41
1
41
1
10
3.1501818150928163
20
-4.0760756657957486
30
0
10
3.1519439265940097
20
-4.06990828648083
30
0
10
3.1519439265940097
20
-4.0619788145976887
30
0
10
3.1519439265940097
20
-4.0522872718395853
30
0
0
SPLINE
5
204
100
AcDbEntity
8
0
100
AcDbSpline
70
4
71
3
72
8
73
4
74
0
42
0.000000001
43
0.0000000001
44
0.0000000001
40
0
40
0
40
0
40
0
40
1
40
1
40
1
40
1
41
1
41
1
41
1
41
1
10
3.1519439265940097
20
-4.0522872718395853
30
0
10
3.1519439265940097
20
-3.8425965457513644
30
0
10
2.981019599623087
20
-3.6707911580001973
30
0
10
2.7695668074024082
20
-3.6707911580001973
30
0
0
SPLINE
5
205
100
AcDbEntity
8
0
100
AcDbSpline
70
4
71
3
72
8
73
4
74
0
42
0.000000001
43
0.0000000001
44
0.0000000001
40
0
40
0
40
0
40
0
40
1
40
1
40
1
40
1
41
1
41
1
41
1
41
1
10
2.7695668074024082
20
-3.6707911580001973
30
0
10
2.5581139962117083
20
-3.6707911580001973
30
0
10
2.3880706959342701
20
-3.8425965457513644
30
0
10
2.3880706959342701
20
-4.0522872718395853
30
0
0
SPLINE
5
206
100
AcDbEntity
8
0
100
AcDbSpline
70
4
71
3
72
8
73
4
74
0
42
0.000000001
43
0.0000000001
44
0.0000000001
40
0
40
0
40
0
40
0
40
1
40
1
40
1
40
1
41
1
41
1
41
1
41
1
10
2.3880706959342701
20
-4.0522872718395853
30
0
10
2.3880706959342701
20
-4.2619778414251197
30
0
10
2.5581139962117083
20
-4.4346643108532025
30
0
10
2.7695668074024082
20
-4.4346643108532025
30
0
0
SPLINE
5
207
100
AcDbEntity
8
0
100
AcDbSpline
70
4
71
3
72
8
73
4
74
0
42
0.000000001
43
0.0000000001
44
0.0000000001
40
0
40
0
40
0
40
0
40
1
40
1
40
1
40
1
41
1
41
1
41
1
41
1
10
2.7695668074024082
20
-4.4346643108532025
30
0
10
2.9722090863743311
20
-4.4346643108532025
30
0
10
3.138728118039813
20
-4.2769558315621481
30
0
10
3.1501818150928163
20
-4.0760756657957486
30
0
0
SPLINE
5
208
100
AcDbEntity
8
0
100
AcDbSpline
70
4
71
3
72
8
73
4
74
0
42
0.000000001
43
0.0000000001
44
0.0000000001
40
0
40
0
40
0
40
0
40
1
40
1
40
1
40
1
41
1
41
1
41
1
41
1
10
3.1501818150928163
20
-5.8839975733375649
30
0
10
3.1519439265940097
20
-5.8778302017199646
30
0
10
3.1519439265940097
20
-5.8699007138308623
30
0
10
3.1519439265940097
20
-5.8602091568452419
30
0
0
SPLINE
5
209
100
AcDbEntity
8
0
100
AcDbSpline
70
4
71
3
72
8
73
4
74
0
42
0.000000001
43
0.0000000001
44
0.0000000001
40
0
40
0
40
0
40
0
40
1
40
1
40
1
40
1
41
1
41
1
41
1
41
1
10
3.1519439265940097
20
-5.8602091568452419
30
0
10
3.1519439265940097
20
-5.6496374747565081
30
0
10
2.981019599623087
20
-5.4778319352451543
30
0
10
2.7695668074024082
20
-5.4778319352451543
30
0
0
SPLINE
5
210
100
AcDbEntity
8
0
100
AcDbSpline
70
4
71
3
72
8
73
4
74
0
42
0.000000001
43
0.0000000001
44
0.0000000001
40
0
40
0
40
0
40
0
40
1
40
1
40
1
40
1
41
1
41
1
41
1
41
1
10
2.7695668074024082
20
-5.4778319352451543
30
0
10
2.5581139962117083
20
-5.4778319352451543
30
0
10
2.3880706959342701
20
-5.6496374747565081
30
0
10
2.3880706959342701
20
-5.8602091568452419
30
0
0
SPLINE
5
211
100
AcDbEntity
8
0
100
AcDbSpline
70
4
71
3
72
8
73
4
74
0
42
0.000000001
43
0.0000000001
44
0.0000000001
40
0
40
0
40
0
40
0
40
1
40
1
40
1
40
1
41
1
41
1
41
1
41
1
10
2.3880706959342701
20
-5.8602091568452419
30
0
10
2.3880706959342701
20
-6.0698998900472212
30
0
10
2.5581139962117083
20
-6.2417052398583461
30
0
10
2.7695668074024082
20
-6.2417052398583461
30
0
0
SPLINE
5
212
100
AcDbEntity
8
0
100
AcDbSpline
70
4
71
3
72
8
73
4
74
0
42
0.000000001
43
0.0000000001
44
0.0000000001
40
0
40
0
40
0
40
0
40
1
40
1
40
1
40
1
41
1
41
1
41
1
41
1
10
2.7695668074024082
20
-6.2417052398583461
30
0
10
2.9722090863743311
20
-6.2417052398583461
30
0
10
3.138728118039813
20
-6.0848777284240629
30
0
10
3.1501818150928163
20
-5.8839975733375649
30
0
0
SPLINE
5
213
100
AcDbEntity
8
0
100
AcDbSpline
70
4
71
3
72
8
73
4
74
0
42
0.000000001
43
0.0000000001
44
0.0000000001
40
0
40
0
40
0
40
0
40
1
40
1
40
1
40
1
41
1
41
1
41
1
41
1
10
3.1501818150928163
20
-7.6919194437763405
30
0
10
3.1519439265940097
20
-7.6857520635721954
30
0
10
3.1519439265940097
20
-7.6778225916890541
30
0
10
3.1519439265940097
20
-7.6681310026915206
30
0
0
SPLINE
5
214
100
AcDbEntity
8
0
100
AcDbSpline
70
4
71
3
72
8
73
4
74
0
42
0.000000001
43
0.0000000001
44
0.0000000001
40
0
40
0
40
0
40
0
40
1
40
1
40
1
40
1
41
1
41
1
41
1
41
1
10
3.1519439265940097
20
-7.6681310026915206
30
0
10
3.1519439265940097
20
-7.4575593087465286
30
0
10
2.981019599623087
20
-7.2857537882052004
30
0
10
2.7695668074024082
20
-7.2857537882052004
30
0
0
SPLINE
5
215
100
AcDbEntity
8
0
100
AcDbSpline
70
4
71
3
72
8
73
4
74
0
42
0.000000001
43
0.0000000001
44
0.0000000001
40
0
40
0
40
0
40
0
40
1
40
1
40
1
40
1
41
1
41
1
41
1
41
1
10
2.7695668074024082
20
-7.2857537882052004
30
0
10
2.5581139962117083
20
-7.2857537882052004
30
0
10
2.3880706959342701
20
-7.4575593087465286
30
0
10
2.3880706959342701
20
-7.6681310026915206
30
0
0
SPLINE
5
216
100
AcDbEntity
8
0
100
AcDbSpline
70
4
71
3
72
8
73
4
74
0
42
0.000000001
43
0.0000000001
44
0.0000000001
40
0
40
0
40
0
40
0
40
1
40
1
40
1
40
1
41
1
41
1
41
1
41
1
10
2.3880706959342701
20
-7.6681310026915206
30
0
10
2.3880706959342701
20
-7.8778217430072583
30
0
10
2.5581139962117083
20
-8.0496270928183833
30
0
10
2.7695668074024082
20
-8.0496270928183833
30
0
0
SPLINE
5
217
100
AcDbEntity
8
0
100
AcDbSpline
70
4
71
3
72
8
73
4
74
0
42
0.000000001
43
0.0000000001
44
0.0000000001
40
0
40
0
40
0
40
0
40
1
40
1
40
1
40
1
41
1
41
1
41
1
41
1
10
2.7695668074024082
20
-8.0496270928183833
30
0
10
2.9722090863743311
20
-8.0496270928183833
30
0
10
3.138728118039813
20
-7.89191861352732
30
0
10
3.1501818150928163
20
-7.6919194437763405
30
0
0
SPLINE
5
218
100
AcDbEntity
8
0
100
AcDbSpline
70
4
71
3
72
8
73
4
74
0
42
0.000000001
43
0.0000000001
44
0.0000000001
40
0
40
0
40
0
40
0
40
1
40
1
40
1
40
1
41
1
41
1
41
1
41
1
10
3.1501818150928163
20
-0.48578236093093974
30
0
10
3.1519439265940097
20
-0.47961498552487658
30
0
10
3.1519439265940097
20
-0.47168551364173528
30
0
10
3.1519439265940097
20
-0.46199387484789245
30
0
0
SPLINE
5
219
100
AcDbEntity
8
0
100
AcDbSpline
70
4
71
3
72
8
73
4
74
0
42
0.000000001
43
0.0000000001
44
0.0000000001
40
0
40
0
40
0
40
0
40
1
40
1
40
1
40
1
41
1
41
1
41
1
41
1
10
3.1519439265940097
20
-0.46199387484789245
30
0
10
3.1519439265940097
20
-0.25230329814859953
30
0
10
2.981019599623087
20
-0.080497777607271281
30
0
10
2.7695668074024082
20
-0.080497777607271281
30
0
0
SPLINE
5
220
100
AcDbEntity
8
0
100
AcDbSpline
70
4
71
3
72
8
73
4
74
0
42
0.000000001
43
0.0000000001
44
0.0000000001
40
0
40
0
40
0
40
0
40
1
40
1
40
1
40
1
41
1
41
1
41
1
41
1
10
2.7695668074024082
20
-0.080497777607271281
30
0
10
2.5581139962117083
20
-0.080497777607271281
30
0
10
2.3880706959342701
20
-0.25230329814859953
30
0
10
2.3880706959342701
20
-0.46199387484789245
30
0
0
SPLINE
5
221
100
AcDbEntity
8
0
100
AcDbSpline
70
4
71
3
72
8
73
4
74
0
42
0.000000001
43
0.0000000001
44
0.0000000001
40
0
40
0
40
0
40
0
40
1
40
1
40
1
40
1
41
1
41
1
41
1
41
1
10
2.3880706959342701
20
-0.46199387484789245
30
0
10
2.3880706959342701
20
-0.67256573240933815
30
0
10
2.5581139962117083
20
-0.84437108222045865
30
0
10
2.7695668074024082
20
-0.84437108222045865
30
0
0
SPLINE
5
222
100
AcDbEntity
8
0
100
AcDbSpline
70
4
71
3
72
8
73
4
74
0
42
0.000000001
43
0.0000000001
44
0.0000000001
40
0
40
0
40
0
40
0
40
1
40
1
40
1
40
1
41
1
41
1
41
1
41
1
10
2.7695668074024082
20
-0.84437108222045865
30
0
10
2.9722090863743311
20
-0.84437108222045865
30
0
10
3.138728118039813
20
-0.68666260292940429
30
0
10
3.1501818150928163
20
-0.48578236093093974
30
0
0
ENDSEC
0
SECTION
2
OBJECTS
0
DICTIONARY
5
C
100
AcDbDictionary
3
ACAD_GROUP
350
D
3
ACAD_MLINESTYLE
350
17
0
DICTIONARY
5
D
100
AcDbDictionary
0
DICTIONARY
5
1A
330
C
100
AcDbDictionary
0
DICTIONARY
5
17
100
AcDbDictionary
0
ENDSEC
0
EOF
